<svg width="50" height="50" viewBox="0 0 50 50" fill="none" xmlns="http://www.w3.org/2000/svg">
<path d="M22.625 28.8644C25.7317 28.8644 28.25 26.3461 28.25 23.2394C28.25 20.1327 25.7317 17.6144 22.625 17.6144C19.5183 17.6144 17 20.1327 17 23.2394C17 26.3461 19.5183 28.8644 22.625 28.8644Z" fill="black"/>
<path fill-rule="evenodd" clip-rule="evenodd" d="M22.5 6.23938C23.5356 6.23938 24.375 7.07885 24.375 8.11438V10.1223C30.1232 10.9445 34.6699 15.4912 35.4921 21.2394H37.5C38.5356 21.2394 39.375 22.0788 39.375 23.1144C39.375 24.1499 38.5356 24.9894 37.5 24.9894H35.4921C34.6699 30.7376 30.1232 35.2843 24.375 36.1064V38.1144C24.375 39.1499 23.5356 39.9894 22.5 39.9894C21.4644 39.9894 20.625 39.1499 20.625 38.1144V36.1064C14.8768 35.2843 10.3301 30.7376 9.50792 24.9894H7.5C6.46447 24.9894 5.625 24.1499 5.625 23.1144C5.625 22.0788 6.46447 21.2394 7.5 21.2394H9.50792C10.3301 15.4912 14.8768 10.9445 20.625 10.1223V8.11438C20.625 7.07885 21.4644 6.23938 22.5 6.23938ZM13.125 23.1144C13.125 17.9367 17.3223 13.7394 22.5 13.7394C27.6776 13.7394 31.875 17.9367 31.875 23.1144C31.875 28.292 27.6776 32.4894 22.5 32.4894C17.3223 32.4894 13.125 28.292 13.125 23.1144Z" fill="black"/>
</svg>
