<svg width="36" height="36" viewBox="0 0 36 36" fill="none" xmlns="http://www.w3.org/2000/svg">
<path d="M5.22398 18.0269H18.2983V20.2059H5.22398V18.0269ZM3.04492 12.5792H13.9402V14.7583H3.04492V12.5792Z" fill="black"/>
<path d="M33.4631 18.6871L30.1945 11.0604C30.1107 10.8644 29.9711 10.6973 29.7931 10.5799C29.615 10.4626 29.4065 10.4001 29.1933 10.4002H25.9247V8.22112C25.9247 7.93216 25.8099 7.65503 25.6056 7.45071C25.4012 7.24638 25.1241 7.13159 24.8352 7.13159H7.40273V9.31065H23.7456V22.9907C23.2492 23.279 22.8147 23.6627 22.4672 24.1198C22.1198 24.5768 21.8663 25.0981 21.7213 25.6536H14.8747C14.6095 24.6265 13.9789 23.7314 13.1009 23.1361C12.223 22.5408 11.1581 22.286 10.1058 22.4197C9.05356 22.5534 8.08615 23.0662 7.38494 23.8621C6.68374 24.658 6.29688 25.6823 6.29688 26.7431C6.29687 27.8038 6.68374 28.8281 7.38494 29.624C8.08615 30.4199 9.05356 30.9328 10.1058 31.0665C11.1581 31.2001 12.223 30.9454 13.1009 30.3501C13.9789 29.7547 14.6095 28.8597 14.8747 27.8326H21.7213C21.9583 28.7677 22.5003 29.597 23.2616 30.1894C24.0229 30.7819 24.96 31.1035 25.9247 31.1035C26.8893 31.1035 27.8264 30.7819 28.5877 30.1894C29.349 29.597 29.8911 28.7677 30.1281 27.8326H32.4619C32.7508 27.8326 33.0279 27.7178 33.2323 27.5135C33.4366 27.3092 33.5514 27.032 33.5514 26.7431V19.1164C33.5514 18.9688 33.5214 18.8227 33.4631 18.6871ZM10.6713 28.9221C10.2403 28.9221 9.81903 28.7943 9.46069 28.5549C9.10235 28.3155 8.82305 27.9751 8.65812 27.577C8.4932 27.1788 8.45004 26.7407 8.53412 26.318C8.6182 25.8953 8.82574 25.507 9.13048 25.2023C9.43523 24.8975 9.8235 24.69 10.2462 24.6059C10.6689 24.5218 11.107 24.565 11.5052 24.7299C11.9034 24.8948 12.2437 25.1741 12.4831 25.5325C12.7226 25.8908 12.8504 26.3121 12.8504 26.7431C12.8498 27.3208 12.62 27.8747 12.2115 28.2833C11.803 28.6918 11.2491 28.9216 10.6713 28.9221ZM25.9247 12.5792H28.4742L30.8101 18.0269H25.9247V12.5792ZM25.9247 28.9221C25.4937 28.9221 25.0724 28.7943 24.7141 28.5549C24.3557 28.3155 24.0764 27.9751 23.9115 27.577C23.7466 27.1788 23.7034 26.7407 23.7875 26.318C23.8716 25.8953 24.0791 25.507 24.3839 25.2023C24.6886 24.8975 25.0769 24.69 25.4996 24.6059C25.9223 24.5218 26.3604 24.565 26.7586 24.7299C27.1567 24.8948 27.4971 25.1741 27.7365 25.5325C27.9759 25.8908 28.1037 26.3121 28.1037 26.7431C28.1032 27.3208 27.8734 27.8747 27.4649 28.2833C27.0563 28.6918 26.5024 28.9216 25.9247 28.9221ZM31.3723 25.6536H30.1281C29.8881 24.7203 29.3452 23.8931 28.5845 23.3015C27.8238 22.71 26.8883 22.3877 25.9247 22.385V20.2059H31.3723V25.6536Z" fill="black"/>
</svg>
