<svg width="45" height="45" viewBox="0 0 45 45" fill="none" xmlns="http://www.w3.org/2000/svg">
<path d="M5.625 22.5H22.5V25.3125H5.625V22.5ZM2.8125 15.4688H16.875V18.2812H2.8125V15.4688Z" fill="white"/>
<path d="M42.0732 23.3522L37.8544 13.5084C37.7462 13.2554 37.566 13.0398 37.3362 12.8883C37.1065 12.7368 36.8373 12.6561 36.5621 12.6562H32.3433V9.84375C32.3433 9.47079 32.1952 9.1131 31.9315 8.84938C31.6677 8.58566 31.31 8.4375 30.9371 8.4375H8.43709V11.25H29.5308V28.9069C28.8901 29.279 28.3293 29.7742 27.8808 30.3641C27.4324 30.954 27.1052 31.6268 26.918 32.3437H18.0811C17.7389 31.0181 16.9249 29.8629 15.7918 29.0945C14.6586 28.3261 13.2842 27.9973 11.926 28.1698C10.5678 28.3423 9.31918 29.0043 8.41413 30.0315C7.50909 31.0588 7.00977 32.3809 7.00977 33.75C7.00977 35.1191 7.50909 36.4412 8.41413 37.4684C9.31918 38.4957 10.5678 39.1577 11.926 39.3302C13.2842 39.5027 14.6586 39.1739 15.7918 38.4055C16.9249 37.6371 17.7389 36.4819 18.0811 35.1562H26.918C27.2239 36.3631 27.9235 37.4336 28.9061 38.1982C29.8888 38.9628 31.0983 39.378 32.3433 39.378C33.5884 39.378 34.7979 38.9628 35.7805 38.1982C36.7631 37.4336 37.4627 36.3631 37.7686 35.1562H40.7808C41.1538 35.1562 41.5115 35.0081 41.7752 34.7444C42.0389 34.4806 42.1871 34.123 42.1871 33.75V23.9062C42.1872 23.7157 42.1484 23.5272 42.0732 23.3522ZM12.6558 36.5625C12.0996 36.5625 11.5558 36.3975 11.0933 36.0885C10.6308 35.7795 10.2703 35.3402 10.0574 34.8263C9.84455 34.3124 9.78886 33.7469 9.89738 33.2013C10.0059 32.6557 10.2738 32.1546 10.6671 31.7613C11.0604 31.3679 11.5616 31.1001 12.1071 30.9915C12.6527 30.883 13.2182 30.9387 13.7321 31.1516C14.246 31.3645 14.6853 31.7249 14.9943 32.1875C15.3034 32.65 15.4683 33.1937 15.4683 33.75C15.4676 34.4957 15.171 35.2106 14.6438 35.7379C14.1165 36.2652 13.4015 36.5618 12.6558 36.5625ZM32.3433 15.4687H35.634L38.649 22.5H32.3433V15.4687ZM32.3433 36.5625C31.7871 36.5625 31.2433 36.3975 30.7808 36.0885C30.3183 35.7795 29.9578 35.3402 29.7449 34.8263C29.5321 34.3124 29.4764 33.7469 29.5849 33.2013C29.6934 32.6557 29.9613 32.1546 30.3546 31.7613C30.7479 31.3679 31.2491 31.1001 31.7946 30.9915C32.3402 30.883 32.9057 30.9387 33.4196 31.1516C33.9335 31.3645 34.3728 31.7249 34.6818 32.1875C34.9909 32.65 35.1558 33.1937 35.1558 33.75C35.1551 34.4957 34.8585 35.2106 34.3313 35.7379C33.804 36.2652 33.089 36.5618 32.3433 36.5625ZM39.3746 32.3437H37.7686C37.4589 31.1392 36.7582 30.0715 35.7763 29.308C34.7945 28.5445 33.5871 28.1285 32.3433 28.125V25.3125H39.3746V32.3437Z" fill="white"/>
</svg>
