<svg width="27" height="27" viewBox="0 0 27 27" fill="none" xmlns="http://www.w3.org/2000/svg">
<path d="M13.3245 1.72974C11.4752 1.72974 9.70159 2.46439 8.3939 3.77207C7.08621 5.07976 6.35156 6.85336 6.35156 8.70271C6.35156 10.3518 6.70254 11.4315 7.65899 12.625L13.3245 19.1622L18.9901 12.625C19.9465 11.4315 20.2975 10.3518 20.2975 8.70271C20.2975 6.85336 19.5629 5.07976 18.2552 3.77207C16.9475 2.46439 15.1739 1.72974 13.3245 1.72974V1.72974Z" stroke="black" stroke-width="2.32432" stroke-linecap="round" stroke-linejoin="round"/>
<path d="M5.18961 17.0042C3.03845 17.849 1.70312 19.024 1.70312 20.3244C1.70312 22.8928 6.90613 24.9731 13.3247 24.9731C19.7434 24.9731 24.9464 22.8928 24.9464 20.3244C24.9464 19.024 23.611 17.849 21.4599 17.0042" stroke="black" stroke-width="2.32432" stroke-linecap="round" stroke-linejoin="round"/>
<path d="M13.3243 9.86485C13.9661 9.86485 14.4864 9.34453 14.4864 8.70269C14.4864 8.06085 13.9661 7.54053 13.3243 7.54053C12.6824 7.54053 12.1621 8.06085 12.1621 8.70269C12.1621 9.34453 12.6824 9.86485 13.3243 9.86485Z" stroke="black" stroke-width="2.32432" stroke-linecap="round" stroke-linejoin="round"/>
</svg>
