<svg width="44" height="44" viewBox="0 0 44 44" fill="none" xmlns="http://www.w3.org/2000/svg">
<path d="M22 2C18.8174 2 15.7652 3.26428 13.5147 5.51472C11.2643 7.76515 10 10.8174 10 14C10 16.838 10.604 18.696 12.25 20.75L22 32L31.75 20.75C33.396 18.696 34 16.838 34 14C34 10.8174 32.7357 7.76515 30.4853 5.51472C28.2348 3.26428 25.1826 2 22 2V2Z" stroke="white" stroke-width="4" stroke-linecap="round" stroke-linejoin="round"/>
<path d="M8 28.2861C4.298 29.7401 2 31.7621 2 34.0001C2 38.4201 10.954 42.0001 22 42.0001C33.046 42.0001 42 38.4201 42 34.0001C42 31.7621 39.702 29.7401 36 28.2861" stroke="white" stroke-width="4" stroke-linecap="round" stroke-linejoin="round"/>
<path d="M22 16C23.1046 16 24 15.1046 24 14C24 12.8954 23.1046 12 22 12C20.8954 12 20 12.8954 20 14C20 15.1046 20.8954 16 22 16Z" stroke="white" stroke-width="4" stroke-linecap="round" stroke-linejoin="round"/>
</svg>
