<svg width="41" height="41" viewBox="0 0 41 41" fill="none" xmlns="http://www.w3.org/2000/svg">
<path d="M20.3374 3.66003C19.9984 3.66003 19.6594 3.82952 19.3205 3.999L5.93139 11.4562C5.42295 11.7952 5.08398 12.3036 5.08398 12.9815V28.2349C5.08398 28.9128 5.42295 29.4213 5.93139 29.7603L19.3205 37.2175C19.6594 37.3869 19.9984 37.5564 20.3374 37.5564C20.6763 37.5564 21.0153 37.3869 21.3543 37.2175L22.8796 36.3701C22.3711 35.3532 22.2017 34.1668 22.0322 32.9804V21.6251L32.2011 15.8627V22.3031C33.3875 22.3031 34.5738 22.4725 35.5907 22.8115V12.9815C35.5907 12.3036 35.2518 11.7952 34.7433 11.4562L21.3543 3.999C21.0153 3.82952 20.6763 3.66003 20.3374 3.66003ZM20.3374 7.38864L30.5063 12.9815L27.1166 14.8458L17.1172 9.08346L20.3374 7.38864ZM13.7276 10.9478L23.727 16.8796L20.3374 18.7439L10.1684 12.9815L13.7276 10.9478ZM8.47362 15.8627L18.6425 21.6251V32.9804L8.47362 27.218V15.8627ZM36.0992 27.0485L29.9978 33.1499L27.2861 30.4382L25.4218 32.472L30.1673 37.5564L38.3025 29.4213L36.0992 27.0485Z" fill="white"/>
</svg>
