<svg width="415" height="314" viewBox="0 0 415 314" fill="none" xmlns="http://www.w3.org/2000/svg">
<g clip-path="url(#clip0_78_854)">
<rect width="415" height="314" fill="white"/>
<path d="M369.361 295.632C369.51 301.46 368.534 307.27 366.47 312.846C366.398 313.048 366.311 313.251 366.224 313.453H323.666C324.274 310.984 325.24 308.585 326.543 306.306C330.084 300.111 335.867 294.81 341.577 289.545C349.441 282.29 357.117 275.095 358.331 265.661C361.449 269.577 363.936 273.809 365.733 278.252C363.534 278.923 361.515 279.943 359.791 281.254C359.314 281.623 358.808 282.159 359.054 282.671C359.286 283.1 359.922 283.243 360.485 283.339C361.844 283.553 363.203 283.767 364.562 283.97C365.632 284.149 366.716 284.315 367.8 284.482C368.753 288.149 369.276 291.883 369.361 295.632Z" fill="#F2F2F2"/>
<path d="M405.111 291.773C398.288 295.191 393.951 300.481 390.409 306.401C387.327 306.98 384.482 308.212 382.155 309.975C381.663 310.344 381.157 310.88 381.418 311.392C381.634 311.821 382.285 311.964 382.849 312.059C384.193 312.274 385.566 312.488 386.911 312.691C386.781 312.941 386.651 313.203 386.521 313.453H341.418C343.465 311.178 345.733 309.042 348.198 307.068C348.733 306.627 349.282 306.21 349.846 305.782C355.595 301.5 362.197 298.066 369.361 295.632C380.648 291.744 392.99 290.412 405.111 291.773Z" fill="#F2F2F2"/>
<path d="M348.937 313.453H308.778C308.559 310.803 308.578 308.143 308.836 305.496C309.706 297.3 312.721 289.358 317.675 282.215C322.629 275.073 329.403 268.901 337.531 264.124C335.449 270.235 336.519 276.31 338.687 282.409C338.384 282.493 338.08 282.564 337.806 282.66C335.606 283.331 333.588 284.351 331.864 285.662C331.387 286.031 330.881 286.567 331.127 287.079C331.344 287.508 331.994 287.651 332.558 287.746C333.917 287.961 335.276 288.175 336.62 288.378C337.704 288.556 338.789 288.723 339.873 288.902C340.379 288.973 340.885 289.056 341.391 289.14C341.463 289.283 341.506 289.414 341.579 289.545C344.123 295.322 346.898 301.148 348.199 307.068C348.522 308.554 348.744 310.053 348.865 311.559C348.908 312.19 348.937 312.822 348.937 313.453Z" fill="#F2F2F2"/>
<path d="M41.6365 22.4003C49.143 22.4003 55.2281 17.3858 55.2281 11.2001C55.2281 5.01447 49.143 0 41.6365 0C34.1301 0 28.0449 5.01447 28.0449 11.2001C28.0449 17.3858 34.1301 22.4003 41.6365 22.4003Z" fill="#FD6584"/>
<path d="M72.0582 5.8973C71.6739 4.86133 70.9305 3.94052 69.9194 3.24812C68.9084 2.55572 67.6738 2.12193 66.3676 2.00012C66.3381 1.99669 66.31 2.00122 66.2806 1.99965C66.2426 1.99009 66.2039 1.98273 66.1646 1.97764C59.949 1.31566 52.774 3.76537 50.1836 8.62124C49.5515 7.91104 48.7191 7.3383 47.7584 6.9525C46.7976 6.56669 45.7373 6.37942 44.6691 6.40684C43.2916 6.48248 41.9759 6.90609 40.9011 7.62C39.8263 8.33391 39.0445 9.30342 38.6623 10.3966C38.6216 10.5304 38.6337 10.6714 38.6968 10.7991C38.7599 10.9269 38.8707 11.0348 39.0132 11.1071C39.4237 11.3938 39.9101 11.5973 40.4332 11.7011C41.562 11.8982 42.6949 12.0787 43.8317 12.2427C46.05 12.5626 48.2799 12.8212 50.5214 13.0186C55.0714 13.4204 59.6497 13.563 64.2236 13.4454C65.7469 13.4063 67.216 13.3646 68.6117 12.8106C69.6272 12.3973 70.4947 11.7735 71.1291 11.0004C71.7268 10.2573 72.1197 9.41534 72.2802 8.53372C72.4407 7.6521 72.3649 6.7522 72.0582 5.8973Z" fill="#F0F0F0"/>
<path d="M43.8082 20.8308C43.4239 19.7949 42.6805 18.8741 41.6694 18.1817C40.6584 17.4893 39.4239 17.0555 38.1176 16.9337C38.088 16.9302 38.06 16.9348 38.0306 16.9332C37.9926 16.9236 37.9539 16.9163 37.9147 16.9112C31.699 16.2492 24.5241 18.6989 21.9335 23.5548C21.3015 22.8446 20.4691 22.2718 19.5084 21.886C18.5476 21.5002 17.4873 21.3129 16.419 21.3404C15.0416 21.416 13.7259 21.8396 12.651 22.5535C11.5762 23.2674 10.7945 24.237 10.4123 25.3301C10.3716 25.4639 10.3837 25.6049 10.4468 25.7327C10.5099 25.8604 10.6207 25.9683 10.7632 26.0407C11.1737 26.3274 11.6601 26.5308 12.1832 26.6347C13.312 26.8317 14.4448 27.0122 15.5817 27.1762C17.8 27.4961 20.0299 27.7547 22.2714 27.9521C26.8215 28.3539 31.3997 28.4965 35.9736 28.3789C37.4969 28.3398 38.966 28.2981 40.3618 27.7441C41.3772 27.3308 42.2447 26.707 42.8791 25.9339C43.4768 25.1908 43.8697 24.3488 44.0302 23.4672C44.1907 22.5856 44.1149 21.6857 43.8082 20.8308Z" fill="#F0F0F0"/>
<path d="M174.562 194.67C174.218 195.085 173.313 195.58 172.961 195.989L173.337 195.049L173.209 194.832L172.408 193.512L152.025 159.662L152.017 159.655L117.463 102.298V102.292L116.671 100.979V100.972L99.5701 72.5843L98.7617 71.2385C99.37 71.2517 99.9784 71.2715 100.587 71.2978L101.404 72.6503L118.456 100.972L118.464 100.979L119.257 102.292V102.298L152.929 158.197V158.204L153.722 159.516V159.523L174.105 193.347L174.377 193.802L174.562 194.67Z" fill="#3F3D56"/>
<path d="M172.287 102.298H19.7422C20.1507 101.856 20.5666 101.414 20.999 100.979H171.03C171.462 101.414 171.878 101.856 172.287 102.298Z" fill="#3F3D56"/>
<path d="M191.615 158.204C191.566 158.646 191.511 159.088 191.438 159.523H152.361V158.204H191.615Z" fill="#3F3D56"/>
<path d="M25.5465 96.6313V202.794C24.9941 202.313 24.4656 201.825 23.9453 201.336V98.0893C24.4656 97.6011 24.9941 97.1129 25.5465 96.6313Z" fill="#3F3D56"/>
<path d="M173.706 193.511H24.7461V194.831H173.706V193.511Z" fill="#3F3D56"/>
<path d="M173.576 194.67H173.76V194.452C173.704 194.528 173.643 194.6 173.576 194.67ZM172.343 102.137C171.935 101.695 171.519 101.253 171.086 100.817C162.583 92.025 151.9 84.8294 139.752 79.7109C127.604 74.5925 114.271 71.6691 100.642 71.136C100.034 71.1096 99.4257 71.0898 98.8171 71.0766C97.9043 71.0568 96.9916 71.0436 96.071 71.0436C82.8304 71.0378 69.7321 73.2943 57.6032 77.6705C45.4743 82.0468 34.5782 88.4478 25.6029 96.4695C25.0506 96.9511 24.5221 97.4393 24.0018 97.9275C22.985 98.8709 22.0029 99.8341 21.0554 100.817C20.6231 101.253 20.2072 101.695 19.7987 102.137C6.26901 116.671 -0.709666 134.629 0.0570716 152.937C0.82381 171.244 9.28829 188.763 24.0018 202.494C24.5221 202.982 25.0506 203.47 25.6029 203.952C35.2781 212.586 47.1674 219.335 60.4058 223.706C73.6443 228.077 87.8988 229.961 102.132 229.221C116.365 228.481 130.219 225.136 142.686 219.428C155.153 213.721 165.919 205.794 174.201 196.227C174.553 195.818 174.905 195.409 175.249 194.993C184.128 184.393 189.706 172.156 191.493 159.361C191.566 158.926 191.622 158.484 191.67 158.042C191.982 155.469 192.139 152.858 192.142 150.211C192.166 132.824 185.205 115.92 172.343 102.137V102.137ZM189.884 159.361C188.142 171.643 182.842 183.4 174.433 193.641C174.217 193.911 173.992 194.182 173.76 194.452C173.704 194.528 173.643 194.6 173.576 194.67C173.52 194.742 173.456 194.815 173.392 194.887C165.225 204.503 154.523 212.471 142.087 218.192C129.652 223.914 115.805 227.242 101.587 227.926C87.3682 228.61 73.1461 226.633 59.9868 222.143C46.8274 217.653 35.0724 210.766 25.6029 201.999C25.0505 201.498 24.5142 200.996 24.0017 200.482C9.92387 186.814 2.01533 169.555 1.61699 151.631C1.21864 133.706 8.355 116.22 21.8161 102.137C22.2406 101.694 22.6648 101.252 23.1049 100.817C23.3934 100.52 23.6894 100.23 24.0017 99.9396C24.5142 99.425 25.0505 98.9236 25.6029 98.4222C34.4471 90.2218 45.3003 83.6593 57.4468 79.1675C69.5934 74.6757 82.7574 72.3566 96.0709 72.3631C97.264 72.3631 98.4489 72.3828 99.6255 72.4224C100.242 72.4356 100.851 72.462 101.459 72.4884C114.488 73.1022 127.221 75.9367 138.853 80.8128C150.485 85.6889 160.763 92.5005 169.037 100.817C169.477 101.252 169.902 101.694 170.326 102.136C185.433 117.966 192.509 138.004 190.068 158.042C190.012 158.484 189.956 158.926 189.884 159.361L189.884 159.361ZM173.576 194.67H173.76V194.452C173.704 194.528 173.643 194.6 173.576 194.67H173.576Z" fill="#CCCCCC"/>
<path d="M83.9632 45.9397C83.9632 46.3025 83.949 46.6623 83.9205 47.019C83.7605 49.0764 83.1297 51.0903 82.0615 52.9545C82.0532 52.9704 82.0435 52.9852 82.0353 53C81.9855 53.0865 81.9345 53.1729 81.882 53.2582C81.5643 53.7855 81.2119 54.298 80.8263 54.7936C79.0648 57.0684 76.6505 58.9507 73.7967 60.2741C70.9429 61.5975 67.7374 62.3213 64.4636 62.3815L64.661 71.7345L67.2349 70.6177L67.6945 71.3376L64.6803 72.6455L65.0488 90.0164L65.0529 90.2484L63.0628 90.6135L63.0669 90.3803L63.6935 62.3826C61.0583 62.3515 58.457 61.8892 56.0404 61.0228C53.6238 60.1563 51.4402 58.9029 49.6163 57.3354C49.4907 57.2285 49.3665 57.1181 49.245 57.009L49.2312 56.9964C47.7115 55.6308 46.4825 54.0636 45.596 52.3608C45.6153 52.379 45.636 52.3961 45.6553 52.4143C37.4314 35.3839 42.216 27.489 55.1201 31.2176C55.1891 31.1891 55.2596 31.1618 55.3286 31.1334C59.842 29.3419 65.0075 29.0132 69.8011 30.2124C74.5948 31.4116 78.6668 34.0512 81.2099 37.6079C81.3314 37.7763 81.4487 37.948 81.5619 38.1209C83.1416 40.5212 83.9672 43.2091 83.9632 45.9397Z" fill="#E5E5E5"/>
<path d="M107.432 31.4535C107.191 34.7209 106.165 37.9165 104.413 40.8545C101.043 46.4754 95.1267 50.7372 87.7532 52.3272C87.7409 52.3325 87.727 52.3348 87.7132 52.3338C85.8579 52.7325 83.9536 52.9561 82.037 53.0001H81.8768C81.6767 53.0067 81.4765 53.0067 81.2764 53.0067C81.1403 53.0067 81.0042 53.0067 80.8681 53.0001C74.0032 52.9129 67.4554 50.6044 62.6382 46.5731C57.8211 42.5418 55.121 37.1111 55.1211 31.4535V31.216C55.1331 29.8404 55.3756 28.4729 55.8416 27.152C55.8416 27.1454 55.8496 27.1388 55.8496 27.1322C56.7191 24.8369 58.2874 22.7633 60.405 21.1089C65.6489 16.8339 73.951 14.1488 81.2764 9.90019C97.3203 0.598043 109.105 9.85402 107.432 31.4535Z" fill="#E5E5E5"/>
<path opacity="0.2" d="M104.414 40.8545C101.044 46.4754 95.1272 50.7372 87.7538 52.3272C87.7415 52.3325 87.7276 52.3348 87.7137 52.3338C85.8634 52.7123 83.9677 52.9203 82.0616 52.9539H81.8774C81.5412 52.9606 81.2049 52.9606 80.8687 52.9539C73.9853 52.8124 67.4464 50.4432 62.6669 46.3589C57.8873 42.2746 55.2515 36.8038 55.3298 31.1302C55.3542 29.7941 55.5257 28.4626 55.8422 27.152C55.8422 27.1455 55.8502 27.1389 55.8502 27.1322C56.7197 24.8369 58.288 22.7633 60.4055 21.1089C59.6944 23.9045 59.6646 26.7887 60.318 29.5938C60.9714 32.3989 62.2949 35.0691 64.2116 37.449C66.1283 39.8289 68.5999 41.8711 71.4828 43.457C74.3658 45.0428 77.6024 46.1406 81.0048 46.6865C81.2529 46.7261 81.5011 46.7657 81.7493 46.7987C82.4698 46.8977 83.1904 46.9702 83.9189 47.0164C87.6722 47.2674 91.447 46.8467 94.9845 45.7831C98.5221 44.7196 101.739 43.0383 104.414 40.8545Z" fill="black"/>
<path d="M82.1621 66.4549L86.1109 64.7421L85.5084 63.7989L82.1355 65.262L81.882 53.2587V53.2572L81.8759 53.003V52.9577L81.7449 46.7998L81.5614 38.1212L81.4207 31.4529H81.3471L81.2094 37.6078V37.6093L81.0066 46.6889L80.8665 52.9537L80.8659 53.0059L80.8255 54.7934L80.025 90.6496L80.0195 90.8864L82.6909 91.5043L82.6861 91.2655L82.1621 66.4549Z" fill="#3F3D56"/>
<path d="M177.443 108.916C160.84 106.175 144.184 103.688 127.325 102.166C111.341 100.616 95.221 100.232 79.1542 101.018C64.644 101.825 50.0095 103.716 36.3783 108.027C25.8742 111.35 14.6775 116.376 9.0036 124.759C3.53424 132.84 5.66746 142.159 11.6229 149.614C18.7885 158.585 29.9623 164.732 41.5794 169.225C54.8064 174.341 68.954 177.657 83.1196 180.477C90.304 181.907 97.5274 183.2 104.751 184.486C106.258 184.755 106.902 182.847 105.39 182.578C90.8221 179.984 76.2122 177.381 62.0063 173.626C48.8602 170.152 35.407 165.7 24.6415 158.404C15.9322 152.501 7.65148 143.879 8.16554 134.076C8.68376 124.193 18.7457 117.293 28.6077 113.046C40.9324 107.739 54.9351 105.153 68.6561 103.802C84.3669 102.36 100.211 102.182 115.963 103.272C137.016 104.592 157.758 107.654 178.42 111.084" fill="black"/>
<path d="M99.497 124.655C106.484 127.532 110.738 131.333 110.738 135.502C110.738 144.482 91.0181 151.762 66.6931 151.762C56.1173 151.762 46.4148 150.385 38.8223 148.091C46.8865 151.412 58.5927 153.504 71.6261 153.504C95.9511 153.504 115.671 146.224 115.671 137.244C115.671 132.168 109.368 127.636 99.497 124.655Z" fill="#F1F1F1"/>
<path d="M115.038 130.823C122.922 134.07 127.722 138.359 127.722 143.063C127.722 153.196 105.471 161.41 78.0232 161.41C66.0896 161.41 55.1415 159.856 46.5742 157.268C55.6738 161.016 68.8829 163.376 83.5895 163.376C111.037 163.376 133.289 155.162 133.289 145.029C133.289 139.301 126.177 134.188 115.038 130.823Z" fill="#F1F1F1"/>
<path d="M93.5496 127.372C98.4721 129.399 101.469 132.077 101.469 135.014C101.469 141.34 87.5761 146.469 70.4385 146.469C63.7618 146.541 57.1199 145.666 50.8027 143.883C56.4842 146.223 64.7316 147.697 73.9139 147.697C91.0515 147.697 104.944 142.568 104.944 136.241C104.944 132.665 100.504 129.472 93.5496 127.372Z" fill="#F1F1F1"/>
<path d="M67.3377 139.488C57.2156 139.488 52.293 137.199 49.946 135.28C49.5178 134.928 49.226 134.478 49.1078 133.989C48.9895 133.5 49.05 132.993 49.2817 132.533C49.5134 132.072 49.9057 131.678 50.4091 131.401C50.9125 131.125 51.5042 130.977 52.1094 130.978H87.4218C87.9026 130.977 88.3715 131.101 88.7632 131.33C89.155 131.56 89.4502 131.884 89.6076 132.259C89.7651 132.633 89.777 133.038 89.6418 133.419C89.5065 133.799 89.2308 134.135 88.853 134.38C85.2558 136.71 78.6032 139.488 67.3377 139.488Z" fill="#3F3D56"/>
<path d="M74.6692 110.204C71.9163 108.48 68.461 107.701 65.0269 108.03C71.1236 109.27 66.3126 116.214 71.8647 123.414C74.8904 127.338 69.006 129.262 63.4004 129.789C66.4006 130.386 69.5586 130.113 72.3436 129.017C75.1286 127.921 77.3707 126.068 78.693 123.77C80.0152 121.472 80.337 118.868 79.6042 116.398C78.8715 113.927 77.1288 111.74 74.6692 110.204V110.204Z" fill="#3F3D56"/>
<path d="M68.4213 106.584H67.1211V132.087H68.4213V106.584Z" fill="#3F3D56"/>
<path d="M193.544 113.742C190.091 111.738 186.192 110.314 182.071 109.551C177.95 108.789 173.687 108.703 169.526 109.298C165.364 109.893 161.386 111.158 157.818 113.02C154.249 114.882 151.161 117.305 148.729 120.151C138.502 132.118 128.239 163.501 135.483 181.681C157.092 162.872 190.288 160.918 201.322 150.672C213.111 139.723 208.067 122.17 193.544 113.742Z" fill="#7903C1"/>
<path d="M174.589 140.842C180.382 140.842 185.078 136.972 185.078 132.198C185.078 127.424 180.382 123.554 174.589 123.554C168.796 123.554 164.1 127.424 164.1 132.198C164.1 136.972 168.796 140.842 174.589 140.842Z" fill="white"/>
<path d="M126.616 191.094C130.411 191.094 133.487 188.559 133.487 185.433C133.487 182.306 130.411 179.771 126.616 179.771C122.822 179.771 119.746 182.306 119.746 185.433C119.746 188.559 122.822 191.094 126.616 191.094Z" fill="#7903C1"/>
<path opacity="0.2" d="M185.81 130.204C186.504 131.184 186.958 132.267 187.144 133.392C187.33 134.517 187.246 135.66 186.896 136.758C186.546 137.856 185.937 138.886 185.104 139.79C184.271 140.694 183.23 141.454 182.04 142.026C180.851 142.599 179.536 142.972 178.171 143.126C176.807 143.28 175.418 143.21 174.086 142.922C172.754 142.633 171.504 142.132 170.407 141.445C169.31 140.758 168.388 139.9 167.693 138.92C169.566 140.274 171.961 141.034 174.452 141.065C176.942 141.096 179.364 140.395 181.285 139.089C183.206 137.783 184.5 135.956 184.936 133.935C185.371 131.914 184.92 129.831 183.663 128.06C184.514 128.674 185.239 129.398 185.81 130.204Z" fill="#231F20"/>
<path opacity="0.2" d="M201.341 150.712C190.307 160.959 157.111 162.913 135.502 181.721C134.828 180.001 134.309 178.242 133.949 176.459C155.547 159.361 186.895 157.2 197.556 147.3C207.097 138.439 205.611 125.254 197.001 116.08C208.81 125.101 212.145 140.679 201.341 150.712Z" fill="#231F20"/>
<path d="M314.459 307.064H306.629L302.904 282.178H314.46L314.459 307.064Z" fill="#FFB6B6"/>
<path d="M316.455 313.319L291.209 313.318V313.055C291.209 310.907 292.245 308.848 294.087 307.329C295.93 305.811 298.429 304.957 301.036 304.957H301.036L305.648 302.074L314.252 304.958L316.456 304.958L316.455 313.319Z" fill="#2F2E41"/>
<path d="M284.117 302.998L276.479 304.42L266.193 280.82L277.466 278.723L284.117 302.998Z" fill="#FFB6B6"/>
<path d="M287.737 308.737L263.11 313.319L263.04 313.062C262.466 310.967 262.926 308.77 264.317 306.954C265.709 305.139 267.919 303.853 270.461 303.38L270.461 303.38L274.189 299.73L283.353 300.981L285.502 300.581L287.737 308.737Z" fill="#2F2E41"/>
<path d="M324.375 154.92C328.046 164.044 327.658 173.947 323.492 184.576L321.712 244.42C324.656 247.09 326.503 257.974 321.968 265.768C315.913 276.176 320.085 290.569 315.804 297.474H303.39L300.339 269.362L297.652 266.192L297.243 240.836C295.594 237.619 293.683 234.429 297.037 230.701L296.947 226.297L296.471 202.82L277.748 225.382C277.216 230.488 274.048 233.164 269.854 234.893L275.653 255.982C285.795 263.135 283.315 274.206 283.482 284.455L286.807 296.548L271.527 297.674L264.784 281.273L257.203 271.167L244.018 230.763L253.213 213.177L256.971 205.989L277.959 165.848L324.375 154.92Z" fill="#2F2E41"/>
<path d="M194.662 122.382C195.274 122.885 196.013 123.272 196.826 123.515C197.639 123.758 198.507 123.851 199.368 123.788C200.23 123.724 201.064 123.506 201.812 123.148C202.56 122.79 203.204 122.302 203.698 121.717L223.939 126.405L220.616 117.828L201.905 114.691C200.657 114.072 199.177 113.852 197.746 114.072C196.314 114.292 195.031 114.937 194.138 115.885C193.245 116.833 192.805 118.018 192.902 119.216C192.998 120.413 193.625 121.539 194.662 122.382Z" fill="#FFB8B8"/>
<path d="M211.216 115.454L230.972 115.335C236.3 114.108 241.917 114.003 247.307 115.03L248.355 115.23L256.6 114.459C261.515 106.363 270.636 99.0427 282.88 92.2992C284.726 91.0729 286.867 90.1828 289.161 89.6874C291.455 89.192 293.85 89.1026 296.189 89.425C298.528 89.7475 300.757 90.4744 302.731 91.5581C304.704 92.6418 306.377 94.0575 307.638 95.7122C309.916 98.7078 310.717 102.307 309.879 105.774C309.041 109.241 306.627 112.313 303.13 114.36L265.821 132.436C262.547 134.022 258.829 134.879 255.032 134.921L254.941 134.96L233.659 128.389L222.711 127.241L207.865 123.686L211.216 115.454Z" fill="#7903C1"/>
<path d="M290.478 77.4635C300.772 77.4635 309.117 70.5866 309.117 62.1034C309.117 53.6203 300.772 46.7433 290.478 46.7433C280.183 46.7433 271.838 53.6203 271.838 62.1034C271.838 70.5866 280.183 77.4635 290.478 77.4635Z" fill="#FFB8B8"/>
<path d="M307.885 71.8451C309.267 70.2206 310.247 67.619 310.826 65.7174C311.6 63.2136 311.727 60.6036 311.199 58.0566C310.671 55.5097 309.5 53.0826 307.761 50.9326C307.119 50.0563 306.199 49.341 305.101 48.8636C303.973 48.4487 302.486 48.5476 301.699 49.3325C301.697 48.6437 301.523 47.9627 301.189 47.3313C300.855 46.7 300.367 46.1318 299.756 45.6619C298.524 44.7272 297.045 44.0419 295.435 43.6603C292.335 42.8812 289.037 42.8084 285.89 43.4495C282.743 44.0905 279.866 45.4217 277.564 47.3016C276.664 48.0558 276.985 44.2871 275.986 44.9509C275.019 45.6641 273.751 46.0368 272.454 45.9894C271.178 45.8774 268.831 49.6245 268.817 48.5671C267.475 49.6757 266.883 54.3506 267.303 55.8779C267.723 57.4053 273.97 56.7303 275.762 57.2537C276.948 57.6005 278.237 57.6122 279.466 57.8379C281.65 58.3031 283.553 59.4113 284.814 60.9533C286.075 62.4953 286.607 64.3644 286.31 66.2077C287.096 65.3366 288.048 64.576 289.128 63.955C289.672 63.6484 290.298 63.4533 290.952 63.386C291.606 63.3187 292.27 63.3811 292.889 63.568C293.448 63.8151 293.94 64.1537 294.334 64.563C294.728 64.9723 295.017 65.4437 295.182 65.9482C295.589 66.9358 295.746 67.9842 296.161 68.9697C297.376 71.8612 298.004 74.8966 301.393 75.5822C304.067 76.1232 305.999 74.063 307.885 71.8451Z" fill="#2F2E41"/>
<path d="M325.966 151.875L323.919 148.502C321.414 135.712 318.938 123.782 322.301 113.052C322.512 103.684 318.999 94.8834 309.243 90.0777L304.842 87.9087L302.614 83.2522L282.1 83.6651L282.04 89.7693L274.693 99.4254V99.4652L275.151 152.01L277.18 157.432L274.119 163.74L275.743 167.765L316.185 162.437L320.888 161.815C321.431 161.672 321.955 161.483 322.452 161.253C324.139 160.481 325.462 159.263 326.207 157.795C326.249 157.711 326.285 157.631 326.322 157.547C326.639 156.862 326.822 156.14 326.865 155.407C326.939 154.186 326.629 152.969 325.966 151.875Z" fill="#7903C1"/>
<path opacity="0.2" d="M326.865 155.407C326.822 156.14 326.639 156.862 326.321 157.547L322.452 161.253C321.955 161.483 321.431 161.672 320.888 161.815L316.185 162.437L322.989 151.895L308.035 124.917L326.865 155.407Z" fill="black"/>
<path d="M343.141 186.612C342.39 186.19 341.761 185.637 341.297 184.993C340.833 184.349 340.547 183.629 340.457 182.884C340.368 182.139 340.477 181.387 340.779 180.68C341.08 179.974 341.566 179.33 342.202 178.795L332.359 162.499L343.754 163.643L351.354 178.942C352.374 179.882 352.94 181.098 352.945 182.359C352.95 183.619 352.394 184.838 351.381 185.783C350.369 186.728 348.971 187.335 347.452 187.488C345.934 187.64 344.4 187.329 343.141 186.612Z" fill="#FFB8B8"/>
<path d="M303.24 130.541L310.707 129.691C310.707 129.691 311.428 138.967 314.999 140.373C318.571 141.779 317.367 142.011 317.788 143.499C318.209 144.987 320.115 147.236 322.944 148.262C325.774 149.287 338.642 175.074 338.642 175.074L349.479 172.992C348.476 170.753 347.816 168.42 347.513 166.046C347.132 162.458 342.197 153.991 340.572 152.735C338.947 151.478 339.59 149.262 338.747 146.286C337.905 143.309 338.49 146.069 337.086 141.108C335.682 136.147 319.899 106.417 319.238 101.837C318.576 97.2562 310.831 94.5601 310.831 94.5601L304.811 95.7169L303.24 130.541Z" fill="#7903C1"/>
<path d="M179.235 314H414.247C414.447 314 414.638 313.935 414.779 313.818C414.92 313.702 415 313.544 415 313.38C415 313.215 414.92 313.057 414.779 312.941C414.638 312.825 414.447 312.759 414.247 312.759H179.235C179.036 312.759 178.844 312.825 178.703 312.941C178.562 313.057 178.482 313.215 178.482 313.38C178.482 313.544 178.562 313.702 178.703 313.818C178.844 313.935 179.036 314 179.235 314Z" fill="#CCCCCC"/>
</g>
<defs>
<clipPath id="clip0_78_854">
<rect width="415" height="314" fill="white"/>
</clipPath>
</defs>
</svg>
