<svg width="567" height="406" viewBox="0 0 567 406" fill="none" xmlns="http://www.w3.org/2000/svg">
<g clip-path="url(#clip0_78_488)">
<path d="M458.865 258.336C459.372 258.383 459.881 258.273 460.324 258.021C460.766 257.769 461.12 257.388 461.338 256.928C461.556 256.469 461.627 255.953 461.542 255.452C461.457 254.95 461.22 254.487 460.863 254.125C460.812 253.874 460.775 253.693 460.724 253.442C460.749 253.389 460.774 253.336 460.799 253.283C461.367 252.099 462.273 251.11 463.402 250.438C464.531 249.767 465.834 249.444 467.146 249.51C468.458 249.576 469.722 250.028 470.778 250.809C471.834 251.59 472.636 252.665 473.082 253.9C474.866 258.828 477.198 263.791 477.59 268.932C477.762 271.204 477.538 273.49 476.929 275.686C482.127 265.62 485.099 254.556 485.642 243.242C485.775 240.403 485.749 237.559 485.565 234.722C485.411 232.397 485.156 230.084 484.799 227.782C482.846 215.293 477.955 203.444 470.529 193.209C466.809 190.951 463.872 187.608 462.112 183.63C461.474 182.2 461.047 180.686 460.843 179.133C461.271 179.21 461.707 179.265 462.136 179.313C462.27 179.327 462.411 179.34 462.545 179.354L462.595 179.358C463.068 179.402 463.542 179.307 463.962 179.087C464.382 178.867 464.729 178.531 464.962 178.118C465.195 177.705 465.304 177.234 465.275 176.761C465.246 176.289 465.081 175.834 464.8 175.453C464.624 175.216 464.449 174.978 464.274 174.741C464.008 174.376 463.734 174.017 463.468 173.651C463.437 173.616 463.408 173.579 463.382 173.541C463.076 173.124 462.769 172.714 462.463 172.297C463.099 171.405 463.932 170.672 464.898 170.155C468.24 168.403 472.668 169.93 474.881 172.98C477.102 176.031 477.354 180.177 476.364 183.813C475.413 186.902 473.943 189.806 472.017 192.402C472.183 192.636 472.356 192.863 472.522 193.097C475.555 197.391 478.159 201.972 480.297 206.774C479.969 201.491 480.901 196.205 483.016 191.352C485.141 186.836 488.902 183.125 492.241 179.291C496.252 174.686 503.922 177.134 504.307 183.226C504.31 183.285 504.314 183.344 504.317 183.403C503.837 183.645 503.365 183.904 502.903 184.179C502.322 184.529 501.86 185.046 501.578 185.663C501.296 186.28 501.207 186.967 501.323 187.635C501.439 188.303 501.754 188.92 502.227 189.406C502.7 189.892 503.309 190.224 503.974 190.359L504.042 190.372C503.797 192.051 503.424 193.709 502.927 195.331C501.495 199.858 499.142 204.041 496.016 207.617C492.891 211.193 489.059 214.085 484.762 216.112C484.481 216.24 484.206 216.369 483.924 216.49C485.98 223.305 487.14 230.358 487.375 237.471C487.5 241.667 487.285 245.866 486.733 250.028L486.761 249.881C487.881 245.277 490.557 241.2 494.337 238.339C499.949 234.155 507.66 232.876 513.657 229.582C514.295 229.213 515.026 229.035 515.762 229.067C516.499 229.1 517.211 229.342 517.814 229.765C518.417 230.189 518.887 230.776 519.167 231.457C519.447 232.138 519.527 232.885 519.396 233.61C519.386 233.661 519.375 233.713 519.365 233.764C518.479 234.078 517.614 234.446 516.774 234.867C516.293 235.109 515.822 235.368 515.359 235.643C514.778 235.993 514.317 236.51 514.035 237.127C513.753 237.744 513.664 238.431 513.78 239.099C513.896 239.767 514.211 240.384 514.684 240.87C515.157 241.356 515.766 241.688 516.431 241.823L516.499 241.836C516.548 241.846 516.59 241.855 516.639 241.864C514.989 245.338 512.752 248.502 510.028 251.218C506.665 254.502 502.667 257.065 498.278 258.751C493.888 260.437 489.201 261.209 484.502 261.02L484.495 261.02C482.962 266.496 480.863 271.799 478.233 276.842L458.54 275.926C458.48 275.704 458.427 275.475 458.373 275.254C460.191 275.453 462.026 275.429 463.838 275.183C462.46 273.324 461.083 271.45 459.705 269.591C459.674 269.556 459.645 269.519 459.619 269.481C458.92 268.53 458.214 267.585 457.516 266.634L457.516 266.633C457.607 263.821 458.06 261.033 458.865 258.336L458.865 258.336Z" fill="#F2F2F2"/>
<path d="M62.0755 88.201C61.5725 88.2792 61.0576 88.201 60.6006 87.977C60.1436 87.753 59.7665 87.394 59.5205 86.9488C59.2745 86.5035 59.1714 85.9935 59.2252 85.4877C59.2791 84.982 59.4872 84.505 59.8214 84.1214C59.8568 83.8675 59.8821 83.6852 59.9174 83.4313C59.8893 83.3799 59.8611 83.3286 59.8327 83.2774C59.1926 82.1309 58.2276 81.1989 57.0591 80.5986C55.8905 79.9983 54.5704 79.7563 53.2647 79.9031C51.9589 80.0499 50.7257 80.5789 49.72 81.4237C48.7142 82.2685 47.9807 83.3914 47.6116 84.6514C46.1358 89.6804 44.1147 94.777 44.0417 99.9326C44.0104 102.211 44.3751 104.478 45.1194 106.633C39.3085 96.9073 35.6585 86.0473 34.4169 74.789C34.1083 71.9635 33.9581 69.123 33.9669 66.2808C33.9762 63.9506 34.088 61.6257 34.3022 59.3064C35.479 46.7202 39.6273 34.5924 46.4064 23.919C49.9795 21.4355 52.7048 17.9174 54.2149 13.8388C54.7632 12.372 55.0961 10.8338 55.2032 9.27175C54.7809 9.37446 54.3492 9.45687 53.9237 9.53149C53.791 9.55298 53.6513 9.57529 53.5186 9.59683L53.4685 9.60456C52.9998 9.67685 52.5203 9.61226 52.0875 9.41858C51.6548 9.22489 51.2873 8.91037 51.0293 8.51287C50.7713 8.11536 50.6338 7.65182 50.6334 7.17806C50.633 6.7043 50.7696 6.24051 51.0269 5.84253C51.1871 5.59494 51.3475 5.34745 51.508 5.10007C51.7508 4.7186 52.0013 4.3434 52.2441 3.96199C52.2729 3.92513 52.2996 3.88665 52.324 3.84674C52.6036 3.41157 52.8839 2.98346 53.1635 2.54829C52.4741 1.69773 51.5973 1.01778 50.6016 0.561435C47.157 -0.98157 42.8322 0.816327 40.8116 3.99715C38.784 7.17867 38.7885 11.3325 40.0014 14.9005C41.1414 17.9247 42.7883 20.7331 44.8716 23.2052C44.7204 23.4489 44.5615 23.6863 44.4103 23.93C41.649 28.4031 39.3332 33.1358 37.496 38.0603C37.4969 32.7671 36.24 27.5492 33.8287 22.8359C31.4284 18.46 27.4445 14.9878 23.875 11.3672C19.5873 7.01831 12.0835 9.93506 12.0761 16.0394C12.076 16.0985 12.0761 16.1576 12.0763 16.2166C12.5711 16.4287 13.0577 16.658 13.5363 16.9045C14.1379 17.2179 14.6307 17.7056 14.9502 18.3037C15.2696 18.9017 15.4008 19.5822 15.3266 20.256C15.2523 20.9299 14.976 21.5655 14.534 22.0798C14.0919 22.5941 13.5047 22.9629 12.8492 23.1381L12.7821 23.156C13.1309 24.8165 13.6055 26.448 14.2018 28.0366C15.911 32.4665 18.5178 36.4959 21.8587 39.8721C25.1996 43.2483 29.2026 45.8986 33.6167 47.6567C33.9059 47.7673 34.1882 47.8786 34.4767 47.9822C32.8465 54.9107 32.1249 62.0215 32.3302 69.1359C32.4646 73.3317 32.9385 77.5098 33.7472 81.6293L33.7101 81.4842C32.3074 76.9581 29.3844 73.0543 25.4346 70.432C19.5752 66.602 11.799 65.8022 5.60995 62.8844C4.95019 62.5559 4.21014 62.4227 3.47708 62.5005C2.74403 62.5784 2.04855 62.8641 1.47267 63.3239C0.896789 63.7837 0.464528 64.3984 0.226873 65.0956C-0.0107829 65.7928 -0.0439247 66.5434 0.13136 67.2588C0.144759 67.3096 0.158297 67.3603 0.171966 67.4111C1.07531 67.6691 1.96168 67.9831 2.82594 68.3512C3.32069 68.5633 3.80734 68.7926 4.2859 69.0391C4.88752 69.3525 5.38034 69.8402 5.69979 70.4383C6.01924 71.0363 6.15042 71.7168 6.07615 72.3907C6.00188 73.0645 5.72562 73.7001 5.28356 74.2144C4.84151 74.7287 4.25427 75.0976 3.5988 75.2727L3.53162 75.2906C3.48323 75.303 3.44183 75.3146 3.39351 75.327C5.25537 78.6922 7.68312 81.7121 10.5704 84.2545C14.1296 87.325 18.2789 89.6368 22.7641 91.0482C27.2493 92.4596 31.9758 92.9409 36.6537 92.4625L36.6608 92.4617C38.5295 97.8332 40.952 102.996 43.8891 107.867L63.4876 105.737C63.5343 105.512 63.573 105.281 63.6126 105.056C61.8109 105.367 59.9778 105.457 58.1544 105.323C59.4144 103.382 60.6729 101.427 61.9329 99.4867C61.9617 99.4499 61.9884 99.4114 62.0128 99.3715C62.651 98.379 63.2971 97.3927 63.9353 96.4002L63.9356 96.3991C63.6704 93.5981 63.0454 90.8429 62.0761 88.2014L62.0755 88.201Z" fill="#F2F2F2"/>
<path d="M332.846 80.9446C333.816 81.2113 334.716 81.6872 335.482 82.3389C336.248 82.9905 336.862 83.8021 337.28 84.7163C337.698 85.6306 337.911 86.6253 337.903 87.6305C337.894 88.6357 337.666 89.6268 337.232 90.5341L347.75 102.216L342.203 110.333L327.582 93.6273C326.105 92.7994 324.983 91.4587 324.429 89.8594C323.875 88.2602 323.927 86.5134 324.576 84.95C325.225 83.3867 326.425 82.1155 327.949 81.3773C329.474 80.6391 331.216 80.4851 332.846 80.9446Z" fill="#A0616A"/>
<path d="M431.306 109.63C430.358 108.089 429.114 106.749 427.647 105.688C426.179 104.628 424.517 103.867 422.754 103.45C420.992 103.032 419.165 102.967 417.377 103.257C415.589 103.547 413.876 104.186 412.336 105.139L377.748 126.542L340.438 94.8555L331.155 103.491L372.372 156.919L425.942 129.018C424.692 129.669 432.816 112.087 431.306 109.63Z" fill="#CCCCCC"/>
<path d="M362.785 180.796C362.789 197.863 359.427 214.763 352.891 230.532C346.355 246.301 336.774 260.628 324.695 272.697C312.616 284.765 298.275 294.337 282.492 300.867C266.71 307.397 249.794 310.756 232.711 310.753C160.874 310.753 102.637 252.568 102.637 180.796C102.624 166.835 104.864 152.963 109.271 139.715C117.921 113.84 134.494 91.3378 156.646 75.3888C178.798 59.4398 205.407 50.8516 232.711 50.8386C256.259 50.8305 279.368 57.2113 299.57 69.3001C319.771 81.3889 336.308 98.7318 347.415 119.478C350.169 124.596 352.571 129.896 354.605 135.34C354.887 136.098 355.162 136.856 355.429 137.621V137.628C356.621 140.993 357.672 144.42 358.58 147.909C361.381 158.647 362.794 169.699 362.785 180.796Z" fill="#3F3D56"/>
<path d="M218.48 93.1152C212.635 89.957 206.144 88.1742 199.504 87.9028C192.865 87.6314 186.25 88.8785 180.166 91.5491C174.809 93.8783 169.168 98.0568 167.381 105.602C174.609 101.341 183.965 108.074 185.825 118.876L185.391 118.995C184.408 126.477 186.601 134.623 190.847 139.262C191.404 134.443 194.576 131.164 197.695 129.115C200.814 127.066 204.265 125.578 206.646 122.056C209.468 117.882 210.185 111.78 211.306 106.214C212.428 100.648 214.555 94.6662 218.48 93.1152Z" fill="white"/>
<path d="M178.022 156.782C176.02 159.786 173.347 161.67 170.947 164.017C168.556 166.37 166.279 169.547 165.802 173.626C165.499 176.24 165.968 178.897 165.903 181.539C165.838 184.182 164.957 187.156 163.157 187.813C160.317 188.838 158.149 183.568 155.23 183.2C152.91 182.911 150.822 186.557 151.494 189.719C152.166 192.882 155.324 194.282 157.138 192.217C158.778 194.968 157.622 199.957 155.158 200.802C154.898 202.534 154.638 204.26 154.385 205.993C148.155 201.639 141.861 197.213 136.564 190.838C130.673 183.808 127.019 175.18 126.072 166.06C125.385 158.732 126.404 150.35 123.037 144.711C120.341 140.199 115.716 139.202 111.554 139.484C110.795 139.534 110.029 139.621 109.271 139.715C111.725 132.349 114.843 125.22 118.585 118.416C119.432 118.053 120.219 117.564 120.919 116.965C124.793 113.68 126.513 107.031 129.656 102.431C129.858 102.135 130.068 101.847 130.285 101.565C133.5 97.3704 137.807 95.2116 141.97 93.2045C151.183 88.7355 160.664 84.2086 170.391 84.8295L167.623 85.0967C164.393 94.1359 161.161 103.175 157.926 112.214C157.434 113.601 156.938 114.989 156.437 116.38C154.601 121.521 152.708 126.993 152.99 132.748C153.156 136.155 154.341 139.794 156.596 140.964C158.699 142.047 160.997 140.718 163.027 139.404C163.887 138.856 164.74 138.307 165.6 137.751C168.686 135.765 172.104 133.729 175.363 135.058C178.347 136.271 180.551 140.321 180.97 144.689C181.355 148.935 180.318 153.189 178.022 156.782Z" fill="white"/>
<path d="M196.374 218.495C187.362 212.952 178.35 207.408 169.338 201.864L169.491 201.471C163.888 203.603 161.562 213.554 162.488 221.692C163.414 229.83 166.554 237.104 168.14 245.034C170.279 255.885 169.471 267.11 165.802 277.544C177.652 264.259 188.139 249.821 197.107 234.446C198.359 232.508 199.314 230.394 199.938 228.173C200.511 225.81 200.423 222.97 199.276 221.075C198.538 219.987 197.541 219.101 196.374 218.495Z" fill="white"/>
<path d="M160.807 117.638C159.85 119.787 159.482 122.654 160.35 124.878C161.237 127.15 163.112 128.176 164.838 129.031L169.818 131.497C171.474 132.317 173.26 133.146 174.949 132.471C176.985 131.657 178.398 128.467 178.032 125.505C177.643 122.353 175.655 120.185 173.816 118.339C171.242 115.755 168.669 113.171 166.095 110.588L164.645 112.363C163.076 113.892 161.778 115.675 160.807 117.638Z" fill="white"/>
<path d="M336.091 151.331C338.332 151.858 340.572 152.385 342.812 152.912C342.422 160.472 338.671 167.468 333.642 170.002C331.546 171.056 329.212 171.446 327.478 173.417C325.91 175.207 325.115 177.994 324.385 180.658C323.106 185.308 321.827 189.957 320.547 194.607C319.175 199.618 317.411 205.184 313.841 206.989C310.778 208.541 307.273 206.642 304.917 203.459C302.561 200.275 301.123 195.993 299.728 191.82C299.815 196.369 297.698 200.831 294.699 202.412C291.693 203.993 288.036 202.563 286.027 199.033C284.582 196.499 283.982 193.156 282.566 190.586C281.149 188.015 278.179 186.542 276.633 188.954C275.614 190.557 275.744 193.011 275.238 195.047C274.451 198.21 272.066 200.195 269.703 200.368C267.347 200.542 265.049 199.184 263.076 197.343C259.008 193.531 256.009 187.481 254.846 180.759C254.333 177.763 254.188 174.5 255.077 171.691C255.966 168.883 258.112 166.717 260.244 167.251C261.646 164.291 258.878 160.363 256.385 160.71C253.884 161.056 251.926 163.735 249.874 165.793C247.829 167.85 244.967 169.345 242.908 167.302C242.922 169.2 241.376 170.457 240.039 170.298C238.709 170.146 237.524 169.078 236.303 168.32C231.584 165.381 225.593 167.331 222.24 172.89C224.336 163.98 227.407 153.757 233.846 151.663C236.476 150.804 239.345 151.512 241.831 150.024C246.232 147.389 247.121 137.433 243.32 133.325C243.804 137.209 243.71 141.743 241.657 144.4C239.605 147.057 235.298 145.324 235.558 141.397C234.966 144.104 232.018 144.516 230.659 142.436C229.293 140.357 229.409 136.957 230.377 134.473C231.345 131.989 232.993 130.206 234.59 128.495C238.023 124.82 241.506 121.102 245.48 118.791C249.462 116.481 254.058 115.701 258.047 117.997C260.15 119.21 262 121.232 264.146 122.3C266.292 123.376 269.016 123.239 270.44 120.726C272.037 117.925 271.285 113.766 271.878 110.265C272.94 104.078 279.133 101.182 282.566 105.269C280 104.612 277.348 107.644 277.03 111.319C276.705 114.994 278.562 118.705 281.048 119.817C285.225 121.665 289.315 117.015 292.473 112.712C295.768 108.207 299.068 103.704 302.373 99.2041C302.901 98.4379 303.493 97.7181 304.144 97.0526C305.179 96.0447 306.559 95.4674 308.004 95.438C309.449 95.4085 310.851 95.9289 311.926 96.8938C315.265 99.6156 316.833 105.197 319.572 109.038C323.547 114.618 329.494 115.976 335.029 117.059C339.155 117.86 343.284 118.666 347.415 119.477C350.169 124.596 352.571 129.895 354.605 135.339C347.61 138.307 341.157 143.859 336.091 151.331Z" fill="white"/>
<path d="M349.431 238.201C346.336 244.481 342.735 250.501 338.664 256.2C336.063 255.088 333.266 257.073 330.831 258.936C328.287 260.885 325.23 262.784 322.622 261.008C319.955 259.189 319.095 254.099 319.941 250.063C320.786 246.034 322.896 242.828 324.941 239.782C327.109 236.547 329.429 233.19 332.442 231.934C335.463 230.677 339.343 232.453 340.225 236.742L342.364 236.67C341.165 235.024 341.793 231.616 343.405 231.017C345.262 230.316 346.873 232.865 347.972 235.118C348.463 236.136 348.962 237.161 349.431 238.201Z" fill="white"/>
<path d="M267.509 207.705C262.912 207.993 259.27 202.339 256.85 196.775C254.43 191.212 252.222 184.851 248.073 182.019C245.703 180.401 243 180.179 240.429 179.395C237.858 178.611 235.167 176.989 233.938 173.685L231.021 172.508C227.17 174.671 223.267 176.875 219.948 180.396C216.226 184.347 213.907 189.411 213.35 194.808C212.793 200.64 214.85 207.144 218.695 209.335C221.732 211.066 225.268 209.975 228.345 211.559C232.189 213.54 234.471 219.292 235.335 224.971C236.199 230.651 235.98 236.553 236.598 242.297C237.216 248.041 238.92 254.018 242.445 256.961C246.856 260.645 253.33 257.584 255.309 250.879C256.28 247.59 256.246 243.878 256.972 240.464C258.251 234.452 261.702 229.991 264.438 225.059C267.175 220.127 269.33 213.428 267.509 207.705Z" fill="white"/>
<path d="M222.078 148.624C222.506 149.018 222.906 149.442 223.275 149.893C223.656 150.55 223.851 151.299 223.838 152.058C223.825 152.817 223.605 153.558 223.201 154.202C223.755 154.17 224.296 154.024 224.791 153.773C225.285 153.522 225.722 153.171 226.074 152.743C226.913 151.788 227.652 150.749 228.277 149.643C228.746 148.879 229.245 147.846 228.927 146.938C228.709 146.319 228.196 146.055 227.836 145.589C227.265 144.851 227.123 143.678 226.828 142.665C226.19 140.477 224.662 138.868 223.003 138.638L223.233 138.682C222.54 138.919 222.056 140.018 222.21 141.008C222.349 141.909 222.929 142.657 222.871 143.575C222.788 144.897 221.466 145.517 221.385 146.838C221.372 147.501 221.621 148.143 222.078 148.624Z" fill="white"/>
<path d="M214.2 126.17C214.207 126.168 214.214 126.167 214.221 126.166C214.362 126.037 214.493 125.897 214.613 125.748L214.2 126.17Z" fill="#E6E6E6"/>
<path d="M215.579 132.372C216.596 131.719 217.164 129.913 216.828 128.401C216.494 126.898 215.311 125.888 214.221 126.166C213.905 126.486 213.512 126.721 213.08 126.848C212.648 126.975 212.191 126.99 211.751 126.892C211.077 126.719 210.337 126.272 209.752 126.78C209.418 127.159 209.184 127.615 209.071 128.108C208.855 128.772 208.638 129.435 208.422 130.099C208.319 130.337 208.292 130.6 208.345 130.853C208.387 130.955 208.454 131.044 208.54 131.112C208.625 131.181 208.728 131.226 208.836 131.243C210.134 131.626 211.433 132.008 212.731 132.39C213.677 132.669 214.699 132.938 215.579 132.372Z" fill="white"/>
<path d="M313.599 217.998C312.999 217.017 312.399 216.035 311.798 215.053C311.209 213.916 310.403 212.905 309.426 212.077C309.211 211.897 308.962 211.762 308.694 211.679C308.426 211.597 308.145 211.569 307.866 211.597C307.587 211.625 307.317 211.708 307.071 211.842C306.824 211.976 306.607 212.157 306.433 212.376L306.506 212.937C307.874 214.652 309.321 216.557 309.668 219.102C309.805 220.105 309.757 221.143 309.877 222.151C309.997 223.159 310.338 224.204 310.989 224.638C311.934 225.269 313.044 224.339 313.717 223.204C314.318 222.272 314.588 221.165 314.483 220.061C314.333 219.32 314.032 218.618 313.599 217.998Z" fill="white"/>
<path d="M340.31 180.504C340.484 179.367 340.657 178.23 340.831 177.092C341.113 175.843 341.148 174.551 340.934 173.289C340.886 173.013 340.782 172.75 340.631 172.514C340.479 172.279 340.282 172.076 340.05 171.918C339.819 171.76 339.558 171.65 339.284 171.594C339.009 171.538 338.726 171.537 338.451 171.592L338.146 172.068C338.087 174.26 337.967 176.649 336.592 178.819C336.05 179.675 335.344 180.439 334.786 181.287C334.229 182.135 333.816 183.154 334.034 183.905C334.35 184.996 335.799 184.998 337.045 184.563C338.106 184.236 339.026 183.563 339.657 182.651C340.02 181.987 340.242 181.257 340.31 180.504Z" fill="#E6E6E6"/>
<path d="M323.014 219.276C323.307 218.433 322.884 217.467 322.794 216.535C322.751 215.332 323.071 214.144 323.711 213.124C324.347 212.162 324.828 211.106 325.139 209.996C325.27 209.49 325.246 208.956 325.07 208.464C324.872 208.018 324.39 207.815 324.114 208.168L324.705 208.548C323.907 208.406 323.088 208.445 322.308 208.664C321.863 208.834 321.466 209.109 321.149 209.465C320.833 209.821 320.607 210.248 320.491 210.71C320.394 211.43 320.234 212.14 320.015 212.833C319.663 213.556 318.98 213.797 318.552 214.432C318.26 214.995 318.112 215.622 318.123 216.256C318.133 216.89 318.301 217.512 318.612 218.065C319.15 218.97 320.006 219.642 321.013 219.951C321.734 220.21 322.684 220.223 323.014 219.276Z" fill="white"/>
<path d="M339.781 224.33C340.042 225.008 340.391 225.649 340.82 226.235C341.623 227.043 342.713 226.547 343.687 226.35C344.571 226.211 345.476 226.313 346.306 226.646C347.137 226.978 347.861 227.529 348.404 228.24C348.026 226.359 347.202 224.595 346 223.097C344.799 221.6 343.255 220.412 341.499 219.634C339.204 218.699 336.786 218.609 334.399 218.525L333.986 218.63C335.037 221.686 338.337 221.618 339.781 224.33Z" fill="white"/>
<path d="M268.767 230.581L268.773 230.594C268.813 230.517 268.853 230.44 268.893 230.363L268.767 230.581Z" fill="#E6E6E6"/>
<path d="M266.223 235.5C265.668 236.506 265.191 237.553 264.796 238.631C264.273 240.379 263.926 242.174 263.762 243.99C263.633 245.023 263.593 246.342 264.24 246.845C264.426 246.969 264.651 247.02 264.872 246.99C265.093 246.96 265.296 246.851 265.442 246.682C265.802 246.302 266.096 245.865 266.313 245.389C267.586 243.198 268.575 240.855 269.254 238.415C269.874 235.845 269.869 232.819 268.773 230.594C267.923 232.229 267.073 233.864 266.223 235.5Z" fill="white"/>
<path d="M241.685 104.448C242.089 104.843 242.6 105.111 243.154 105.219C243.709 105.327 244.283 105.271 244.806 105.057C245.889 104.584 246.882 103.928 247.743 103.119C248.455 102.592 249.059 101.933 249.523 101.179C249.778 100.728 249.941 100.231 250.004 99.7162C250.066 99.2018 250.027 98.6801 249.887 98.1811C249.485 97.006 248.464 96.6121 247.564 96.3454C246.123 95.9184 244.682 95.4915 243.241 95.0645L244.283 94.1257C243.21 93.5506 242.024 94.618 241.353 95.9395C240.923 96.8023 240.624 97.7241 240.464 98.6746C240.105 100.749 240.456 103.219 241.685 104.448Z" fill="#E6E6E6"/>
<path d="M267.129 95.9141C267.535 96.3615 268.097 96.6377 268.699 96.6867C269.302 96.7357 269.901 96.5538 270.374 96.1779C270.781 95.8722 271.119 95.4843 271.367 95.0393C271.614 94.5943 271.765 94.1023 271.809 93.5953C271.911 92.4627 271.35 91.2038 270.55 91.1061L270.733 90.0456C269.191 89.7674 267.293 89.7117 266.467 91.5827C266.188 92.2994 266.103 93.0767 266.219 93.8368C266.335 94.5969 266.649 95.3132 267.129 95.9141Z" fill="#E6E6E6"/>
<path d="M263.73 39.5237C254.689 38.5048 245.614 41.1158 238.5 46.7823C231.386 52.4488 226.817 60.7067 225.797 69.7392C223.673 88.5485 233.591 129.393 251.674 146.302C260.189 113.907 290.025 94.6924 293.973 77.4226C298.191 58.9692 282.556 41.6454 263.73 39.5237Z" fill="#7903C1"/>
<path d="M257.477 81.3387C263.656 81.3387 268.665 76.3343 268.665 70.1611C268.665 63.9879 263.656 58.9835 257.477 58.9835C251.298 58.9835 246.29 63.9879 246.29 70.1611C246.29 76.3343 251.298 81.3387 257.477 81.3387Z" fill="white"/>
<path d="M245.714 162.418C249.761 162.418 253.042 159.14 253.042 155.097C253.042 151.054 249.761 147.776 245.714 147.776C241.667 147.776 238.386 151.054 238.386 155.097C238.386 159.14 241.667 162.418 245.714 162.418Z" fill="#7903C1"/>
<path opacity="0.2" d="M266.734 62.1529C267.993 62.9089 269.091 63.9054 269.965 65.0853C270.839 66.2653 271.472 67.6056 271.827 69.0299C272.182 70.4541 272.254 71.9344 272.036 73.3861C271.819 74.8378 271.318 76.2325 270.561 77.4907C269.804 78.7489 268.807 79.8458 267.626 80.7189C266.445 81.592 265.103 82.2241 263.678 82.5792C260.799 83.2962 257.753 82.8413 255.209 81.3145C257.803 81.8908 260.516 81.5263 262.865 80.2862C265.214 79.0461 267.044 77.0114 268.028 74.5463C269.013 72.0811 269.087 69.3464 268.237 66.8316C267.388 64.3169 265.67 62.1862 263.392 60.821C264.571 61.082 265.699 61.5317 266.734 62.1529Z" fill="#231F20"/>
<path opacity="0.2" d="M294.017 77.4587C290.069 94.7285 260.233 113.943 251.718 146.338C250.018 144.732 248.438 143.003 246.993 141.165C256.56 110.715 284.539 92.2128 288.354 75.527C291.768 60.593 282.178 46.4002 268.418 40.4047C285.075 44.5881 297.882 60.5479 294.017 77.4587Z" fill="#231F20"/>
<path d="M158.89 83.1371C152.101 82.3719 145.285 84.3327 139.943 88.5881C134.601 92.8434 131.169 99.0448 130.403 105.828C128.809 119.953 136.257 150.626 149.837 163.324C156.231 138.996 178.637 124.567 181.601 111.598C184.769 97.74 173.028 84.7304 158.89 83.1371Z" fill="#7903C1"/>
<path d="M154.194 114.539C158.834 114.539 162.596 110.781 162.596 106.145C162.596 101.509 158.834 97.7507 154.194 97.7507C149.554 97.7507 145.792 101.509 145.792 106.145C145.792 110.781 149.554 114.539 154.194 114.539Z" fill="white"/>
<path d="M145.36 175.427C148.399 175.427 150.863 172.965 150.863 169.929C150.863 166.892 148.399 164.431 145.36 164.431C142.321 164.431 139.857 166.892 139.857 169.929C139.857 172.965 142.321 175.427 145.36 175.427Z" fill="#7903C1"/>
<path opacity="0.2" d="M161.146 100.131C162.091 100.699 162.916 101.447 163.572 102.333C164.228 103.219 164.703 104.226 164.97 105.295C165.237 106.365 165.291 107.476 165.128 108.567C164.964 109.657 164.588 110.704 164.02 111.649C163.452 112.594 162.703 113.418 161.816 114.073C160.929 114.729 159.921 115.204 158.851 115.47C157.78 115.737 156.668 115.79 155.576 115.627C154.485 115.464 153.437 115.088 152.491 114.521C154.439 114.953 156.476 114.68 158.24 113.748C160.004 112.817 161.378 111.289 162.118 109.438C162.857 107.587 162.912 105.533 162.275 103.644C161.637 101.756 160.347 100.156 158.636 99.1307C159.521 99.3266 160.369 99.6644 161.146 100.131Z" fill="#231F20"/>
<path opacity="0.2" d="M181.634 111.625C178.669 124.594 156.264 139.024 149.87 163.351C148.592 162.145 147.406 160.847 146.321 159.466C153.506 136.6 174.517 122.705 177.382 110.174C179.945 98.9595 172.744 88.3012 162.41 83.7988C174.919 86.9404 184.537 98.9256 181.634 111.625Z" fill="#231F20"/>
<path d="M421.925 387.214H412.701L408.312 351.665L421.927 351.666L421.925 387.214Z" fill="#A0616A"/>
<path d="M426.888 404.714H420.342L419.174 398.54L416.181 404.714H398.821C397.989 404.714 397.178 404.448 396.508 403.956C395.838 403.463 395.342 402.769 395.095 401.975C394.847 401.182 394.86 400.33 395.131 399.544C395.403 398.758 395.918 398.079 396.603 397.606L410.467 388.04V381.798L425.049 382.668L426.888 404.714Z" fill="#2F2E41"/>
<path d="M386.196 387.214H376.972L372.583 351.665L386.198 351.666L386.196 387.214Z" fill="#A0616A"/>
<path d="M391.159 404.714H384.613L383.445 398.54L380.452 404.714H363.092C362.26 404.714 361.449 404.448 360.779 403.956C360.109 403.463 359.613 402.769 359.366 401.975C359.118 401.182 359.131 400.33 359.402 399.544C359.674 398.758 360.189 398.079 360.874 397.606L374.738 388.04V381.798L389.32 382.668L391.159 404.714Z" fill="#2F2E41"/>
<path d="M351.151 293.357C352.916 296.003 372.121 368.729 372.121 368.729L389.149 370.669L387.128 352.371L384.038 319.989L379.254 298.375C379.254 298.375 396.148 259.962 397.216 256.902L397.975 254.706L403.253 302.564C403.881 304.273 404.154 306.091 404.057 307.908C403.898 310.897 406.899 355.872 406.899 355.872L408.342 372.001L422.931 374.026L428.85 346.118C433.793 337.053 430.96 304.839 428.938 301.841C426.917 298.842 427.72 277.96 427.72 277.96C430.301 277.053 445.693 224.616 437.994 224.926C438.489 222.13 438.877 219.635 438.877 219.635L425.514 208.867L392.07 200.181L383.633 196.134C383.633 196.134 368.563 223.974 368.714 225.358C368.921 227.112 368.519 228.883 367.575 230.376L352.36 281.25C352.36 281.25 349.368 290.686 351.151 293.357Z" fill="#2F2E41"/>
<path d="M435.172 111.312L429.851 100.026L411.743 100.721L405.837 112.462C405.837 112.462 388.957 132.606 388.41 139.155C387.723 147.393 393.434 187.767 387.723 185.15C387.723 185.15 374.26 200.939 382.226 200.939C390.193 200.939 426.23 223.541 428.595 226.083C430.959 228.624 441.515 230.272 440.63 224.966C439.745 219.66 435.172 190.962 435.172 190.962L447.552 145.837C451.115 136.095 452.224 125.167 444.17 118.622L435.172 111.312Z" fill="#CCCCCC"/>
<path d="M368.097 78.0943C365.675 77.1338 363.087 76.6592 360.482 76.6978C357.876 76.7364 355.304 77.2874 352.911 78.3193C350.519 79.3512 348.353 80.8438 346.538 82.7119C344.722 84.58 343.293 86.787 342.332 89.2069C338.288 99.3841 337.618 123.688 345.143 135.868C354.818 119.078 374.392 112.877 379.22 103.836C384.379 94.1756 378.284 82.1342 368.097 78.0943Z" fill="#7903C1"/>
<path d="M359.951 100.713C363.525 100.713 366.423 97.8186 366.423 94.2475C366.423 90.6765 363.525 87.7816 359.951 87.7816C356.377 87.7816 353.479 90.6765 353.479 94.2475C353.479 97.8186 356.377 100.713 359.951 100.713Z" fill="white"/>
<path d="M340.479 144.109C342.82 144.109 344.718 142.213 344.718 139.874C344.718 137.535 342.82 135.639 340.479 135.639C338.138 135.639 336.24 137.535 336.24 139.874C336.24 142.213 338.138 144.109 340.479 144.109Z" fill="#7903C1"/>
<path opacity="0.2" d="M366.335 91.1814C367.521 92.4198 368.166 94.0779 368.129 95.7912C368.091 97.5045 367.375 99.1329 366.136 100.319C364.898 101.504 363.239 102.151 361.524 102.115C359.809 102.08 358.179 101.365 356.991 100.129C358.351 100.844 359.921 101.052 361.42 100.716C362.92 100.38 364.25 99.5223 365.174 98.2956C366.099 97.0689 366.555 95.5536 366.463 94.0211C366.371 92.4885 365.736 91.0387 364.672 89.9312C365.29 90.2556 365.852 90.6778 366.335 91.1814Z" fill="#231F20"/>
<path opacity="0.2" d="M379.239 103.863C374.411 112.904 354.837 119.104 345.162 135.895C344.457 134.741 343.838 133.537 343.31 132.291C353.278 116.746 371.707 110.661 376.371 101.926C380.546 94.1077 377.35 84.7309 370.58 79.2972C379.242 84.1588 383.966 95.0101 379.239 103.863Z" fill="#231F20"/>
<path d="M338.569 138.416C339.554 138.213 340.572 138.228 341.551 138.461C342.53 138.693 343.446 139.138 344.234 139.762C345.022 140.387 345.664 141.176 346.114 142.075C346.564 142.975 346.811 143.961 346.838 144.966L361.52 150.597L360.271 160.346L339.649 152.103C337.956 152.036 336.347 151.352 335.126 150.179C333.905 149.006 333.157 147.426 333.024 145.739C332.891 144.052 333.382 142.374 334.404 141.025C335.426 139.675 336.908 138.747 338.569 138.416L338.569 138.416Z" fill="#A0616A"/>
<path d="M441.158 118.326C439.612 117.383 437.895 116.754 436.105 116.476C434.316 116.197 432.489 116.275 430.729 116.703C428.969 117.132 427.312 117.903 425.851 118.973C424.39 120.043 423.156 121.391 422.217 122.939L401.143 157.708L353.495 146.424L349.154 158.331L410.172 187.208L441.076 138.031C445.703 131.534 447.969 122.481 441.158 118.326Z" fill="#CCCCCC"/>
<path d="M441.945 75.7144C441.946 79.0656 441.124 82.3658 439.55 85.3254C437.977 88.285 435.701 90.8135 432.921 92.6889C430.141 94.5643 426.943 95.7292 423.607 96.0815C420.272 96.4337 416.9 95.9625 413.79 94.7092C410.679 93.4559 407.924 91.4588 405.766 88.8932C403.608 86.3276 402.113 83.272 401.413 79.9947C400.713 76.7173 400.829 73.3183 401.751 70.0961C402.672 66.874 404.372 63.9271 406.7 61.5143L406.798 61.4161C406.962 61.2441 407.126 61.0721 407.298 60.9083C407.299 60.9083 407.3 60.9081 407.301 60.9077C407.302 60.9073 407.303 60.9067 407.304 60.9059C407.304 60.9051 407.305 60.9042 407.305 60.9032C407.306 60.9022 407.306 60.9012 407.306 60.9001C407.519 60.7035 407.732 60.507 407.954 60.3187C410.915 57.7251 414.561 56.039 418.456 55.4624C422.352 54.8858 426.331 55.4431 429.917 57.0675C433.504 58.692 436.546 61.3147 438.679 64.6218C440.812 67.9289 441.946 71.7801 441.945 75.7144V75.7144Z" fill="#2F2E41"/>
<path d="M416.405 97.6187C425.894 97.6187 433.588 89.9326 433.588 80.4512C433.588 70.9699 425.894 63.2838 416.405 63.2838C406.915 63.2838 399.222 70.9699 399.222 80.4512C399.222 89.9326 406.915 97.6187 416.405 97.6187Z" fill="#9E616A"/>
<path d="M434.651 85.3471L431.804 84.8447C430.213 84.5558 428.749 83.7885 427.606 82.6455C426.464 81.5025 425.698 80.0381 425.411 78.4484L422.633 83.0999L422.512 83.1402C415.893 85.3357 409.006 84.6791 401.463 81.1354C399.306 80.1133 397.214 78.9607 395.198 77.6842L395.049 77.5913L395.037 77.4167C394.652 71.8319 395.906 67.1663 398.57 64.2793C399.592 63.1931 400.833 62.335 402.21 61.7613C403.588 61.1875 405.071 60.9111 406.563 60.9501C406.669 60.9224 406.767 60.8686 406.847 60.7936C406.885 60.7654 406.924 60.7376 406.962 60.7111V60.6823L407.159 60.5894C407.583 60.3904 408.015 60.1996 408.447 60.0253C411.847 58.7103 415.55 58.3804 419.129 59.0736C422.708 59.7667 426.019 61.4548 428.681 63.9438C433.974 68.9922 436.402 77.4643 434.722 85.0263L434.651 85.3471Z" fill="#2F2E41"/>
<path d="M470.894 99.9738C465.047 96.9585 472.567 86.0146 471.056 79.616C469.545 73.2174 458.662 71.1594 457.969 64.6217C457.276 58.0839 455.645 51.3409 451.327 46.3801C448.568 43.21 444.502 40.8699 440.316 41.2669C438.9 41.4013 437.529 41.839 436.298 42.5503C435.066 43.2616 434.002 44.2298 433.179 45.3889C432.355 46.548 431.791 47.8708 431.526 49.2672C431.26 50.6636 431.299 52.1008 431.639 53.4809C430.448 51.7937 427.363 52.1594 426.6 54.0785C425.921 55.7846 427.42 57.8512 429.185 58.0021C431.494 60.851 434.138 63.8745 437.756 64.4492C438.332 64.5815 438.931 64.5811 439.507 64.4482C440.083 64.3154 440.622 64.0534 441.082 63.6822C441.933 62.8657 441.999 61.2332 440.989 60.623C445.535 62.4272 448.201 67.3379 448.875 72.1784C449.55 77.0188 448.616 81.9163 448.001 86.7646C447.387 91.6129 447.122 96.7131 449.024 101.215C451.272 106.535 456.448 110.347 462.097 111.57C467.745 112.793 473.76 111.598 478.873 108.906C483.986 106.213 488.25 102.103 491.733 97.4949C485.733 101.751 477.433 103.346 470.894 99.9738Z" fill="#2F2E41"/>
<path d="M433.92 84.8699C433.92 84.8699 428.83 65.8874 407.011 61.5061C406.986 61.498 406.904 61.4652 406.798 61.4162C406.732 61.3752 406.65 61.3342 406.568 61.2933C406.814 61.154 407.052 61.0313 407.298 60.9083C407.299 60.9084 407.3 60.9082 407.301 60.9078C407.302 60.9073 407.303 60.9067 407.304 60.906C407.304 60.9052 407.305 60.9043 407.305 60.9033C407.306 60.9023 407.306 60.9012 407.306 60.9001C407.519 60.7036 407.732 60.5071 407.954 60.3187L408.577 60.3433C408.577 60.3433 430.47 56.8793 433.92 84.8699Z" fill="#FD6584"/>
<path opacity="0.2" d="M422.524 145.78L410.201 160.044L389.838 154.037L412.037 164.257L422.524 145.78Z" fill="black"/>
<path d="M496.492 405.789L307.023 406C306.806 405.999 306.599 405.913 306.446 405.76C306.293 405.607 306.207 405.399 306.207 405.183C306.207 404.966 306.293 404.759 306.446 404.605C306.599 404.452 306.806 404.366 307.023 404.365L496.492 404.154C496.709 404.154 496.917 404.24 497.07 404.394C497.224 404.547 497.31 404.755 497.31 404.972C497.31 405.188 497.224 405.396 497.07 405.55C496.917 405.703 496.709 405.789 496.492 405.789Z" fill="#CACACA"/>
<path d="M504.808 278.762C495.936 278.762 486.212 278.427 475.636 277.757C420.933 274.286 350.076 262.22 276.118 243.782C202.159 225.343 133.935 202.734 84.0132 180.121C59.6948 169.105 41.0306 158.678 28.5396 149.128C15.3148 139.018 9.53013 130.206 11.3455 122.936C14.8827 108.775 46.203 105.677 71.8547 105.572L71.8634 107.631C36.6369 107.775 15.855 113.388 13.3458 123.435C10.1495 136.231 36.2172 156.208 84.8644 178.245C134.676 200.809 202.775 223.374 276.617 241.784C350.458 260.193 421.185 272.238 475.767 275.702C529.072 279.085 561.479 273.685 564.675 260.889C567.328 250.264 549.834 234.613 515.416 216.818L516.364 214.989C541.372 227.919 570.402 246.465 566.675 261.387C564.859 268.657 555.609 273.72 539.18 276.437C529.815 277.986 518.313 278.762 504.808 278.762Z" fill="#7903C1"/>
</g>
<defs>
<clipPath id="clip0_78_488">
<rect width="567" height="406" fill="white"/>
</clipPath>
</defs>
</svg>
