<svg width="449" height="396" viewBox="0 0 449 396" fill="none" xmlns="http://www.w3.org/2000/svg">
<g clip-path="url(#clip0_50_61)">
<path d="M288.353 357.567L287.251 342.234C280.035 338.624 272.047 336.832 263.98 337.012C275.328 345.789 274.419 363.332 282.278 375.338C284.758 379.063 288.044 382.183 291.892 384.465C295.741 386.747 300.053 388.134 304.51 388.522L313.954 393.958C315.034 386.813 314.554 379.519 312.546 372.578C310.538 365.636 307.049 359.213 302.322 353.751C299.639 350.713 296.585 348.025 293.231 345.75C291.166 351.681 288.353 357.567 288.353 357.567Z" fill="#F2F2F2"/>
<path d="M232.099 396H448.308C448.491 396 448.667 395.927 448.797 395.797C448.927 395.667 449 395.491 449 395.307C449 395.123 448.927 394.947 448.797 394.817C448.667 394.687 448.491 394.614 448.308 394.614H232.099C231.915 394.614 231.739 394.687 231.609 394.817C231.479 394.947 231.406 395.123 231.406 395.307C231.406 395.491 231.479 395.667 231.609 395.797C231.739 395.927 231.915 396 232.099 396Z" fill="#CCCCCC"/>
<path d="M94.4411 230.54V230.836H94.6477C94.5729 230.742 94.5038 230.643 94.4411 230.54ZM96.0312 104.749C81.5991 123.53 73.7871 146.564 73.8145 170.256C73.8178 173.864 73.9944 177.42 74.3444 180.926C74.3984 181.529 74.4611 182.131 74.5423 182.724C76.5475 200.159 82.8073 216.833 92.7702 231.277C93.1562 231.843 93.5514 232.401 93.9471 232.958C98.236 238.975 103.132 244.534 108.559 249.548C152.243 289.912 220.356 287.197 260.694 243.485C261.313 242.829 261.907 242.163 262.49 241.498C279.001 222.787 288.499 198.916 289.36 173.97C290.22 149.024 282.389 124.554 267.207 104.749C266.748 104.146 266.282 103.544 265.797 102.951C264.733 101.611 263.631 100.299 262.49 99.0134C261.907 98.3481 261.313 97.6829 260.694 97.0267C250.622 86.0963 238.395 77.3741 224.785 71.4109C211.175 65.4476 196.477 62.3729 181.619 62.3809C180.586 62.3809 179.562 62.3989 178.537 62.4258C177.855 62.4438 177.172 62.4707 176.489 62.5067C161.196 63.2332 146.234 67.2167 132.603 74.1911C118.971 81.1656 106.984 90.9705 97.4415 102.951C96.9563 103.544 96.4896 104.146 96.0312 104.749L96.0312 104.749ZM94.6477 230.836C94.5729 230.742 94.5038 230.643 94.4411 230.54V230.836H94.6477Z" fill="white"/>
<path d="M93.6864 229.434L93.9917 228.814L116.864 182.724V182.715L117.754 180.926V180.917L155.539 104.749V104.74L156.429 102.951L156.437 102.942L175.573 64.3497L176.489 62.5068C177.172 62.4709 177.855 62.4439 178.537 62.4259L177.63 64.2598L158.441 102.942V102.951L157.551 104.74V104.749L118.778 182.904L118.769 182.913L95.8963 229.039L94.9979 230.837L94.8541 231.133L93.9469 232.958C93.5512 232.401 93.156 231.843 92.77 231.277L93.6864 229.434Z" fill="#3F3D56"/>
<path d="M118.392 180.926V182.724H74.5421C74.4609 182.131 74.3982 181.529 74.3442 180.926H118.392Z" fill="#3F3D56"/>
<path d="M186.536 194.951V193.153H230.386C230.467 193.747 230.53 194.349 230.583 194.951H186.536Z" fill="#3F3D56"/>
<path d="M223.213 188.687H225.01V232.565C224.417 232.647 223.815 232.709 223.213 232.763V188.687Z" fill="#3F3D56"/>
<path d="M267.207 104.749C266.749 104.146 266.282 103.544 265.797 102.951H262.49V99.0133C261.907 98.3481 261.314 97.6829 260.694 97.0267V102.951H97.4415C96.9564 103.544 96.4896 104.146 96.0312 104.749H260.694V243.485C261.314 242.829 261.907 242.163 262.491 241.498V104.749H267.207Z" fill="#3F3D56"/>
<path d="M261.591 229.038H94.4385V230.835H261.591V229.038Z" fill="#3F3D56"/>
<path d="M94.4411 230.54V230.836H94.6477C94.5729 230.742 94.5038 230.643 94.4411 230.54ZM96.0312 104.749C81.5991 123.53 73.7871 146.564 73.8145 170.256C73.8178 173.864 73.9944 177.42 74.3444 180.926C74.3984 181.529 74.4611 182.131 74.5423 182.724C76.5475 200.159 82.8073 216.833 92.7702 231.277C93.1562 231.843 93.5514 232.401 93.9471 232.958C98.236 238.975 103.132 244.534 108.559 249.548C152.243 289.912 220.356 287.197 260.694 243.485C261.313 242.829 261.907 242.163 262.49 241.498C279.001 222.787 288.499 198.916 289.36 173.97C290.22 149.024 282.389 124.554 267.207 104.749C266.748 104.146 266.282 103.544 265.797 102.951C264.733 101.611 263.631 100.299 262.49 99.0134C261.907 98.3481 261.313 97.6829 260.694 97.0267C250.622 86.0963 238.395 77.3741 224.785 71.4109C211.175 65.4476 196.477 62.3729 181.619 62.3809C180.586 62.3809 179.562 62.3989 178.537 62.4258C177.855 62.4438 177.172 62.4707 176.489 62.5067C161.196 63.2332 146.234 67.2167 132.603 74.1911C118.971 81.1656 106.984 90.9705 97.4415 102.951C96.9563 103.544 96.4896 104.146 96.0312 104.749L96.0312 104.749ZM76.3478 182.724C76.2671 182.131 76.2043 181.529 76.1412 180.926C73.4028 153.622 81.3432 126.319 98.2951 104.749C98.7711 104.146 99.2475 103.544 99.7414 102.951C109.026 91.6184 120.559 82.3368 133.612 75.6925C146.664 69.0483 160.953 65.1859 175.573 64.3496C176.256 64.3136 176.939 64.2776 177.63 64.2597C178.951 64.2057 180.28 64.1788 181.619 64.1788C196.559 64.1699 211.33 67.33 224.96 73.4507C238.591 79.5713 250.769 88.5135 260.694 99.6876C261.313 100.371 261.915 101.054 262.49 101.755C262.841 102.151 263.173 102.546 263.497 102.951C263.991 103.544 264.467 104.146 264.943 104.749C280.048 123.939 288.056 147.766 287.609 172.19C287.162 196.614 278.288 220.132 262.49 238.756C261.915 239.457 261.313 240.141 260.694 240.824C255.224 246.973 249.056 252.464 242.316 257.185C194.406 290.738 128.385 279.074 94.8542 231.133C94.7823 231.034 94.7104 230.935 94.6477 230.836C94.5728 230.742 94.5038 230.643 94.441 230.54C94.1806 230.171 93.9291 229.803 93.6865 229.434C84.2499 215.479 78.3032 199.46 76.3477 182.724L76.3478 182.724ZM94.6477 230.836C94.5728 230.742 94.5038 230.643 94.441 230.54V230.836H94.6477Z" fill="#CCCCCC"/>
<path d="M305.778 286.121H198.224C196.909 286.12 195.648 285.596 194.718 284.666C193.788 283.735 193.265 282.474 193.264 281.158V228.717C193.265 227.401 193.788 226.139 194.718 225.209C195.648 224.278 196.909 223.755 198.224 223.754H305.778C307.093 223.755 308.354 224.278 309.284 225.209C310.214 226.139 310.737 227.401 310.738 228.717V281.158C310.737 282.474 310.214 283.735 309.284 284.666C308.354 285.596 307.093 286.12 305.778 286.121Z" fill="#CACACA"/>
<path d="M258.403 281.901C234.848 281.901 210.286 281.676 201.122 281.53C199.916 281.505 198.768 281.01 197.922 280.149C197.077 279.289 196.601 278.132 196.596 276.925V228.721C196.597 228.289 196.768 227.874 197.073 227.569C197.378 227.263 197.792 227.09 198.224 227.088H305.775C306.207 227.089 306.621 227.26 306.926 227.566C307.232 227.871 307.405 228.285 307.406 228.717V261.422C307.386 266.761 305.276 271.879 301.528 275.679C297.78 279.479 292.693 281.657 287.358 281.747C278.817 281.858 268.704 281.901 258.403 281.901Z" fill="#E4E4E4"/>
<path d="M294.674 257.223H207.162C206.595 257.222 206.041 257.046 205.578 256.719C205.114 256.392 204.763 255.929 204.571 255.395L194.666 227.588C194.519 227.173 194.473 226.729 194.532 226.292C194.592 225.856 194.755 225.44 195.008 225.08C195.262 224.719 195.598 224.425 195.989 224.222C196.38 224.019 196.813 223.912 197.254 223.912L306.645 223.759H306.649C307.104 223.759 307.552 223.872 307.953 224.088C308.354 224.304 308.695 224.616 308.945 224.996C309.196 225.377 309.348 225.813 309.389 226.267C309.429 226.72 309.357 227.177 309.177 227.596L309.027 227.532L309.177 227.596L297.203 255.555C296.991 256.05 296.638 256.472 296.189 256.769C295.739 257.066 295.213 257.224 294.674 257.223Z" fill="#CACACA"/>
<path d="M232.527 276.495H202.35C201.607 276.494 200.895 276.198 200.37 275.672C199.846 275.146 199.551 274.433 199.551 273.689C199.551 272.946 199.846 272.233 200.37 271.707C200.895 271.181 201.607 270.885 202.35 270.884H232.527C233.27 270.885 233.982 271.181 234.507 271.707C235.032 272.233 235.326 272.946 235.326 273.689C235.326 274.433 235.032 275.146 234.507 275.672C233.982 276.198 233.27 276.494 232.527 276.495Z" fill="#CACACA"/>
<path d="M251.838 264.08C255.623 264.08 258.691 261.01 258.691 257.223C258.691 253.436 255.623 250.366 251.838 250.366C248.053 250.366 244.985 253.436 244.985 257.223C244.985 261.01 248.053 264.08 251.838 264.08Z" fill="#3F3D56"/>
<path d="M34.6405 14.179C51.4784 2.31344 72.3371 -2.37295 92.628 1.15077C112.919 4.67448 130.98 16.1196 142.838 32.9685C167.53 68.0544 192.307 160.058 174.817 213.357C122.648 158.216 42.5013 152.486 15.8633 122.447C-12.6003 90.3483 -0.422449 38.8877 34.6405 14.179Z" fill="#7903C1"/>
<path d="M80.4069 93.6288C94.3932 93.6288 105.731 82.2833 105.731 68.2879C105.731 54.2925 94.3932 42.947 80.4069 42.947C66.4206 42.947 55.0825 54.2925 55.0825 68.2879C55.0825 82.2833 66.4206 93.6288 80.4069 93.6288Z" fill="white"/>
<path d="M196.226 240.955C205.386 240.955 212.813 233.523 212.813 224.357C212.813 215.19 205.386 207.759 196.226 207.759C187.065 207.759 179.639 215.19 179.639 224.357C179.639 233.523 187.065 240.955 196.226 240.955Z" fill="#7903C1"/>
<path opacity="0.2" d="M53.3128 62.4407C51.6359 65.3144 50.5412 68.4905 50.091 71.7876C49.6408 75.0848 49.8441 78.4383 50.6891 81.6568C51.5341 84.8754 53.0044 87.8958 55.016 90.5458C57.0275 93.1957 59.541 95.4233 62.4129 97.1012C65.2848 98.7791 68.4588 99.8746 71.7538 100.325C75.0488 100.776 78.4002 100.572 81.6166 99.7266C84.833 98.881 87.8515 97.4098 90.4997 95.3969C93.1479 93.384 95.374 90.8689 97.0508 87.9951C92.5306 91.9632 86.7466 94.1921 80.7342 94.2827C74.7217 94.3734 68.8732 92.32 64.2355 88.4901C59.5978 84.6601 56.4736 79.3036 55.4221 73.3792C54.3705 67.4549 55.4603 61.3494 58.4963 56.1556C56.441 57.9571 54.6905 60.0795 53.3128 62.4407Z" fill="#231F20"/>
<path opacity="0.2" d="M15.8159 122.566C42.4539 152.606 122.601 158.336 174.77 213.476C176.398 208.433 177.651 203.277 178.52 198.049C126.377 147.921 50.6914 141.586 24.9543 112.562C1.91911 86.5856 5.5049 47.9299 26.2939 21.033C-2.21789 47.4796 -10.2683 93.1512 15.8159 122.566Z" fill="#231F20"/>
<path d="M346.923 228.701L336.168 225.423C331.487 231.071 327.605 247.433 327.605 247.433L312.886 271.366C312.098 271.74 311.423 272.316 310.928 273.034C310.433 273.752 310.136 274.589 310.067 275.458C309.998 276.328 310.159 277.201 310.533 277.988C310.908 278.776 311.484 279.451 312.202 279.946C312.921 280.44 313.757 280.736 314.626 280.804C315.495 280.873 316.367 280.711 317.154 280.335C317.941 279.959 318.615 279.382 319.108 278.662C319.601 277.943 319.896 277.106 319.963 276.236L342.24 249.174L346.923 228.701Z" fill="#FFB6B6"/>
<path d="M346.716 231.313L348.704 215.022L344.249 207.578C343.369 206.119 342.099 204.936 340.582 204.162C339.066 203.388 337.363 203.054 335.667 203.197C333.368 203.407 331.236 204.483 329.699 206.206C328.163 207.93 327.338 210.173 327.392 212.481C327.559 219.483 328.661 228.337 332.963 230.757L333.006 230.781L346.716 231.313Z" fill="#7903C1"/>
<path d="M377.098 378.514L370.649 381.629L355.572 358.22L365.091 353.623L377.098 378.514Z" fill="#FFB6B6"/>
<path d="M380.573 385.137L360.741 394.716L360.62 394.465C359.632 392.416 359.497 390.059 360.246 387.911C360.995 385.763 362.565 384.001 364.612 383.012L364.613 383.012L366.909 378.512L374.994 377.998L376.725 377.161L380.573 385.137Z" fill="#2F2E41"/>
<path d="M329.093 387.241L321.932 387.24L318.525 359.6L329.094 359.601L329.093 387.241Z" fill="#FFB6B6"/>
<path d="M329.345 394.716L307.324 394.715V394.436C307.324 392.162 308.227 389.98 309.834 388.372C311.442 386.763 313.622 385.86 315.895 385.86H315.896L319.918 382.806L327.423 385.86L329.346 385.86L329.345 394.716Z" fill="#2F2E41"/>
<path d="M321.996 259.051L313.79 315.677L316.023 323.127L313.092 328.404L317.396 368.122L315.649 371.97L320.53 374.982H330.461L330.988 333.028L333.442 326.868V323.473L338.436 297.89L339.588 337.716L341.182 340.793C347.121 354.277 355.122 358.692 360.778 368.771L370.71 363.387L370.502 359.373C372.497 358.362 367.506 355.407 367.026 353.221L366.158 349.308L360.364 337.299L360.143 333.07L361.729 304.305L360.983 265.571L347.955 255.602L321.996 259.051Z" fill="#2F2E41"/>
<path d="M334.89 190.368C342.016 190.368 347.793 184.587 347.793 177.456C347.793 170.325 342.016 164.544 334.89 164.544C327.763 164.544 321.986 170.325 321.986 177.456C321.986 184.587 327.763 190.368 334.89 190.368Z" fill="#FFB6B6"/>
<path d="M315.824 283.479L315.636 283.413L318.133 275.291C317.806 274.245 317.743 273.133 317.951 272.056C318.159 270.979 318.632 269.971 319.326 269.123C318.922 268.423 317.257 265.119 319.968 262.312C319.806 261.494 318.991 256.649 321.837 254.281C321.837 254.281 327.359 212.401 330.456 201.339C330.546 200.53 329.82 193.922 333.986 193.663C336.183 193.527 339.48 193.318 344.428 192.999C345.068 192.953 345.442 194.033 346.01 195.791C346.394 196.98 344.417 198.605 344.895 198.578L344.929 198.576L344.962 198.585C349.578 199.823 353.627 202.614 356.428 206.488C359.23 210.363 360.612 215.084 360.344 219.858L358.874 244.882C359.096 245.889 363.781 274.425 362.557 277.488C361.862 279.226 363.047 280.308 363.911 281.098C364.357 281.506 364.679 281.8 364.634 282.121C364.616 282.21 364.576 282.292 364.518 282.361C364.459 282.43 364.385 282.483 364.3 282.515C363.518 282.907 363.95 285.592 364.407 287.192L364.453 287.355L364.302 287.433C364.128 287.523 350.125 281.097 333.115 281.096C326.703 281.096 322.997 285.983 315.824 283.479Z" fill="#7903C1"/>
<path d="M345.115 185.395C344.981 185.326 344.863 185.23 344.769 185.112C344.674 184.994 344.606 184.858 344.567 184.712L344.383 183.963L344.949 184.552C345.251 184.302 345.483 183.976 345.619 183.607C345.756 183.239 345.793 182.84 345.726 182.453C345.66 182.066 345.493 181.703 345.241 181.401C344.99 181.098 344.664 180.868 344.295 180.732C344.046 180.649 343.791 180.587 343.532 180.547C343.261 180.503 342.993 180.439 342.732 180.354C342.122 180.09 341.595 179.663 341.21 179.121C340.824 178.579 340.594 177.941 340.545 177.278C340.461 176.107 340.591 174.932 340.928 173.808C335.234 174.683 329.428 174.508 323.798 173.293C322.93 173.109 322.099 172.782 321.339 172.325C319.949 171.5 318.791 170.334 317.975 168.938C317.867 168.75 317.822 168.532 317.847 168.316C317.872 168.1 317.965 167.898 318.113 167.74C318.215 167.629 318.34 167.54 318.478 167.479C318.616 167.418 318.766 167.386 318.917 167.385L318.71 166.827C318.646 166.653 318.629 166.464 318.661 166.281C318.693 166.098 318.773 165.926 318.893 165.784C319.013 165.642 319.168 165.534 319.343 165.472C319.518 165.409 319.707 165.394 319.889 165.428L320.62 165.565L320.55 165.08C320.523 164.899 320.545 164.714 320.612 164.544C320.678 164.374 320.788 164.224 320.931 164.109C321.073 163.995 321.243 163.919 321.423 163.89C321.604 163.861 321.789 163.88 321.96 163.944C322.116 164.003 322.284 164.028 322.451 164.016C322.618 164.004 322.78 163.955 322.927 163.874C323.073 163.794 323.201 163.682 323.3 163.547C323.399 163.412 323.468 163.257 323.502 163.093L323.753 161.873L323.778 161.808C325.014 159.748 327.388 158.251 330.291 157.7C332.88 157.209 335.523 157.457 338.08 157.697C339.164 157.719 340.23 157.988 341.194 158.484C341.631 158.736 341.989 159.105 342.229 159.549C342.469 159.992 342.581 160.494 342.552 160.998C345.069 160.223 347.771 161.767 349.106 163.711C350.694 166.024 350.951 168.925 350.997 171.194C351.107 176.557 350.003 180.946 347.716 184.237C347.388 184.796 346.892 185.237 346.299 185.497C346.148 185.547 345.99 185.573 345.831 185.572C345.581 185.573 345.335 185.513 345.115 185.395Z" fill="#2F2E41"/>
<path d="M345.579 236.234L336.108 230.173C330.077 234.347 321.926 249.052 321.926 249.052L301.298 268.123C300.439 268.27 299.633 268.642 298.963 269.2C298.293 269.758 297.781 270.482 297.48 271.301C297.178 272.12 297.098 273.004 297.246 273.863C297.395 274.723 297.767 275.529 298.325 276.199C298.884 276.869 299.609 277.38 300.427 277.68C301.246 277.981 302.129 278.06 302.988 277.911C303.847 277.761 304.652 277.388 305.321 276.828C305.99 276.269 306.5 275.542 306.799 274.723L335.548 254.682L345.579 236.234Z" fill="#FFB6B6"/>
<path d="M344.676 238.693L350.984 223.544L348.703 215.172C348.249 213.53 347.345 212.048 346.094 210.893C344.842 209.738 343.293 208.956 341.621 208.636C339.351 208.218 337.007 208.677 335.063 209.922C333.119 211.166 331.72 213.103 331.148 215.341C329.421 222.128 328.094 230.951 331.583 234.443L331.619 234.478L344.676 238.693Z" fill="#7903C1"/>
</g>
<defs>
<clipPath id="clip0_50_61">
<rect width="449" height="396" fill="white"/>
</clipPath>
</defs>
</svg>
