<svg width="359" height="289" viewBox="0 0 359 289" fill="none" xmlns="http://www.w3.org/2000/svg">
<g clip-path="url(#clip0_79_747)">
<path d="M204.516 255.672C202.034 252.201 198.673 249.661 194.448 248.711C190.764 247.882 186.976 248.023 183.232 248.052L135.881 248.417C131.826 248.448 127.937 251.956 128.126 256.16C128.313 260.328 131.534 263.936 135.881 263.903C149.751 263.796 163.622 263.689 177.492 263.583C180.762 263.557 184.034 263.499 187.304 263.509C188.039 263.512 188.77 263.55 189.504 263.559C189.681 263.561 189.81 263.559 189.9 263.555C189.923 263.562 189.942 263.569 189.972 263.577C190.355 263.682 190.747 263.754 191.132 263.853C190.997 263.858 191.382 264.097 191.575 264.178C191.602 264.23 191.658 264.323 191.752 264.466C191.884 264.713 192.275 265.463 192.291 265.439C192.877 266.919 193.361 268.438 193.738 269.985C194.64 273.395 194.838 274.108 194.967 277.308C195.131 281.35 198.417 285.243 202.722 285.051C206.784 284.869 210.653 281.643 210.478 277.308C210.181 270.003 208.897 261.797 204.516 255.672Z" fill="#E6E6E6"/>
<path d="M138.664 273.145C137.775 267.763 136.903 262.379 135.996 257C135.076 251.544 133.197 246.548 128.945 242.967C127.808 242.011 126.63 241.117 125.447 240.227C125.031 239.914 124.616 239.6 124.205 239.28C124.18 239.261 124.164 239.249 124.143 239.233C124.098 239.194 124.044 239.148 123.971 239.086C122.198 237.588 120.486 236.024 118.855 234.361C117.406 232.885 116.021 231.345 114.698 229.742C114.368 229.342 114.042 228.938 113.72 228.53C113.665 228.46 113.367 228.076 113.17 227.824C112.987 227.573 112.653 227.119 112.597 227.04C112.221 226.509 111.852 225.973 111.489 225.432C109.019 221.737 106.88 217.832 105.098 213.762C104.921 213.358 104.748 212.952 104.58 212.544C104.535 212.419 104.476 212.259 104.399 212.046C104.039 211.059 103.681 210.074 103.352 209.076C102.654 206.956 102.054 204.805 101.552 202.622C101.304 201.544 101.08 200.461 100.882 199.372C100.779 198.813 100.683 198.252 100.594 197.689C100.579 197.596 100.492 196.99 100.441 196.647C100.403 196.302 100.333 195.693 100.323 195.598C100.266 195.032 100.216 194.465 100.172 193.897C100.073 192.619 100.006 191.339 99.9708 190.057C99.9111 187.779 99.952 185.501 100.093 183.223C100.174 181.943 100.288 180.667 100.429 179.393C100.438 179.314 100.445 179.252 100.451 179.196C100.459 179.139 100.469 179.075 100.481 178.994C100.585 178.29 100.695 177.587 100.818 176.886C101.283 174.224 101.888 171.589 102.63 168.991C102.982 167.762 103.364 166.543 103.776 165.335C103.959 164.798 104.149 164.263 104.344 163.731C104.331 163.765 104.917 162.271 104.925 162.221C107.249 156.739 111.05 151.74 111.056 145.512C111.059 141.296 107.486 137.256 103.3 137.451C101.214 137.53 99.2387 138.414 97.792 139.918C96.3453 141.421 95.5399 143.427 95.5453 145.512C95.5453 145.607 95.5449 145.688 95.5446 145.766C95.5056 145.898 95.4729 146.007 95.4436 146.104C94.9904 147.087 94.4351 148.022 93.9377 148.981C92.5754 151.605 91.4127 154.316 90.3082 157.067C88.5 161.546 87.1159 166.184 86.1741 170.921C84.127 181.3 83.9681 191.962 85.705 202.397C88.7118 220.696 98.6277 238.213 112.413 249.988C113.609 251.01 114.835 251.997 116.072 252.965C116.584 253.365 117.1 253.758 117.619 254.148C117.864 254.333 118.88 255.133 118.433 254.745C119.394 255.564 119.798 255.976 120.045 256.579C120.081 256.718 120.13 256.907 120.196 257.165C120.37 257.845 120.535 258.524 120.672 259.213C121.872 265.239 122.706 271.366 123.708 277.431C124.397 281.598 129.535 284.31 133.248 283.061C137.569 281.607 139.402 277.61 138.664 273.145Z" fill="#E6E6E6"/>
<path d="M205.3 288.774C202.043 288.782 198.916 287.5 196.604 285.21C194.293 282.919 192.986 279.806 192.97 276.554V267.721C183.708 268.757 151.992 268.517 142.901 267.058V276.201C142.877 279.45 141.567 282.558 139.257 284.847C136.947 287.136 133.825 288.421 130.57 288.421C127.316 288.421 124.193 287.136 121.884 284.847C119.574 282.558 118.264 279.45 118.24 276.201V258.25C105.926 251.421 95.6614 241.434 88.5044 229.32C81.3473 217.207 77.5572 203.406 77.5254 189.342C77.5254 165.227 88.4712 142.732 107.556 127.623C119.965 117.766 135.042 111.839 150.85 110.601C152.996 110.433 155.155 110.348 157.267 110.348C164.708 110.348 198.281 111.496 206.705 113.916L225.912 94.8859C226.194 94.6024 226.555 94.4092 226.948 94.3311C227.34 94.2529 227.748 94.2933 228.117 94.4471C228.49 94.5951 228.809 94.852 229.032 95.1843C229.256 95.5165 229.374 95.9085 229.37 96.3087V99.3343L233.11 95.636C233.392 95.3521 233.752 95.1587 234.145 95.0804C234.537 95.0021 234.944 95.0425 235.314 95.1965C235.686 95.3443 236.006 95.6013 236.23 95.9337C236.453 96.2661 236.571 96.6582 236.568 97.0587V130.869C246.206 139.545 253.552 150.46 257.954 162.648C262.357 174.836 263.68 187.92 261.807 200.74C259.935 213.561 254.923 225.722 247.217 236.147C239.511 246.571 229.349 254.937 217.631 260.502V276.554C217.615 279.806 216.308 282.919 213.996 285.21C211.684 287.5 208.557 288.782 205.3 288.774ZM193.939 266.624V276.554C193.963 279.547 195.171 282.408 197.299 284.516C199.427 286.623 202.303 287.806 205.3 287.806C208.297 287.806 211.173 286.623 213.301 284.516C215.429 282.408 216.637 279.547 216.661 276.554V259.891L216.938 259.76C230.087 253.53 241.249 243.784 249.185 231.603C259.298 216.059 263.504 197.414 261.041 179.043C258.579 160.671 249.61 143.787 235.759 131.446L235.598 131.301V97.0587C235.602 96.8507 235.541 96.6465 235.425 96.4739C235.309 96.3012 235.142 96.1682 234.948 96.093C234.755 96.0105 234.541 95.9883 234.335 96.0291C234.129 96.07 233.941 96.172 233.794 96.3219L228.401 101.655V96.3087C228.404 96.1006 228.344 95.8965 228.227 95.7238C228.111 95.5512 227.945 95.4182 227.75 95.3429C227.557 95.2606 227.343 95.2386 227.136 95.2797C226.93 95.3209 226.741 95.4233 226.594 95.5736L206.976 115.011L206.697 114.923C198.866 112.476 164.765 111.316 157.267 111.316C155.18 111.316 153.047 111.4 150.926 111.566C135.31 112.789 120.417 118.644 108.159 128.381C89.3068 143.305 78.4947 165.525 78.4947 189.342C78.5269 203.282 82.2967 216.959 89.4124 228.952C96.5281 240.945 106.73 250.817 118.959 257.542L119.209 257.681V276.201C119.234 279.193 120.442 282.054 122.57 284.161C124.698 286.268 127.573 287.45 130.57 287.45C133.567 287.45 136.443 286.268 138.571 284.161C140.699 282.054 141.907 279.193 141.932 276.201V265.9L142.506 266.008C150.676 267.542 185.077 267.784 193.391 266.695L193.939 266.624Z" fill="#3F3D56"/>
<path d="M139.591 57.6464L85.9159 73.7521C84.2086 74.2664 82.7757 75.4363 81.9319 77.0049C81.0881 78.5734 80.9023 80.4122 81.4155 82.1174C81.9287 83.8225 83.0988 85.2546 84.6688 86.0989C86.2388 86.9432 88.0803 87.1307 89.7887 86.6202L136.76 72.5229L137.744 72.2276C137.943 67.1649 139.319 62.2177 141.762 57.777C141.456 57.6393 141.128 57.5542 140.793 57.5254C140.388 57.4863 139.98 57.5274 139.591 57.6464Z" fill="#7903C1"/>
<path d="M88.8603 90.0539C88.1477 90.0522 87.4538 89.8269 86.8765 89.41C86.2991 88.993 85.8676 88.4055 85.643 87.7304L82.2865 77.6179C82.1464 77.1956 82.0909 76.7498 82.1232 76.3061C82.1556 75.8624 82.2752 75.4294 82.4752 75.0318C82.6751 74.6342 82.9516 74.2799 83.2888 73.989C83.6259 73.6981 84.0172 73.4764 84.4402 73.3365L128.126 58.881C128.549 58.7411 128.995 58.6856 129.44 58.7179C129.884 58.7502 130.318 58.8695 130.716 59.0691C131.114 59.2688 131.469 59.5447 131.76 59.8813C132.052 60.2178 132.274 60.6084 132.414 61.0307L135.77 71.1432C136.05 71.9749 135.994 72.8825 135.614 73.6738C135.235 74.465 134.562 75.0778 133.738 75.3822C133.698 75.3973 133.657 75.4116 133.616 75.425L89.9309 89.88C89.5856 89.9949 89.2242 90.0536 88.8603 90.0539Z" fill="#2F2E41"/>
<path d="M170.674 39.6872C161.857 39.6906 153.387 43.1194 147.057 49.2479C140.727 55.3764 137.034 63.7237 136.76 72.5229C136.75 72.8665 136.745 73.2149 136.745 73.5634C136.745 80.2634 138.735 86.813 142.463 92.3839C146.191 97.9548 151.49 102.297 157.69 104.861C163.889 107.425 170.711 108.096 177.293 106.789C183.874 105.481 189.92 102.255 194.665 97.5174C199.41 92.7798 202.641 86.7436 203.95 80.1723C205.259 73.6009 204.587 66.7896 202.019 60.5995C199.451 54.4095 195.103 49.1187 189.523 45.3964C183.944 41.674 177.384 39.6872 170.674 39.6872ZM170.674 106.472C161.935 106.463 153.557 102.992 147.378 96.823C141.199 90.6534 137.724 82.2884 137.714 73.5634C137.714 73.1133 137.724 72.6681 137.744 72.2277C138.006 65.7814 140.161 59.5544 143.939 54.3209C147.718 49.0875 152.954 45.0784 158.996 42.7923C165.038 40.5062 171.62 40.0439 177.923 41.4628C184.227 42.8818 189.973 46.1194 194.448 50.7732C198.924 55.4269 201.93 61.2914 203.094 67.6375C204.257 73.9835 203.527 80.5312 200.994 86.4662C198.461 92.4012 194.236 97.4618 188.845 101.019C183.454 104.576 177.135 106.472 170.674 106.472Z" fill="#3F3D56"/>
<path d="M199.271 73.5633C199.271 81.136 196.258 88.3985 190.895 93.7532C185.532 99.1079 178.258 102.116 170.674 102.116C163.09 102.116 155.816 99.1079 150.453 93.7532C145.09 88.3985 142.077 81.136 142.077 73.5633C142.077 72.6584 142.121 71.7679 142.203 70.8871C142.892 63.5787 146.374 56.8161 151.926 52.0034C157.477 47.1907 164.672 44.6978 172.016 45.0422C179.36 45.3865 186.289 48.5419 191.364 53.8529C196.439 59.1639 199.271 66.2226 199.271 73.5633Z" fill="#E6E6E6"/>
<path d="M179.19 75.4604C178.497 74.5504 177.585 73.8297 176.539 73.3649C175.248 72.822 173.916 72.3849 172.555 72.0583V64.2861C174.647 64.6011 176.61 65.4946 178.221 66.8655L179.801 63.5021C178.892 62.6937 177.849 62.0501 176.718 61.6002C175.465 61.0935 174.149 60.7566 172.807 60.5984V56.6591H169.147V60.6371C167.734 60.7956 166.371 61.2526 165.149 61.9777C164.044 62.6303 163.114 63.5402 162.439 64.6297C161.794 65.6929 161.46 66.9149 161.475 68.1577C161.412 69.5044 161.802 70.8334 162.584 71.9324C163.304 72.884 164.255 73.6368 165.347 74.1199C166.658 74.6788 168.013 75.1272 169.399 75.4604V82.9083C166.93 82.7223 164.577 81.7849 162.657 80.2224L161.077 83.5907C162.15 84.4766 163.371 85.1678 164.683 85.6329C166.121 86.1467 167.623 86.4594 169.147 86.5621V90.4675H172.807V86.4895C174.839 86.2677 176.745 85.3951 178.24 84.002C178.898 83.3717 179.418 82.6118 179.767 81.7705C180.116 80.9291 180.286 80.0246 180.266 79.1142C180.327 77.8103 179.948 76.5238 179.19 75.4604ZM169.399 71.2355C168.508 70.9656 167.679 70.5215 166.961 69.9289C166.677 69.6762 166.452 69.3638 166.303 69.014C166.154 68.6643 166.084 68.2859 166.098 67.906C166.072 67.0441 166.389 66.2069 166.981 65.5782C167.636 64.9187 168.482 64.4804 169.399 64.3248V71.2355ZM174.852 81.5339C174.234 82.1671 173.429 82.586 172.555 82.7292V76.3218C173.39 76.5456 174.171 76.9357 174.852 77.4688C175.11 77.6888 175.315 77.964 175.452 78.274C175.589 78.584 175.654 78.9208 175.642 79.2594C175.676 80.0899 175.394 80.9025 174.852 81.5339Z" fill="#7903C1"/>
<path d="M90.4182 131.039C89.6689 131.037 88.941 130.789 88.3473 130.333C87.7536 129.877 87.3272 129.237 87.1344 128.515L85.3071 121.609C85.0783 120.741 85.2037 119.817 85.6558 119.042C86.1079 118.266 86.8496 117.701 87.7185 117.47L145.368 102.26C146.238 102.033 147.163 102.16 147.939 102.612C148.716 103.064 149.282 103.805 149.513 104.673L151.061 110.523L150.771 110.546C135.985 111.694 121.839 117.046 110.004 125.97L109.92 126.01L91.279 130.927C90.9981 131.001 90.7088 131.039 90.4182 131.039Z" fill="#2F2E41"/>
<path d="M80.8699 165.15C74.1073 164.153 67.6396 161.711 61.9076 157.992C59.0679 156.15 56.4391 154.004 54.0683 151.59C51.7282 149.207 49.4896 146.498 48.3306 143.324C47.2154 140.388 47.2729 137.136 48.4911 134.241C49.6927 131.364 51.9881 129.079 54.8739 127.889C57.777 126.733 61.2845 126.609 64.1099 127.875C65.4563 128.465 66.6213 129.401 67.4855 130.588C67.8872 131.136 68.1846 131.752 68.3629 132.407C68.5284 133 68.5435 133.626 68.4067 134.226C68.2411 134.826 67.9489 135.383 67.5498 135.861C67.1507 136.339 66.654 136.726 66.0929 136.996C64.8579 137.628 63.5199 138.036 62.1416 138.199C60.7553 138.388 58.7639 138.56 57.6495 137.448C57.42 137.229 57.2396 136.963 57.1199 136.669C57.0361 136.444 57.0075 136.202 57.0363 135.963C57.0201 136.068 57.1036 135.735 57.0988 135.748C57.0812 135.797 57.0049 135.918 57.1133 135.733C57.1472 135.672 57.185 135.613 57.2263 135.557C57.1895 135.605 57.1086 135.684 57.2531 135.548C57.3724 135.418 57.5259 135.323 57.6962 135.275C57.7633 135.255 57.8314 135.24 57.8986 135.221C58.0696 135.175 57.7282 135.224 57.9031 135.218C57.9706 135.216 58.039 135.218 58.1062 135.215C58.2778 135.207 57.9369 135.168 58.1014 135.209C58.1652 135.225 58.2285 135.241 58.2914 135.261C58.4281 135.304 58.1946 135.161 58.2872 135.268C58.3958 135.393 58.1732 135.146 58.2966 135.267C58.358 135.328 58.4159 135.391 58.47 135.458C58.684 135.669 58.9726 135.787 59.2734 135.787C59.5741 135.787 59.8627 135.669 60.0767 135.458C60.2835 135.242 60.3988 134.955 60.3988 134.656C60.3988 134.357 60.2835 134.07 60.0767 133.854C58.9564 132.467 56.7435 132.81 55.6102 133.982C54.1648 135.476 54.7372 137.845 56.1431 139.149C57.7347 140.626 59.9888 140.728 62.0362 140.481C63.7664 140.315 65.4525 139.839 67.0135 139.076C68.5646 138.315 69.7778 137.007 70.418 135.404C70.7071 134.549 70.8109 133.642 70.7227 132.743C70.6344 131.845 70.356 130.975 69.906 130.193C68.0984 126.799 64.3555 125.06 60.6559 124.759C58.7512 124.61 56.8358 124.839 55.0205 125.434C53.2053 126.029 51.5262 126.978 50.0805 128.225C47.294 130.73 45.5782 134.208 45.2878 137.94C44.9648 141.81 46.4685 145.568 48.6609 148.691C50.956 151.864 53.6948 154.692 56.7937 157.089C62.8521 161.918 69.9586 165.264 77.5444 166.86C78.4467 167.046 79.3538 167.205 80.2658 167.338C80.556 167.408 80.8621 167.365 81.1217 167.218C81.3814 167.071 81.5751 166.83 81.6634 166.546C81.7413 166.256 81.7017 165.947 81.5532 165.685C81.4047 165.424 81.1593 165.232 80.8699 165.15L80.8699 165.15Z" fill="#3F3D56"/>
<path d="M189.143 115.848C179.235 115.708 169.358 115.959 159.512 116.601C156.147 116.82 153.235 118.008 153.235 120.004C153.235 121.673 156.124 123.628 159.512 123.407C169.353 122.765 179.23 122.514 189.143 122.654C197.225 122.768 197.22 115.961 189.143 115.848Z" fill="#CCCCCC"/>
<path d="M174.499 122.317C173.428 122.317 148.274 122.277 148.274 118.808C148.274 115.339 173.428 115.299 174.499 115.299C175.57 115.299 200.724 115.339 200.724 118.808C200.724 122.277 175.57 122.317 174.499 122.317ZM149.258 118.808C149.946 119.86 159.192 121.349 174.499 121.349C189.806 121.349 199.052 119.86 199.74 118.808C199.052 117.756 189.806 116.267 174.499 116.267C159.192 116.267 149.946 117.756 149.258 118.808V118.808Z" fill="#3F3D56"/>
<path d="M254.306 213.516C259.874 213.362 266.804 213.169 272.143 209.275C273.733 208.068 275.039 206.528 275.97 204.764C276.901 203 277.434 201.054 277.533 199.062C277.642 195.987 276.529 193.303 274.399 191.506C271.611 189.153 267.539 188.601 263.151 189.889L267.697 156.715L264.36 156.259L259.015 195.259L261.802 193.982C265.033 192.502 269.469 191.749 272.225 194.074C272.902 194.682 273.429 195.438 273.766 196.283C274.102 197.127 274.24 198.038 274.167 198.944C274.085 200.426 273.684 201.874 272.992 203.188C272.3 204.502 271.333 205.651 270.156 206.559C266.001 209.589 260.477 209.98 254.212 210.155L254.306 213.516Z" fill="#3F3D56"/>
<path d="M245.078 159.576H226.935V162.94H245.078V159.576Z" fill="#3F3D56"/>
<path d="M98.628 146.508C97.8204 146.506 97.0401 146.216 96.4269 145.691C95.8137 145.167 95.4077 144.441 95.2816 143.645L94.1742 136.588C94.0359 135.7 94.2558 134.794 94.7858 134.069C95.3157 133.343 96.1124 132.857 97.001 132.717L155.906 123.501C156.795 123.363 157.703 123.583 158.43 124.112C159.156 124.641 159.643 125.436 159.783 126.324L160.891 133.38C161.029 134.268 160.809 135.174 160.279 135.9C159.749 136.626 158.953 137.112 158.064 137.252L99.1588 146.467C98.9832 146.494 98.8057 146.508 98.628 146.508Z" fill="#2F2E41"/>
<path d="M74.2496 63.8105C87.9017 63.8105 98.9689 52.7603 98.9689 39.1293C98.9689 25.4982 87.9017 14.4481 74.2496 14.4481C60.5975 14.4481 49.5303 25.4982 49.5303 39.1293C49.5303 52.7603 60.5975 63.8105 74.2496 63.8105Z" fill="#7903C1"/>
<path d="M88.2452 45.5153C89.0353 45.2394 89.757 44.7978 90.3618 44.2202C90.762 43.8084 91.0672 43.3142 91.256 42.7723C91.4447 42.2303 91.5126 41.6537 91.4547 41.0828C91.4211 40.6759 91.2937 40.2823 91.0825 39.9327C90.8712 39.5831 90.5819 39.2871 90.2371 39.0676C89.3425 38.5183 88.1604 38.5391 86.9669 39.0915L86.8292 29.4572L85.8599 29.4709L86.0218 40.7971L86.7597 40.3139C87.6153 39.7545 88.8447 39.3489 89.7292 39.8921C89.948 40.0359 90.1305 40.2282 90.2628 40.4539C90.395 40.6797 90.4733 40.9328 90.4916 41.1937C90.5324 41.619 90.4809 42.0481 90.3407 42.4517C90.2005 42.8554 89.9749 43.2241 89.6791 43.5329C88.6283 44.5739 87.073 44.9227 85.2979 45.2418L85.4696 46.1943C86.4133 46.0512 87.3422 45.824 88.2452 45.5153Z" fill="#2F2E41"/>
<path d="M96.8115 28.781L91.6494 29.5615L91.7945 30.5184L96.9566 29.7378L96.8115 28.781Z" fill="#2F2E41"/>
<path d="M80.5176 31.2442L75.3555 32.0248L75.5006 32.9816L80.6627 32.2011L80.5176 31.2442Z" fill="#2F2E41"/>
<path d="M90.5856 146.077C89.6966 146.075 88.8293 145.803 88.099 145.297C87.3687 144.791 86.8101 144.074 86.4975 143.243L69.4542 97.6708C67.3711 92.0816 67.5935 85.8956 70.0728 80.47C72.552 75.0443 77.0855 70.8222 82.6787 68.7298L96.5369 63.5631C97.0727 63.362 97.6431 63.2686 98.2153 63.2884C98.7874 63.3083 99.35 63.4409 99.8706 63.6786C100.39 63.9103 100.858 64.243 101.247 64.6573C101.636 65.0716 101.939 65.5592 102.137 66.0915L133.708 125.609C133.913 126.146 134.01 126.718 133.992 127.292C133.975 127.866 133.844 128.431 133.607 128.954C133.371 129.478 133.033 129.949 132.613 130.342C132.193 130.734 131.699 131.04 131.16 131.241L92.1101 145.8C91.6226 145.983 91.1063 146.076 90.5856 146.077Z" fill="#2F2E41"/>
<path d="M92.332 65.1305L123.657 106.956L102.461 65.5695C102.286 65.0866 102.017 64.6429 101.67 64.2637C101.323 63.8844 100.905 63.5772 100.439 63.3594C99.9736 63.1416 99.4694 63.0176 98.9555 62.9944C98.4417 62.9712 97.9283 63.0494 97.4448 63.2243L92.332 65.1305Z" fill="#E6E6E6"/>
<path d="M141.931 96.8943L85.9999 93.2971C85.1183 93.2404 84.2565 93.0109 83.4638 92.6216C82.671 92.2324 81.9628 91.6911 81.3795 91.0285C80.7963 90.366 80.3495 89.5953 80.0645 88.7603C79.7796 87.9254 79.6622 87.0426 79.719 86.1623C79.7758 85.2821 80.0056 84.4216 80.3955 83.6301C80.7853 82.8385 81.3275 82.1314 81.991 81.5491C82.6546 80.9667 83.4265 80.5206 84.2627 80.2361C85.099 79.9516 85.9831 79.8344 86.8647 79.8911L142.796 83.4881C143.209 83.5146 143.613 83.622 143.984 83.8043C144.355 83.9866 144.687 84.2401 144.96 84.5503C145.233 84.8606 145.442 85.2215 145.576 85.6126C145.709 86.0036 145.764 86.417 145.738 86.8292L145.278 93.9574C145.224 94.7899 144.841 95.567 144.214 96.1178C143.586 96.6686 142.765 96.9479 141.931 96.8943Z" fill="#7903C1"/>
<path d="M126.986 99.2004C126.912 99.2004 126.838 99.198 126.764 99.1933H126.764L80.836 96.2395C80.3913 96.211 79.9567 96.0953 79.5568 95.899C79.157 95.7027 78.7998 95.4297 78.5056 95.0956C78.2114 94.7615 77.9861 94.3728 77.8424 93.9517C77.6987 93.5306 77.6395 93.0853 77.6682 92.6414L78.4535 80.4662C78.4822 80.0222 78.5981 79.5883 78.7948 79.189C78.9914 78.7898 79.2649 78.4332 79.5995 78.1395C79.9342 77.8458 80.3236 77.6209 80.7453 77.4774C81.1671 77.334 81.613 77.2749 82.0577 77.3035L127.985 80.2571C128.883 80.3158 129.72 80.7276 130.314 81.4021C130.908 82.0767 131.21 82.9589 131.153 83.8552L130.368 96.0306C130.324 96.683 130.093 97.3091 129.703 97.8337C129.312 98.3582 128.778 98.759 128.164 98.988C127.787 99.1287 127.388 99.2007 126.986 99.2004Z" fill="#2F2E41"/>
<path d="M73.9663 22.7166C77.2182 19.9241 81.6839 22.4222 85.4132 21.9849C88.981 21.5665 91.7983 18.371 92.5181 14.9762C93.3577 11.0156 91.2988 7.04765 88.2641 4.57829C84.9403 1.87372 80.5322 1.0973 76.355 1.59767C71.5673 2.17114 67.1888 4.39939 63.26 7.09458C59.4678 9.6155 55.9804 12.5661 52.8674 15.8875C50.0799 18.9613 47.7182 22.6253 46.964 26.7616C46.2786 30.5206 46.802 34.6862 49.0276 37.8706C50.2078 39.5028 51.7893 40.8037 53.6196 41.6479C55.5281 42.5836 57.5639 43.2525 59.4128 44.3105C62.2084 45.9101 64.9254 49.2268 64.0497 52.6783C63.862 53.4323 63.4915 54.1287 62.9708 54.7061C62.3452 55.3994 61.2168 54.4832 61.844 53.788C62.9457 52.567 62.9023 50.9385 62.3152 49.4808C61.6171 47.8381 60.3809 46.4808 58.8092 45.6313C56.8738 44.5265 54.7371 43.8445 52.7534 42.8382C50.8548 41.9189 49.2067 40.5552 47.9494 38.8632C45.5753 35.5689 44.8652 31.2817 45.4036 27.3157C45.9863 23.0239 48.1948 19.1239 50.9633 15.8557C53.9763 12.299 57.6772 9.2883 61.4581 6.58362C65.515 3.68147 69.9971 1.22791 74.9569 0.340494C79.2562 -0.428756 83.9163 0.0448428 87.6758 2.38416C91.1851 4.56776 93.8762 8.32399 94.1438 12.5212C94.2399 14.4309 93.8246 16.3317 92.9406 18.028C92.0567 19.7242 90.736 21.1547 89.1145 22.1721C87.4507 23.1662 85.5163 23.6136 83.5842 23.4513C81.5186 23.3193 79.451 22.6877 77.3723 22.8631C76.4316 22.9201 75.5352 23.2817 74.8189 23.8932C74.1084 24.5033 73.2616 23.3218 73.9663 22.7166V22.7166Z" fill="#2F2E41"/>
<path d="M358.423 289H0.5774C0.424629 289 0.27827 288.939 0.1704 288.831C0.0625312 288.723 0.00195312 288.576 0.00195312 288.424C0.00195312 288.271 0.0625312 288.125 0.1704 288.017C0.27827 287.909 0.424629 287.848 0.5774 287.848H358.423C358.576 287.848 358.723 287.908 358.831 288.016C358.939 288.124 359 288.271 359 288.424C359 288.577 358.939 288.723 358.831 288.831C358.723 288.939 358.576 289 358.423 289Z" fill="#3F3D56"/>
</g>
<defs>
<clipPath id="clip0_79_747">
<rect width="359" height="289" fill="white"/>
</clipPath>
</defs>
</svg>
