<svg width="55" height="54" viewBox="0 0 55 54" fill="none" xmlns="http://www.w3.org/2000/svg">
<g clip-path="url(#clip0_48_7)">
<path fill-rule="evenodd" clip-rule="evenodd" d="M15.3369 13.4374L9.45932 25.4053C9.05355 26.2315 9.39441 27.2302 10.2206 27.636L30.5963 37.6428C31.033 37.8572 31.5417 37.8702 31.9888 37.6782L40.0566 34.2132C40.812 33.8888 41.218 33.0621 41.0129 32.266L38.8227 23.7631C38.7013 23.292 38.38 22.8973 37.9433 22.6829L17.5676 12.6761C16.7414 12.2703 15.7427 12.6112 15.3369 13.4374ZM12.345 11.968L6.46734 23.9359C5.25001 26.4146 6.27257 29.4107 8.75121 30.628L29.1269 40.6348C30.4371 41.2782 31.9629 41.317 33.3042 40.7411L41.372 37.276C43.638 36.3028 44.856 33.8228 44.2408 31.4345L42.0506 22.9316C41.6864 21.5181 40.7229 20.3343 39.4127 19.6909L19.037 9.68409C16.5584 8.4668 13.5623 9.48932 12.345 11.968Z" fill="black"/>
<path fill-rule="evenodd" clip-rule="evenodd" d="M31.1114 30.4685C31.9377 30.8742 32.9363 30.5334 33.3421 29.7072C33.7479 28.8809 33.4071 27.8823 32.5808 27.4765C31.7546 27.0707 30.7559 27.4115 30.3501 28.2378C29.9444 29.064 30.2852 30.0627 31.1114 30.4685ZM29.642 33.4605C32.1207 34.6778 35.1168 33.6553 36.3341 31.1766C37.5514 28.6979 36.5289 25.7018 34.0502 24.4845C31.5715 23.2672 28.5755 24.2897 27.3581 26.7684C26.1408 29.2471 27.1633 32.2431 29.642 33.4605Z" fill="black"/>
</g>
<defs>
<clipPath id="clip0_48_7">
<rect width="40" height="40" fill="white" transform="translate(18.2227) rotate(26.1563)"/>
</clipPath>
</defs>
</svg>
