<svg width="45" height="45" viewBox="0 0 45 45" fill="none" xmlns="http://www.w3.org/2000/svg">
<g filter="url(#filter0_d_217_1332)">
<path d="M23.6869 36.562C23.4991 36.5621 23.3132 36.5245 23.1401 36.4515C22.9671 36.3786 22.8104 36.2717 22.6793 36.1371C22.5482 36.0026 22.4454 35.8432 22.377 35.6683C22.3085 35.4934 22.2758 35.3066 22.2807 35.1188V18.9953C22.2807 18.8088 22.2066 18.63 22.0748 18.4981C21.9429 18.3662 21.7641 18.2922 21.5776 18.2922H5.44173C5.14596 18.2957 4.85635 18.2076 4.61261 18.04C4.36886 17.8724 4.18293 17.6335 4.0803 17.3561C3.96343 17.0253 3.97446 16.6627 4.11122 16.3396C4.24798 16.0165 4.5006 15.7562 4.81947 15.6097L38.5695 0.12781C38.8302 0.0083371 39.1213 -0.028548 39.4036 0.0221015C39.6859 0.0727509 39.9459 0.208513 40.1489 0.411179C40.3519 0.613845 40.488 0.873724 40.539 1.15596C40.5901 1.4382 40.5536 1.7293 40.4345 1.99021L24.9658 35.7402C24.8537 35.9853 24.6737 36.1931 24.447 36.3388C24.2202 36.4845 23.9564 36.562 23.6869 36.562Z" fill="white"/>
</g>
<defs>
<filter id="filter0_d_217_1332" x="0" y="0" width="44.5605" height="44.562" filterUnits="userSpaceOnUse" color-interpolation-filters="sRGB">
<feFlood flood-opacity="0" result="BackgroundImageFix"/>
<feColorMatrix in="SourceAlpha" type="matrix" values="0 0 0 0 0 0 0 0 0 0 0 0 0 0 0 0 0 0 127 0" result="hardAlpha"/>
<feOffset dy="4"/>
<feGaussianBlur stdDeviation="2"/>
<feComposite in2="hardAlpha" operator="out"/>
<feColorMatrix type="matrix" values="0 0 0 0 0 0 0 0 0 0 0 0 0 0 0 0 0 0 0.25 0"/>
<feBlend mode="normal" in2="BackgroundImageFix" result="effect1_dropShadow_217_1332"/>
<feBlend mode="normal" in="SourceGraphic" in2="effect1_dropShadow_217_1332" result="shape"/>
</filter>
</defs>
</svg>
