<svg width="424" height="479" viewBox="0 0 424 479" fill="none" xmlns="http://www.w3.org/2000/svg">
<g clip-path="url(#clip0_91_872)">
<path d="M287.393 377.163C300.853 364.498 307.793 345.526 300.562 329.477C290.035 345.626 272.706 358.345 252.614 364.667C244.789 367.13 235.789 369.161 231.533 375.372C228.884 379.237 228.692 384.077 229.885 388.453C231.078 392.829 233.535 396.855 235.968 400.825L235.982 401.948C255.028 397.104 273.934 389.827 287.393 377.163Z" fill="#F2F2F2"/>
<path d="M300.157 329.562C297.888 343.538 290.462 356.976 279.108 367.105C276.644 369.396 273.847 371.302 270.813 372.759C267.69 374.141 264.286 374.769 260.876 374.594C257.663 374.492 254.39 374.064 251.205 374.642C249.643 374.916 248.152 375.503 246.822 376.366C245.491 377.23 244.349 378.353 243.463 379.668C241.351 382.772 240.65 386.351 240.104 389.871C239.498 393.779 238.94 397.846 236.366 401.208C236.054 401.616 236.8 402.012 237.111 401.605C241.59 395.756 240.092 388.281 243.114 381.973C244.524 379.03 246.964 376.438 250.612 375.549C253.803 374.772 257.178 375.21 260.43 375.338C263.762 375.55 267.102 375.045 270.223 373.858C273.331 372.542 276.207 370.734 278.738 368.502C284.281 363.768 289.017 358.165 292.761 351.912C296.916 345.062 299.724 337.482 301.032 329.579C301.111 329.096 300.235 329.083 300.157 329.562V329.562Z" fill="white"/>
<path d="M282.998 363.982C285.31 365.414 288.01 366.09 290.724 365.917C293.438 365.744 296.031 364.729 298.141 363.015C298.541 362.671 297.944 362.115 297.544 362.46C295.582 364.059 293.167 365.004 290.64 365.161C288.113 365.318 285.6 364.679 283.455 363.334C283.002 363.044 282.548 363.693 282.998 363.982Z" fill="white"/>
<path d="M262.495 374.832C262.046 372.391 262.119 369.882 262.709 367.471C263.299 365.059 264.394 362.8 265.921 360.842C266.231 360.434 265.485 360.038 265.175 360.445C263.59 362.486 262.457 364.839 261.848 367.349C261.24 369.859 261.17 372.47 261.645 375.009C261.738 375.492 262.588 375.312 262.495 374.832Z" fill="white"/>
<path d="M295.806 344.858C294.852 344.518 294.001 343.94 293.333 343.179C292.665 342.417 292.202 341.498 291.989 340.508C291.903 340.024 291.053 340.204 291.139 340.685C291.379 341.777 291.89 342.792 292.626 343.634C293.362 344.477 294.299 345.12 295.349 345.506C295.449 345.556 295.562 345.571 295.672 345.548C295.781 345.525 295.879 345.466 295.951 345.38C295.98 345.338 295.999 345.289 296.008 345.239C296.016 345.188 296.014 345.135 296 345.086C295.986 345.036 295.962 344.99 295.928 344.95C295.895 344.911 295.853 344.88 295.806 344.858Z" fill="white"/>
<path d="M236.735 311.23C236.779 311.533 236.823 311.837 236.862 312.144C237.429 316.219 237.613 320.338 237.413 324.448C237.404 324.765 237.388 325.087 237.368 325.404C236.734 335.402 234.008 345.155 229.366 354.034C227.477 357.658 225.296 361.123 222.845 364.394C219.429 368.958 215.307 373.671 213.869 378.797C213.713 379.328 213.594 379.87 213.514 380.418L234.403 401.875C234.478 401.903 234.548 401.936 234.624 401.964L235.413 402.854C235.555 402.691 235.697 402.52 235.838 402.357C235.921 402.263 235.998 402.164 236.081 402.07C236.134 402.006 236.188 401.941 236.24 401.886C236.258 401.865 236.275 401.843 236.288 401.826C236.34 401.771 236.382 401.714 236.429 401.663C237.228 400.707 238.022 399.744 238.808 398.775C238.814 398.771 238.814 398.771 238.815 398.762C244.788 391.364 250.103 383.467 253.868 375.122C253.982 374.871 254.101 374.616 254.204 374.355C255.868 370.613 257.184 366.728 258.138 362.746C258.646 360.584 259.029 358.394 259.284 356.188C259.929 350.494 259.537 344.729 258.129 339.174C255.317 328.043 248.436 317.817 237.571 311.691C237.293 311.534 237.019 311.382 236.735 311.23Z" fill="#F2F2F2"/>
<path d="M236.469 311.508C244.348 323.854 247.735 338.465 245.693 352.488C245.323 355.575 244.408 358.572 242.99 361.339C241.411 364.12 239.109 366.421 236.328 368C233.692 369.598 230.782 370.967 228.64 373.094C227.586 374.13 226.792 375.4 226.323 376.801C225.855 378.202 225.724 379.694 225.943 381.154C226.409 384.737 228.33 387.961 230.335 391.057C232.561 394.494 234.936 398.034 235.211 402.064C235.245 402.552 236.115 402.478 236.082 401.991C235.603 394.979 229.223 389.794 227.263 383.178C226.348 380.09 226.499 376.745 228.795 374.128C230.804 371.84 233.803 370.425 236.488 368.827C239.233 367.312 241.565 365.149 243.281 362.525C244.855 359.838 245.902 356.876 246.366 353.797C247.507 346.976 247.403 340.005 246.06 333.22C244.532 325.339 241.518 317.82 237.179 311.064C236.907 310.637 236.199 311.085 236.469 311.508Z" fill="white"/>
<path d="M246.633 347.961C252.354 347.908 257.236 344.181 258.054 339.272C258.134 338.788 257.273 338.657 257.192 339.141C256.426 343.74 251.897 347.156 246.549 347.204C245.987 347.21 246.074 347.966 246.633 347.961Z" fill="white"/>
<path d="M237.788 367.343C235.809 365.767 234.171 363.805 232.974 361.577C231.777 359.349 231.045 356.901 230.823 354.382C230.788 353.894 229.917 353.967 229.952 354.455C230.189 357.076 230.956 359.623 232.208 361.939C233.459 364.255 235.168 366.293 237.232 367.929C237.641 368.265 238.195 367.677 237.788 367.343V367.343Z" fill="white"/>
<path d="M243.601 325.995C242.544 326.209 241.453 326.188 240.404 325.933C239.356 325.677 238.378 325.194 237.538 324.517C237.133 324.176 236.58 324.764 236.981 325.103C237.912 325.847 238.994 326.38 240.152 326.664C241.309 326.949 242.515 326.979 243.685 326.751C243.918 326.706 244.101 326.559 244.079 326.337C244.058 326.23 243.997 326.135 243.908 326.071C243.819 326.007 243.71 325.98 243.601 325.995V325.995Z" fill="white"/>
<path d="M188.333 401.309C162.334 419.077 136.485 423.586 115.547 414.007C88.6771 401.714 72.4006 367.868 70.8906 321.148L72.4824 321.297C73.971 367.367 89.8626 400.668 116.082 412.664C136.459 421.986 161.75 417.506 187.297 400.048L188.333 401.309Z" fill="#F2F2F2"/>
<path d="M349 100.468C346.44 128.664 339.146 158.394 327.707 187.08C313.561 222.555 294.234 253.8 271.815 277.439L270.57 276.355C292.881 252.829 312.12 221.722 326.207 186.394C338.938 154.47 346.511 121.247 348.116 90.3332L349.705 90.5992C349.537 93.8641 349.302 97.1538 349 100.468Z" fill="#F2F2F2"/>
<path d="M279.932 60.3964L278.386 60.5656C271.495 33.4992 258.138 14.7479 239.758 6.33844C216.392 -4.35141 187.499 2.82702 158.402 26.5517C129.156 50.3975 103.266 88.0635 85.5016 132.613L84.002 131.927C101.845 87.183 127.867 49.335 157.277 25.3566C186.834 1.25706 216.316 -5.97402 240.293 4.99573C259.201 13.6461 272.907 32.8034 279.932 60.3964Z" fill="#F2F2F2"/>
<path d="M365.693 296.039C334.203 346.112 296 381.889 258.12 396.779L257.354 395.375C294.972 380.588 332.951 344.994 364.297 295.15L365.693 296.039Z" fill="#F2F2F2"/>
<path d="M414.276 183.854C413.757 189.569 413.092 195.353 412.281 201.208L410.702 200.825C416.762 157.137 414.613 117.08 404.482 84.9763L406.004 84.7217C414.84 112.726 417.648 146.718 414.276 183.854Z" fill="#F2F2F2"/>
<path d="M85.3847 140.45C81.3429 148.96 77.4985 157.777 73.9582 166.655C53.5853 217.745 43.2613 269.921 44.1049 317.546L42.5127 317.376C41.6681 269.574 52.0219 217.218 72.4586 165.969C76.0091 157.066 79.8644 148.224 83.9178 139.69L85.3847 140.45Z" fill="#F2F2F2"/>
<path d="M187.567 436.414C161.569 454.181 135.719 458.69 114.781 449.111C87.9115 436.818 71.635 402.973 70.125 356.253L71.7168 356.402C73.2054 402.471 89.097 435.773 115.316 447.769C135.693 457.091 160.984 452.611 186.531 435.152L187.567 436.414Z" fill="#F2F2F2"/>
<path d="M348.235 135.573C345.674 163.768 338.38 193.499 326.941 222.185C312.795 257.659 293.468 288.905 271.049 312.543L269.805 311.459C292.115 287.934 311.355 256.826 325.442 221.499C338.173 189.574 345.745 156.352 347.35 125.438L348.94 125.704C348.771 128.969 348.536 132.258 348.235 135.573Z" fill="#F2F2F2"/>
<path d="M345.43 97.4488L343.884 97.6181C336.993 70.5517 323.636 51.8003 305.256 43.3909C281.89 32.7011 252.997 39.8795 223.9 63.6042C194.654 87.45 168.764 125.116 151 169.666L149.5 168.98C167.343 124.236 193.365 86.3875 222.775 62.4091C252.332 38.3095 281.814 31.0785 305.791 42.0482C324.699 50.6986 338.405 69.8559 345.43 97.4488Z" fill="#F2F2F2"/>
<path d="M363.628 343.481C332.139 393.554 293.936 429.331 256.055 444.221L255.289 442.817C292.907 428.029 330.887 392.435 362.232 342.591L363.628 343.481Z" fill="#F2F2F2"/>
<path d="M413.513 218.959C412.994 224.673 412.329 230.458 411.517 236.312L409.938 235.93C415.999 192.241 413.849 152.184 403.719 120.081L405.241 119.826C414.076 147.831 416.885 181.822 413.513 218.959Z" fill="#F2F2F2"/>
<path d="M84.6191 175.554C80.5773 184.065 76.7329 192.881 73.1926 201.759C52.8197 252.849 42.4956 305.025 43.3393 352.65L41.747 352.48C40.9025 304.679 51.2563 252.323 71.6929 201.074C75.2434 192.17 79.0988 183.329 83.1522 174.794L84.6191 175.554Z" fill="#F2F2F2"/>
<path d="M389.227 150.919C390.987 148.275 389.945 144.49 386.9 142.465C383.854 140.44 379.959 140.942 378.199 143.586C376.439 146.23 377.48 150.016 380.526 152.041C383.571 154.066 387.467 153.564 389.227 150.919Z" fill="#FD6584"/>
<path d="M186.916 184.629C190.602 178.984 196.619 174.548 203.321 174.173C210.023 173.798 218.077 179.502 221.385 185.372C227.435 196.109 224.81 206.433 216.476 213.9C215.345 213.516 211.393 212.357 210.243 211.987L209.513 210.67L208.613 211.471C198.315 212.498 188.366 211.354 180.615 203.684C181.579 197.009 183.23 190.274 186.916 184.629Z" fill="#2F2E41"/>
<path d="M214.53 259.989L213.312 271.275L214.029 286.075L181.232 282.181L178.15 259.989L182.077 260.028L214.53 259.989Z" fill="#FFB6B6"/>
<path d="M201.064 211.218C208.585 211.218 214.683 205.123 214.683 197.606C214.683 190.088 208.585 183.994 201.064 183.994C193.543 183.994 187.445 190.088 187.445 197.606C187.445 205.123 193.543 211.218 201.064 211.218Z" fill="#FFB7B7"/>
<path d="M185.973 222.897L193.766 218.223L209.353 216.666L223.129 223.677L222.991 245.097L214.251 267.313L177.623 262.639L176.232 254.803C176.232 254.803 166.1 241.202 177.011 233.413L185.973 222.897Z" fill="#7903C1"/>
<path d="M195.971 176.933C198.922 176.106 202.041 176.087 205.002 176.877C207.963 177.667 210.657 179.238 212.803 181.426C214.948 183.613 216.467 186.336 217.199 189.31C217.931 192.285 217.85 195.401 216.965 198.334C208.671 198.996 200.472 198.222 194.009 192.356L193.434 187.325L191.076 191.535C188.698 190.866 186.316 190.193 183.93 189.516C184.659 186.549 186.156 183.825 188.269 181.617C190.382 179.409 193.038 177.794 195.971 176.933Z" fill="#2F2E41"/>
<path d="M139.2 159.294C138.83 160.081 138.638 160.94 138.637 161.809C138.635 162.678 138.824 163.537 139.191 164.325C139.558 165.114 140.093 165.812 140.759 166.371C141.424 166.931 142.205 167.337 143.045 167.562L168.418 215.414L178.66 207.514L150.498 162.961C150.783 161.525 150.531 160.035 149.79 158.773C149.049 157.51 147.871 156.564 146.478 156.112C145.086 155.66 143.576 155.734 142.234 156.321C140.893 156.907 139.813 157.965 139.2 159.294H139.2Z" fill="#FFB6B6"/>
<path d="M180.82 231.584C180.82 231.584 178.469 233.668 175.125 227.913C172.448 223.305 159.098 202.674 157.208 195.522C156.171 195.551 155.154 195.235 154.317 194.622C153.48 194.01 152.87 193.137 152.584 192.14L166.924 186.577C170.041 188.135 169.176 190.294 168.386 191.411L173.726 199.418L191.491 219.345L182.547 230.107L180.82 231.584Z" fill="#7903C1"/>
<path d="M423.226 479H0.773502C0.568355 479 0.371604 478.919 0.226543 478.774C0.0814826 478.629 0 478.432 0 478.227C0 478.022 0.0814826 477.825 0.226543 477.68C0.371604 477.535 0.568355 477.454 0.773502 477.454H423.226C423.432 477.454 423.628 477.535 423.773 477.68C423.919 477.825 424 478.022 424 478.227C424 478.432 423.919 478.629 423.773 478.774C423.628 478.919 423.432 479 423.226 479Z" fill="#CCCCCC"/>
<path d="M322.089 47.5175C314.464 40.0057 304.282 35.8598 294.071 33.2074C282.513 30.205 270.561 28.4364 258.753 26.7395C246.447 24.9711 234.092 23.6072 221.689 22.6476C209.302 21.693 196.893 21.1466 184.461 21.0083C173.384 20.8843 162.232 20.8805 151.209 22.1089C140.826 23.2658 130.468 25.5876 121.108 30.3541C112.775 34.5057 105.775 40.9099 100.902 48.8391C96.4225 56.2197 93.759 65.0672 94.6852 73.7429C95.1195 78.015 96.4503 82.1475 98.5907 85.8707C101.1 89.9852 104.297 93.6383 108.043 96.6708C115.778 103.199 125.025 107.97 131.678 115.729C133.435 117.761 134.97 119.975 136.257 122.333C137.223 124.122 138.309 125.661 140.106 126.704C141.71 127.619 143.55 128.039 145.392 127.911C147.235 127.782 148.998 127.112 150.459 125.983C152.532 124.357 154.02 121.851 155.624 119.788L161.217 112.594C161.621 111.949 162.09 111.347 162.615 110.796C162.992 110.484 162.37 110.759 162.493 110.681C162.561 110.638 162.68 110.662 162.755 110.632C163.127 110.525 163.509 110.454 163.895 110.42C167.979 109.669 172.071 108.968 176.172 108.314C191.315 105.872 206.556 103.857 221.861 102.772C229.749 102.142 237.667 101.953 245.576 102.206C255.804 102.625 265.891 104.655 276.081 105.53C287.052 106.473 298.576 106.343 308.914 102.114C317.189 98.73 324.872 93.0362 329.352 85.1719C331.477 81.4524 332.737 77.3018 333.036 73.0287C333.583 63.3363 328.868 54.1965 322.089 47.5175Z" fill="#E6E6E6"/>
<path d="M178.363 28.9521C176.412 28.9521 174.462 28.9625 172.513 28.9831C153.801 29.1816 134.463 30.6937 119.788 40.3341C106.762 48.8912 97.6329 67.9518 105.359 81.6213C108.906 87.8981 115.334 92.4671 122.139 97.3038C124.806 99.2 127.565 101.161 130.209 103.272C135.983 107.885 141.421 114.075 144.55 121.035L158.29 103.361L160.886 102.864C163.384 102.386 222.414 91.1985 253.852 94.8307C256.744 95.1648 259.666 95.5493 262.493 95.9209C275.264 97.6005 287.327 99.1859 298.908 96.8448C310.998 94.3995 324.273 85.0667 325.064 72.5864C325.605 64.0422 320.043 54.6691 310.896 48.7072C301.647 42.6792 290.111 40.1904 279.088 38.1577C245.862 32.0385 212.148 28.9572 178.363 28.9521Z" fill="white"/>
<path d="M284.999 56.1473H152.303C151.537 56.1473 150.803 55.8433 150.262 55.3021C149.72 54.7609 149.416 54.0269 149.416 53.2615C149.416 52.4962 149.72 51.7622 150.262 51.221C150.803 50.6798 151.537 50.3758 152.303 50.3758H284.999C285.765 50.3758 286.499 50.6798 287.04 51.221C287.582 51.7622 287.886 52.4962 287.886 53.2615C287.886 54.0269 287.582 54.7609 287.04 55.3021C286.499 55.8433 285.765 56.1473 284.999 56.1473Z" fill="#7903C1"/>
<path d="M284.999 73.8605H152.303C151.537 73.8605 150.803 73.5564 150.262 73.0152C149.72 72.4741 149.416 71.74 149.416 70.9747C149.416 70.2093 149.72 69.4753 150.262 68.9342C150.803 68.393 151.537 68.0889 152.303 68.0889H284.999C285.765 68.0889 286.499 68.393 287.04 68.9342C287.582 69.4753 287.886 70.2093 287.886 70.9747C287.886 71.74 287.582 72.4741 287.04 73.0152C286.499 73.5564 285.765 73.8605 284.999 73.8605Z" fill="#7903C1"/>
<path d="M167.767 91.5732H152.303C151.537 91.5732 150.803 91.2691 150.262 90.7279C149.72 90.1868 149.416 89.4528 149.416 88.6874C149.416 87.9221 149.72 87.188 150.262 86.6469C150.803 86.1057 151.537 85.8016 152.303 85.8016H167.767C168.533 85.8016 169.267 86.1057 169.808 86.6469C170.35 87.188 170.654 87.9221 170.654 88.6874C170.654 89.4528 170.35 90.1868 169.808 90.7279C169.267 91.2691 168.533 91.5732 167.767 91.5732Z" fill="#7903C1"/>
<path d="M143.791 160.792C150.568 160.792 156.062 155.301 156.062 148.527C156.062 141.753 150.568 136.261 143.791 136.261C137.014 136.261 131.52 141.753 131.52 148.527C131.52 155.301 137.014 160.792 143.791 160.792Z" fill="#E6E6E6"/>
<path d="M108.086 299.355C109.846 296.71 108.804 292.925 105.759 290.9C102.714 288.875 98.8182 289.377 97.0581 292.021C95.298 294.666 96.3398 298.451 99.385 300.476C102.43 302.501 106.326 301.999 108.086 299.355Z" fill="#F2F2F2"/>
<path d="M371.383 298.52C373.143 295.876 372.101 292.09 369.056 290.065C366.011 288.04 362.115 288.542 360.355 291.187C358.595 293.831 359.637 297.616 362.682 299.641C365.727 301.666 369.623 301.164 371.383 298.52Z" fill="#E6E6E6"/>
<path d="M271.988 203.07C273.749 200.426 272.707 196.641 269.661 194.616C266.616 192.591 262.721 193.093 260.96 195.737C259.2 198.381 260.242 202.166 263.287 204.192C266.333 206.217 270.228 205.715 271.988 203.07Z" fill="#E6E6E6"/>
<path d="M231.542 464.897H224.371L220.959 437.253H231.542V464.897Z" fill="#FFB6B6"/>
<path d="M235.326 477.315H230.184L229.266 472.462L226.915 477.315H213.277C212.623 477.315 211.986 477.106 211.46 476.719C210.933 476.331 210.544 475.786 210.35 475.162C210.155 474.539 210.165 473.869 210.379 473.251C210.592 472.633 210.997 472.1 211.535 471.729L222.426 464.211V459.305L233.882 459.988L235.326 477.315Z" fill="#2F2E41"/>
<path d="M191.264 464.897H184.094L180.682 437.253H191.264V464.897Z" fill="#FFB6B6"/>
<path d="M195.049 477.315H189.907L188.989 472.462L186.638 477.315H173C172.346 477.315 171.709 477.106 171.183 476.719C170.656 476.331 170.267 475.786 170.073 475.162C169.878 474.539 169.888 473.869 170.101 473.251C170.314 472.633 170.719 472.1 171.257 471.729L182.149 464.211V459.305L193.604 459.988L195.049 477.315Z" fill="#2F2E41"/>
<path d="M234.635 441.058H234.557L233.178 396.11C234.07 394.39 234.523 392.475 234.496 390.538C234.469 388.6 233.963 386.699 233.024 385.004L232.826 384.646L233.338 382.275C233.996 379.227 233.694 376.051 232.474 373.182L231.188 331.254C235.784 301.482 213.88 282.066 213.88 282.066H181.069L174.024 306.257C169.367 351.606 170.212 395.797 177.602 438.61L177.401 438.712C176.675 438.962 176.364 439.967 176.706 440.956C177.047 441.944 177.912 442.543 178.637 442.293L195.966 441.69C196.691 441.44 197.002 440.436 196.661 439.447C196.319 438.458 195.455 437.859 194.729 438.11L193.551 438.705L196.064 395.332L195.785 387.41L196.359 378.422L199.015 337.995L209.069 387.709L219.339 441.559C219.055 441.815 218.857 442.151 218.769 442.523C218.68 442.894 218.707 443.284 218.845 443.64C218.983 443.996 219.226 444.302 219.541 444.518C219.857 444.733 220.23 444.848 220.613 444.846H234.635C235.137 444.846 235.619 444.647 235.975 444.292C236.33 443.936 236.53 443.455 236.53 442.952C236.53 442.45 236.33 441.968 235.975 441.613C235.619 441.258 235.137 441.058 234.635 441.058H234.635Z" fill="#2F2E41"/>
<path d="M219.332 315.38C220.073 314.924 220.704 314.311 221.182 313.585C221.66 312.859 221.973 312.037 222.099 311.177C222.225 310.316 222.16 309.439 221.91 308.607C221.66 307.774 221.23 307.006 220.651 306.358L225.677 252.434L212.778 253.43L211.894 306.122C210.869 307.167 210.262 308.551 210.189 310.013C210.116 311.474 210.582 312.912 211.499 314.053C212.416 315.194 213.72 315.96 215.164 316.204C216.607 316.449 218.091 316.155 219.332 315.38V315.38Z" fill="#FFB6B6"/>
<path d="M222.651 223.892C222.651 223.892 225.761 223.437 225.401 230.083C225.112 235.403 226.483 268.196 224.141 275.213C225.024 275.757 225.702 276.579 226.066 277.549C226.43 278.52 226.461 279.585 226.154 280.575L211.109 277.37C209.357 274.359 209.72 271.267 210.994 270.766L210.919 261.143L207.594 229.423L220.398 224.181L222.651 223.892Z" fill="#7903C1"/>
</g>
<defs>
<clipPath id="clip0_91_872">
<rect width="424" height="479" fill="white"/>
</clipPath>
</defs>
</svg>
