<svg width="447" height="390" viewBox="0 0 447 390" fill="none" xmlns="http://www.w3.org/2000/svg">
<g clip-path="url(#clip0_216_1147)">
<path d="M310.393 79.1225C279.407 75.1929 244.121 73.096 207.372 73.096C173.74 73.096 141.339 74.8495 112.34 78.1559C112.347 77.802 112.353 77.4482 112.373 77.0943C113.142 56.5534 123.991 37.0663 142.601 22.798C161.212 8.52974 186.108 0.612257 211.967 0.737799C237.827 0.863341 262.599 9.02196 280.988 23.4699C299.378 37.9178 309.927 57.5088 310.38 78.0556C310.387 78.4147 310.393 78.7686 310.393 79.1225Z" fill="#7903C1"/>
<g opacity="0.1">
<path d="M224.355 0.708453C210.601 -0.767822 196.61 0.0688875 183.29 3.16435C169.969 6.25981 157.615 11.545 147.029 18.6772C136.443 25.8095 127.862 34.6298 121.84 44.5664C115.818 54.503 112.491 65.3342 112.074 76.358C112.054 76.7119 112.048 77.0658 112.041 77.4196C120.656 76.4373 129.578 75.5956 138.737 74.8927C139.857 56.5275 149.033 39.0535 164.672 25.5028C180.311 11.9521 201.427 3.17994 224.355 0.708453Z" fill="white"/>
</g>
<path d="M353.715 85.3655C339.451 82.2928 324.984 79.8524 310.38 78.0556C286.443 75.1079 262.311 73.265 238.105 72.5361C228.022 72.2087 217.754 72.0397 207.372 72.0397C199.143 72.0397 190.981 72.1453 182.932 72.3566C159.321 72.9109 135.766 74.4925 112.373 77.0943C95.0558 78.9892 77.9068 81.7517 61.0283 85.3655C21.6742 94.0117 0 105.6 0 117.991C0 130.382 21.6742 141.97 61.0283 150.616C88.7045 156.701 122.828 160.847 160.009 162.748C175.355 163.54 191.221 163.942 207.372 163.942C223.576 163.942 239.494 163.535 254.888 162.743C288.725 161.005 320.03 157.408 346.231 152.179C346.371 152.148 346.504 152.121 346.643 152.095C348.411 151.746 350.152 151.382 351.874 151.017C352.492 150.88 353.103 150.748 353.715 150.616C353.749 150.605 353.785 150.596 353.821 150.59C354.406 150.463 354.984 150.331 355.563 150.204C356.719 149.94 357.862 149.681 358.986 149.412C359.039 149.401 359.085 149.391 359.132 149.38C360.109 149.148 361.066 148.915 362.016 148.683C362.794 148.487 363.565 148.297 364.329 148.102C364.888 147.959 365.44 147.817 365.985 147.674C366.383 147.568 366.775 147.468 367.161 147.362C367.686 147.225 368.211 147.083 368.729 146.94C368.949 146.882 369.168 146.824 369.381 146.76C369.879 146.628 370.365 146.491 370.85 146.354C371.375 146.206 371.9 146.053 372.418 145.905C372.85 145.783 373.282 145.656 373.708 145.53C374.066 145.419 374.419 145.313 374.778 145.208C375.755 144.917 376.712 144.616 377.656 144.32C378.128 144.167 378.6 144.019 379.065 143.866C379.523 143.718 379.989 143.565 380.441 143.412C381.185 143.163 381.916 142.915 382.634 142.667C382.98 142.54 383.332 142.419 383.671 142.303C383.93 142.208 384.183 142.118 384.442 142.023C384.628 141.959 384.814 141.891 384.994 141.822C385.665 141.579 386.329 141.331 386.981 141.083C389.48 140.132 391.813 139.16 393.979 138.167C407.572 131.982 414.743 125.121 414.743 117.991C414.743 105.6 393.069 94.0117 353.715 85.3655ZM353.356 149.602C325.647 155.692 291.431 159.838 254.15 161.724C238.989 162.489 223.317 162.885 207.372 162.885C191.48 162.885 175.86 162.495 160.746 161.729C123.406 159.848 89.1365 155.702 61.3872 149.602C22.6579 141.088 1.32931 129.864 1.32931 117.991C1.33147 116.942 1.49672 115.897 1.8213 114.88C5.21077 104.168 26.061 94.1437 61.3872 86.3796C78.1382 82.794 95.1557 80.0474 112.34 78.1559C135.874 75.5394 159.571 73.9525 183.324 73.4024C191.247 73.1964 199.263 73.0943 207.372 73.096C217.614 73.096 227.743 73.2597 237.7 73.5767C262.046 74.299 286.318 76.1508 310.393 79.1225C324.871 80.9113 339.214 83.334 353.356 86.3796C388.676 94.1437 409.519 104.163 412.916 114.869C413.245 115.889 413.413 116.938 413.414 117.991C413.414 129.864 392.085 141.088 353.356 149.602Z" fill="#3F3D56"/>
<path d="M414.365 118.471C414.365 125.528 407.047 132.204 393.98 138.167C391.807 139.16 389.467 140.132 386.981 141.082C386.33 141.331 385.665 141.579 384.994 141.822C384.815 141.891 384.629 141.959 384.443 142.023C384.183 142.118 383.931 142.207 383.671 142.303C383.333 142.419 382.98 142.54 382.635 142.667C381.917 142.915 381.186 143.163 380.441 143.412C379.989 143.565 379.524 143.718 379.065 143.866C378.6 144.019 378.128 144.167 377.656 144.32C376.713 144.616 375.755 144.917 374.779 145.207C374.42 145.313 374.067 145.419 373.708 145.53C373.283 145.656 372.851 145.783 372.419 145.905C371.901 146.053 371.375 146.206 370.85 146.354C370.365 146.491 369.88 146.628 369.381 146.76C369.169 146.824 368.949 146.882 368.73 146.94C368.212 147.082 367.687 147.225 367.162 147.362C366.776 147.468 366.384 147.568 365.985 147.674C365.44 147.817 364.888 147.959 364.33 148.102C363.566 148.297 362.795 148.487 362.017 148.683C361.067 148.915 360.109 149.148 359.133 149.38C359.086 149.391 359.039 149.401 358.986 149.412C357.863 149.681 356.72 149.94 355.563 150.204C354.985 150.331 354.407 150.463 353.822 150.59C353.786 150.596 353.75 150.605 353.716 150.616C353.104 150.748 352.492 150.88 351.875 151.017C350.16 151.377 348.412 151.741 346.644 152.095C346.504 152.121 346.371 152.148 346.232 152.179C320.742 157.239 289.47 160.926 254.862 162.706C239.701 163.482 223.895 163.894 207.658 163.894C191.275 163.894 175.336 163.477 160.056 162.685C68.8386 157.958 0.951172 139.957 0.951172 118.471C0.958354 117.164 1.20913 115.865 1.69534 114.616C1.73526 114.705 1.77517 114.79 1.82191 114.88C11.3062 134.676 78.6159 150.674 165.951 154.577C179.331 155.179 193.189 155.491 207.372 155.491C221.616 155.491 235.527 155.174 248.96 154.572C336.222 150.653 403.465 134.649 412.916 114.869C413.076 114.552 413.215 114.235 413.335 113.918C414.009 115.377 414.357 116.918 414.365 118.471Z" fill="#3F3D56"/>
<path d="M60.9274 112.786C49.8657 112.786 38.1094 110.895 38.1094 107.39C38.1094 103.885 49.8658 101.994 60.9274 101.994C71.989 101.994 83.7454 103.885 83.7454 107.39C83.7454 110.895 71.989 112.786 60.9274 112.786ZM60.9274 103.05C48.2637 103.05 39.4387 105.337 39.4387 107.39C39.4387 109.442 48.2637 111.73 60.9274 111.73C73.591 111.73 82.416 109.442 82.416 107.39C82.416 105.337 73.591 103.05 60.9274 103.05Z" fill="#3F3D56"/>
<path d="M108.119 137.61C97.0572 137.61 85.3008 135.719 85.3008 132.214C85.3008 128.709 97.0572 126.818 108.119 126.818C119.18 126.818 130.937 128.709 130.937 132.214C130.937 135.719 119.18 137.61 108.119 137.61ZM108.119 127.874C95.4552 127.874 86.6301 130.161 86.6301 132.214C86.6301 134.267 95.4552 136.554 108.119 136.554C120.782 136.554 129.607 134.267 129.607 132.214C129.607 130.161 120.782 127.874 108.119 127.874Z" fill="#3F3D56"/>
<path d="M353.375 112.786C342.313 112.786 330.557 110.895 330.557 107.39C330.557 103.885 342.313 101.994 353.375 101.994C364.436 101.994 376.193 103.885 376.193 107.39C376.193 110.895 364.436 112.786 353.375 112.786ZM353.375 103.05C340.711 103.05 331.886 105.337 331.886 107.39C331.886 109.442 340.711 111.73 353.375 111.73C366.038 111.73 374.863 109.442 374.863 107.39C374.863 105.337 366.038 103.05 353.375 103.05Z" fill="#3F3D56"/>
<path d="M306.185 137.61C295.124 137.61 283.367 135.719 283.367 132.214C283.367 128.709 295.124 126.818 306.185 126.818C317.247 126.818 329.003 128.709 329.003 132.214C329.003 135.719 317.247 137.61 306.185 137.61ZM306.185 127.874C293.521 127.874 284.696 130.161 284.696 132.214C284.696 134.267 293.521 136.554 306.185 136.554C318.849 136.554 327.674 134.267 327.674 132.214C327.674 130.161 318.849 127.874 306.185 127.874Z" fill="#3F3D56"/>
<path d="M207.152 149.23C196.09 149.23 184.334 147.339 184.334 143.834C184.334 140.329 196.09 138.438 207.152 138.438C218.214 138.438 229.97 140.329 229.97 143.834C229.97 147.339 218.214 149.23 207.152 149.23ZM207.152 139.494C194.488 139.494 185.663 141.781 185.663 143.834C185.663 145.886 194.488 148.174 207.152 148.174C219.816 148.174 228.641 145.886 228.641 143.834C228.641 141.781 219.816 139.494 207.152 139.494Z" fill="#3F3D56"/>
<path d="M223.972 260.24C239.394 260.24 251.896 250.305 251.896 238.05C251.896 225.795 239.394 215.86 223.972 215.86C208.551 215.86 196.049 225.795 196.049 238.05C196.049 250.305 208.551 260.24 223.972 260.24Z" fill="#2F2E41"/>
<path d="M213.356 252.629L199.766 258.037L203.564 264.065L217.154 258.656L213.356 252.629Z" fill="#2F2E41"/>
<path d="M205.355 263.453C206.161 262.482 204.172 260.31 200.912 258.602C197.653 256.894 194.357 256.297 193.551 257.268C192.745 258.24 194.734 260.412 197.994 262.119C201.253 263.827 204.549 264.424 205.355 263.453Z" fill="#2F2E41"/>
<path d="M234.592 252.629L230.793 258.656L244.383 264.065L248.182 258.037L234.592 252.629Z" fill="#2F2E41"/>
<path d="M249.953 262.119C253.213 260.412 255.202 258.24 254.396 257.268C253.59 256.297 250.294 256.894 247.035 258.602C243.775 260.31 241.786 262.482 242.592 263.453C243.398 264.424 246.694 263.827 249.953 262.119Z" fill="#2F2E41"/>
<path d="M222.018 240.206C227.289 240.206 231.562 236.811 231.562 232.622C231.562 228.434 227.289 225.038 222.018 225.038C216.747 225.038 212.475 228.434 212.475 232.622C212.475 236.811 216.747 240.206 222.018 240.206Z" fill="white"/>
<path d="M224.34 231.168C225.577 230.185 225.57 228.586 224.324 227.596C223.078 226.606 221.065 226.6 219.828 227.583C218.591 228.566 218.598 230.166 219.844 231.156C221.09 232.146 223.103 232.151 224.34 231.168Z" fill="#3F3D56"/>
<path d="M246.001 213.91C246.421 205.695 237.511 198.737 226.101 198.368C214.69 198 205.1 204.361 204.68 212.576C204.26 220.791 212.192 222.658 223.602 223.026C235.013 223.394 245.581 222.125 246.001 213.91Z" fill="#7903C1"/>
<path d="M262.096 249.669C263.933 248.416 261.35 243.631 256.328 238.982C251.305 234.333 245.744 231.58 243.908 232.833C242.071 234.086 244.654 238.87 249.676 243.52C254.699 248.169 260.26 250.922 262.096 249.669Z" fill="#2F2E41"/>
<path d="M198.347 243.52C203.37 238.87 205.953 234.086 204.116 232.833C202.279 231.58 196.719 234.333 191.696 238.982C186.673 243.631 184.091 248.416 185.927 249.669C187.764 250.922 193.325 248.169 198.347 243.52Z" fill="#2F2E41"/>
<path d="M231.642 246.795C231.944 248.114 231.574 249.474 230.614 250.577C229.654 251.68 228.182 252.434 226.522 252.674C224.862 252.914 223.15 252.621 221.762 251.858C220.374 251.095 219.425 249.925 219.123 248.606L219.121 248.596C218.495 245.848 221.168 244.876 224.626 244.379C228.083 243.881 231.016 244.047 231.642 246.795Z" fill="white"/>
<path d="M176.798 261.654C176.446 261.654 176.107 261.543 175.858 261.345C175.609 261.146 175.469 260.878 175.469 260.598V198.273C175.469 197.993 175.609 197.724 175.858 197.526C176.107 197.328 176.446 197.217 176.798 197.217C177.151 197.217 177.489 197.328 177.738 197.526C177.987 197.724 178.127 197.993 178.127 198.273V260.598C178.127 260.878 177.987 261.146 177.738 261.345C177.489 261.543 177.151 261.654 176.798 261.654Z" fill="#CCCCCC"/>
<path d="M156.859 317.64C156.506 317.64 156.168 317.529 155.919 317.331C155.669 317.133 155.529 316.864 155.529 316.584V271.161C155.529 270.881 155.669 270.612 155.919 270.414C156.168 270.216 156.506 270.105 156.859 270.105C157.211 270.105 157.549 270.216 157.799 270.414C158.048 270.612 158.188 270.881 158.188 271.161V316.584C158.188 316.864 158.048 317.133 157.799 317.331C157.549 317.529 157.211 317.64 156.859 317.64Z" fill="#CCCCCC"/>
<path d="M208.036 280.14C207.684 280.14 207.346 280.029 207.096 279.831C206.847 279.632 206.707 279.364 206.707 279.084V216.759C206.707 216.479 206.847 216.21 207.096 216.012C207.346 215.814 207.684 215.703 208.036 215.703C208.389 215.703 208.727 215.814 208.976 216.012C209.226 216.21 209.366 216.479 209.366 216.759V279.084C209.366 279.364 209.226 279.632 208.976 279.831C208.727 280.029 208.389 280.14 208.036 280.14Z" fill="#CCCCCC"/>
<path d="M188.761 325.035C188.408 325.035 188.07 324.923 187.821 324.725C187.572 324.527 187.432 324.259 187.432 323.978V298.626C187.432 298.346 187.572 298.077 187.821 297.879C188.07 297.681 188.408 297.57 188.761 297.57C189.114 297.57 189.452 297.681 189.701 297.879C189.95 298.077 190.09 298.346 190.09 298.626V323.978C190.09 324.259 189.95 324.527 189.701 324.725C189.452 324.923 189.113 325.035 188.761 325.035Z" fill="#CCCCCC"/>
<path d="M216.013 195.104C215.66 195.104 215.322 194.993 215.073 194.795C214.824 194.597 214.684 194.328 214.684 194.048V168.695C214.684 168.415 214.824 168.147 215.073 167.948C215.322 167.75 215.66 167.639 216.013 167.639C216.365 167.639 216.704 167.75 216.953 167.948C217.202 168.147 217.342 168.415 217.342 168.695V194.048C217.342 194.328 217.202 194.597 216.953 194.795C216.704 194.993 216.365 195.104 216.013 195.104Z" fill="#CCCCCC"/>
<path d="M149.546 206.196C149.194 206.196 148.855 206.084 148.606 205.886C148.357 205.688 148.217 205.42 148.217 205.139V179.787C148.217 179.507 148.357 179.238 148.606 179.04C148.855 178.842 149.194 178.731 149.546 178.731C149.899 178.731 150.237 178.842 150.486 179.04C150.735 179.238 150.875 179.507 150.875 179.787V205.139C150.875 205.42 150.735 205.688 150.486 205.886C150.237 206.084 149.899 206.196 149.546 206.196Z" fill="#CCCCCC"/>
<path d="M265.196 208.837C264.844 208.837 264.506 208.725 264.257 208.527C264.007 208.329 263.867 208.06 263.867 207.78V182.428C263.867 182.148 264.007 181.879 264.257 181.681C264.506 181.483 264.844 181.372 265.196 181.372C265.549 181.372 265.887 181.483 266.136 181.681C266.386 181.879 266.526 182.148 266.526 182.428V207.78C266.526 208.06 266.386 208.329 266.136 208.527C265.887 208.725 265.549 208.837 265.196 208.837Z" fill="#CCCCCC"/>
<path d="M262.538 288.063C262.186 288.063 261.848 287.951 261.598 287.753C261.349 287.555 261.209 287.286 261.209 287.006V256.372C261.209 256.092 261.349 255.823 261.598 255.625C261.848 255.427 262.186 255.316 262.538 255.316C262.891 255.316 263.229 255.427 263.478 255.625C263.728 255.823 263.868 256.092 263.868 256.372V287.006C263.868 287.286 263.728 287.555 263.478 287.753C263.229 287.951 262.891 288.063 262.538 288.063Z" fill="#CCCCCC"/>
<path d="M235.952 314.999C235.6 314.999 235.262 314.888 235.012 314.69C234.763 314.492 234.623 314.223 234.623 313.943V268.52C234.623 268.24 234.763 267.971 235.012 267.773C235.262 267.575 235.6 267.464 235.952 267.464C236.305 267.464 236.643 267.575 236.892 267.773C237.142 267.971 237.282 268.24 237.282 268.52V313.943C237.282 314.223 237.142 314.492 236.892 314.69C236.643 314.888 236.305 314.999 235.952 314.999Z" fill="#CCCCCC"/>
<path d="M241.269 237.358C240.916 237.358 240.578 237.247 240.329 237.049C240.08 236.85 239.939 236.582 239.939 236.302V173.977C239.939 173.697 240.079 173.428 240.329 173.23C240.578 173.032 240.916 172.921 241.269 172.921C241.621 172.921 241.959 173.032 242.209 173.23C242.458 173.428 242.598 173.697 242.598 173.977V236.302C242.598 236.582 242.458 236.85 242.209 237.049C241.959 237.247 241.621 237.358 241.269 237.358Z" fill="#CCCCCC"/>
<path d="M404.237 369.981C406.14 368.715 403.569 363.784 398.494 358.968C393.42 354.152 387.764 351.274 385.861 352.54C383.958 353.806 386.53 358.736 391.604 363.552C396.678 368.368 402.335 371.247 404.237 369.981Z" fill="#2F2E41"/>
<path d="M391.76 364.504C396.759 352.586 388.654 339.704 373.656 335.731C358.659 331.758 342.448 338.199 337.448 350.117C332.449 362.035 340.555 374.918 355.552 378.89C370.55 382.863 386.761 376.422 391.76 364.504Z" fill="#2F2E41"/>
<path d="M376.72 375.163H368.023V387.544H376.72V375.163Z" fill="#2F2E41"/>
<path d="M359.327 375.163H350.631V387.544H359.327V375.163Z" fill="#2F2E41"/>
<path d="M369.473 389.847C373.476 389.847 376.72 388.881 376.72 387.688C376.72 386.495 373.476 385.528 369.473 385.528C365.471 385.528 362.227 386.495 362.227 387.688C362.227 388.881 365.471 389.847 369.473 389.847Z" fill="#2F2E41"/>
<path d="M352.081 389.559C356.083 389.559 359.328 388.593 359.328 387.4C359.328 386.207 356.083 385.24 352.081 385.24C348.078 385.24 344.834 386.207 344.834 387.4C344.834 388.593 348.078 389.559 352.081 389.559Z" fill="#2F2E41"/>
<path d="M355.616 328.717C358.172 320.537 369.454 315.723 380.816 317.965C392.178 320.207 399.316 328.656 396.76 336.836C394.204 345.015 385.724 345.042 374.363 342.8C363.001 340.558 353.06 336.897 355.616 328.717Z" fill="#CCCCCC"/>
<path d="M345.295 351.63C346.358 349.848 341.43 346.222 334.288 343.53C327.146 340.838 320.495 340.1 319.431 341.882C318.368 343.664 323.296 347.29 330.438 349.982C337.58 352.674 344.231 353.411 345.295 351.63Z" fill="#2F2E41"/>
<path d="M360.325 360.095C365.595 360.095 369.868 356.699 369.868 352.511C369.868 348.322 365.595 344.927 360.325 344.927C355.054 344.927 350.781 348.322 350.781 352.511C350.781 356.699 355.054 360.095 360.325 360.095Z" fill="white"/>
<path d="M356.402 352.32C358.159 352.32 359.583 351.188 359.583 349.792C359.583 348.396 358.159 347.264 356.402 347.264C354.645 347.264 353.221 348.396 353.221 349.792C353.221 351.188 354.645 352.32 356.402 352.32Z" fill="#3F3D56"/>
<path d="M360.242 371.514C362.444 371.514 364.23 370.095 364.23 368.345C364.23 366.595 362.444 365.176 360.242 365.176C358.039 365.176 356.254 366.595 356.254 368.345C356.254 370.095 358.039 371.514 360.242 371.514Z" fill="white"/>
<path d="M446.335 390H289.477C289.301 390 289.132 389.944 289.007 389.845C288.883 389.746 288.812 389.612 288.812 389.472C288.812 389.332 288.883 389.197 289.007 389.098C289.132 388.999 289.301 388.944 289.477 388.944H446.335C446.512 388.944 446.681 388.999 446.805 389.098C446.93 389.197 447 389.332 447 389.472C447 389.612 446.93 389.746 446.805 389.845C446.681 389.944 446.512 390 446.335 390Z" fill="#3F3D56"/>
</g>
<defs>
<clipPath id="clip0_216_1147">
<rect width="447" height="390" fill="white"/>
</clipPath>
</defs>
</svg>
