<svg width="603" height="452" viewBox="0 0 603 452" fill="none" xmlns="http://www.w3.org/2000/svg">
<g clip-path="url(#clip0_91_632)">
<path d="M467.393 74.9564C466.272 72.5928 461.422 75.1236 460.53 72.9785C459.641 70.8411 464.148 67.5845 466.723 60.1449C467.187 58.8033 470.113 50.3488 467.947 47.74C463.841 42.7952 445.052 63.2014 438.477 56.5235C437.034 55.058 436.026 52.1324 431.658 47.3824C429.921 45.4928 428.87 44.6396 427.854 44.957C426.411 45.4074 426.297 47.8213 424.75 52.5676C422.43 59.6857 421.057 59.2559 419.706 64.9349C418.702 69.1507 418.931 71.6018 417.75 72.0793C416.079 72.755 414.541 68.2834 412.424 68.6837C410.263 69.0924 408.956 74.2988 408.544 78.197C407.769 85.5123 409.918 90.3394 411.109 95.4151C412.403 100.931 413.172 109.32 410.183 121.195L380.598 225.404C387.129 204.02 406.041 145.403 413.987 123.62C416.281 117.332 418.814 110.954 424.015 108.437C429.023 106.013 435.899 107.46 444.667 104.82C445.691 104.511 448.532 103.608 448.89 101.518C449.185 99.791 447.514 98.8269 447.771 97.2091C448.115 95.0391 451.402 95.0125 455.441 92.509C458.289 90.7436 460.063 88.6441 461.589 86.8386C462.048 86.2943 468.886 78.1029 467.394 74.9564H467.393V74.9564Z" fill="#F2F2F2"/>
<path d="M350.997 129.816C349.746 129.822 349.34 133.529 348.241 133.457C347.145 133.386 347.167 129.681 344.989 125.954C344.596 125.282 342.122 121.047 340.472 121.624C337.346 122.716 339.936 140.133 335.418 142.241C334.426 142.703 332.986 142.478 329.861 143.787C328.618 144.308 327.98 144.706 327.811 145.422C327.572 146.437 328.487 147.204 329.904 149.522C332.029 153 331.464 153.718 333.304 156.186C334.669 158.018 335.698 158.584 335.544 159.447C335.327 160.667 333.128 160.32 332.674 161.735C332.211 163.179 333.878 165.483 335.29 166.861C337.938 169.447 340.453 169.521 342.79 170.255C345.328 171.052 348.843 173.001 352.643 178.262L385.019 226.482C378.508 216.305 360.952 187.788 354.693 176.627C352.886 173.405 351.113 170.01 351.626 166.093C352.119 162.321 354.671 158.519 356.164 152.378C356.339 151.66 356.804 149.656 356.087 148.834C355.494 148.154 354.633 148.901 354.072 148.277C353.319 147.44 354.257 145.415 354.44 142.215C354.568 139.958 354.256 138.264 353.987 136.806C353.906 136.367 352.663 129.808 350.998 129.816V129.816H350.997Z" fill="#F2F2F2"/>
<path d="M375.965 136.823L375.211 128.408L375.555 127.77C377.15 124.82 377.962 121.94 377.972 119.205C377.973 118.771 377.957 118.336 377.941 117.893C377.876 116.138 377.795 113.956 378.705 111.412C379.215 109.994 380.648 106.711 382.803 107.118C383.383 107.219 383.822 107.553 384.155 107.943C384.204 107.845 384.254 107.748 384.308 107.642C384.979 106.362 385.51 105.814 386.022 105.285C386.415 104.879 386.821 104.461 387.458 103.469C387.738 103.034 387.956 102.653 388.139 102.332C388.697 101.361 389.425 100.203 390.708 100.223C392.08 100.304 392.798 101.722 393.274 102.661C394.124 104.335 394.509 105.541 394.764 106.342C394.857 106.634 394.963 106.963 395.016 107.065C395.458 107.878 399.051 107.118 400.405 106.841C403.445 106.208 406.076 105.659 407.16 108.056C407.937 109.771 407.36 112.038 405.393 114.976C404.781 115.89 404.129 116.585 403.551 117.129C404.03 117.487 404.459 118.035 404.633 118.897C405.042 120.936 403.64 122.98 400.467 124.979C399.678 125.479 398.617 126.145 397.13 126.466C396.43 126.616 395.8 126.653 395.26 126.673C395.249 127.063 395.176 127.486 394.985 127.921C394.428 129.2 393.268 129.81 391.519 129.664C389.595 129.538 388.011 129.078 386.614 128.676C385.393 128.327 384.342 128.03 383.516 128.099C381.986 128.254 380.806 129.785 379.421 131.772L375.965 136.823H375.965Z" fill="#F2F2F2"/>
<path d="M379.461 86.7225L373.142 89.7687L372.561 89.5139C369.874 88.3343 367.439 88.0825 365.321 88.7643C364.984 88.8726 364.652 89.0025 364.314 89.1345C362.972 89.6583 361.304 90.31 359.106 89.8547C357.879 89.5974 354.976 88.6968 354.743 85.9881C354.675 85.2608 354.821 84.6457 355.039 84.144C354.951 84.1098 354.863 84.0736 354.767 84.0355C353.607 83.5486 353.048 83.0451 352.509 82.5601C352.095 82.1876 351.668 81.8025 350.739 81.2836C350.332 81.0559 349.981 80.8895 349.686 80.7489C348.794 80.3212 347.713 79.7345 347.403 78.1769C347.118 76.4978 348.033 75.2696 348.639 74.4557C349.718 73.0034 350.554 72.2316 351.109 71.72C351.312 71.5338 351.54 71.3226 351.605 71.232C352.121 70.4914 350.622 66.3393 350.065 64.7725C348.803 61.2567 347.712 58.2144 349.291 56.2956C350.421 54.9214 352.322 55.0439 355.093 56.6765C355.956 57.1855 356.659 57.7973 357.227 58.3587C357.382 57.6884 357.697 57.0304 358.32 56.6017C359.794 55.5892 361.731 56.7666 364.083 60.0973C364.669 60.9236 365.454 62.0378 366.08 63.7544C366.373 64.5632 366.562 65.3164 366.714 65.9637C367.019 65.8785 367.364 65.8598 367.749 65.9794C368.881 66.3288 369.647 67.5772 369.977 69.7288C370.367 72.0874 370.414 74.1197 370.457 75.9118C370.497 77.4762 370.534 78.8228 370.797 79.8035C371.304 81.6154 372.789 82.6535 374.677 83.8238L379.461 86.7225L379.461 86.7226V86.7225Z" fill="#F2F2F2"/>
<path d="M375.965 61.9331L375.211 53.5186L375.555 52.8807C377.15 49.9309 377.962 47.0502 377.972 44.3158C377.973 43.8811 377.957 43.4463 377.941 43.0035C377.876 41.2482 377.795 39.0664 378.705 36.523C379.215 35.105 380.648 31.822 382.803 32.2283C383.383 32.3299 383.822 32.6631 384.155 33.0531C384.204 32.9556 384.254 32.8581 384.308 32.7525C384.979 31.4726 385.51 30.9241 386.022 30.3959C386.415 29.9896 386.821 29.5711 387.458 28.5797C387.738 28.145 387.956 27.7631 388.139 27.4421C388.697 26.4711 389.425 25.3131 390.708 25.3334C392.08 25.4147 392.798 26.8326 393.274 27.7712C394.124 29.4451 394.509 30.6519 394.764 31.4523C394.857 31.7448 394.963 32.0739 395.016 32.1755C395.458 32.9881 399.051 32.2283 400.405 31.952C403.445 31.3182 406.076 30.7697 407.16 33.1669C407.937 34.8814 407.36 37.1486 405.393 40.0862C404.781 41.0004 404.129 41.6952 403.551 42.2396C404.03 42.5972 404.459 43.1457 404.633 44.007C405.042 46.0467 403.64 48.0904 400.467 50.0894C399.678 50.5891 398.617 51.2555 397.13 51.5765C396.43 51.7268 395.8 51.7634 395.26 51.7837C395.249 52.1738 395.176 52.5963 394.985 53.031C394.428 54.3109 393.268 54.9203 391.519 54.7741C389.595 54.6481 388.011 54.189 386.614 53.7868C385.393 53.4374 384.342 53.1407 383.516 53.2098C381.986 53.3642 380.806 54.896 379.421 56.8828L375.965 61.9331H375.965Z" fill="#F2F2F2"/>
<path d="M382.851 225.267L381.44 224.161L381.099 222.126L381.44 224.161L379.796 224.397C379.77 224.206 379.68 223.767 379.545 223.081C378.809 219.318 376.565 207.869 374.693 189.837C373.387 177.25 372.647 164.309 372.495 151.368C372.342 138.407 372.833 128.595 373.226 120.709C373.523 114.761 373.884 109.097 374.238 103.579C375.181 88.8384 376.07 74.9144 375.408 59.4994C375.262 56.058 374.955 48.8949 371.607 41.2726C369.665 36.8521 366.991 32.9272 363.656 29.6118L365.73 26.3533C369.41 30.0181 372.369 34.3656 374.526 39.2737C378.237 47.7248 378.572 55.5299 378.733 59.28C379.406 74.9674 378.507 89.0254 377.555 103.908C377.204 109.406 376.843 115.045 376.547 120.969C376.157 128.782 375.671 138.509 375.823 151.303C375.972 164.09 376.703 176.872 377.992 189.301C379.841 207.105 382.053 218.384 382.779 222.089C383.166 224.068 383.247 224.482 382.851 225.267V225.267H382.851Z" fill="#F2F2F2"/>
<path d="M357.553 36.2223C357.416 36.2223 357.278 36.2183 357.138 36.2061C354.304 36.0151 351.68 33.8942 349.337 29.9043C348.238 28.0272 347.676 25.886 346.555 21.6157C346.381 20.9575 345.536 17.6177 345.022 13.0225C344.686 10.0199 344.728 8.76442 345.204 7.65521C345.732 6.42004 346.587 5.5587 347.549 4.9777C347.507 4.5795 347.541 4.16915 347.679 3.75065C348.246 2.01575 349.754 2.24329 350.57 2.35298C350.983 2.41798 351.498 2.50332 352.054 2.46673C352.928 2.41393 353.397 2.08885 354.109 1.60128C354.79 1.13403 355.637 0.55302 356.893 0.23204C359.369 -0.41397 361.444 0.463648 362.129 0.752086C365.728 2.25134 367.502 5.74961 369.556 9.80042C369.966 10.613 371.371 13.5709 372.299 17.6258C372.969 20.5512 372.875 21.8513 372.673 22.8183C372.264 24.8052 371.297 25.9428 368.841 28.4538C366.277 31.0825 364.99 32.399 363.885 33.1994C361.313 35.0562 359.698 36.2222 357.553 36.2222V36.2223Z" fill="#F2F2F2"/>
<path d="M264.358 258.144C254.008 264.897 248.406 277.048 251.845 285.282C255.284 293.516 266.46 294.714 276.814 287.957C280.979 285.328 284.58 281.491 287.316 276.766L330.88 247.458L319.443 222.193L277.711 253.768C273.044 253.872 268.466 255.373 264.358 258.144H264.358H264.358Z" fill="#FFB6B6"/>
<path d="M299.256 238.405V204.358C299.256 202.394 300.534 200.797 302.104 200.797H315.283C316.853 200.797 318.131 202.394 318.131 204.358V238.405C318.131 240.368 316.853 241.966 315.283 241.966H302.104C300.534 241.966 299.256 240.368 299.256 238.405H299.256Z" fill="#7903C1"/>
<path d="M487.589 183.609C509.147 183.609 526.623 161.76 526.623 134.809C526.623 107.858 509.147 86.0093 487.589 86.0093C466.031 86.0093 448.555 107.858 448.555 134.809C448.555 161.76 466.031 183.609 487.589 183.609Z" fill="#FF6884"/>
<path d="M449.04 444.268L404.93 445.029L387.246 198.516C386.817 192.533 388.363 186.483 391.488 181.919L434.861 118.571C440.933 109.704 451.256 108.104 458.875 114.853L513.199 162.971C517.631 166.897 520.378 173.034 520.734 179.81L560.388 346.359L555.07 401.901L555.122 401.978L561.407 442.331L449.04 444.268Z" fill="#E6E6E6"/>
<path d="M439.8 175.889L439.089 164.448C438.902 161.428 440.715 158.78 443.131 158.545L455.989 157.298C458.405 157.063 460.523 159.33 460.71 162.35L461.421 173.791C461.608 176.812 459.795 179.459 457.38 179.694L444.521 180.941C442.105 181.176 439.987 178.909 439.8 175.889V175.889Z" fill="#7903C1"/>
<path d="M418.133 267.338L415.506 225.005C415.318 221.985 417.131 219.337 419.547 219.103L438.583 217.256C440.999 217.022 443.116 219.288 443.304 222.308L445.932 264.641C446.119 267.661 444.306 270.309 441.891 270.543L422.855 272.39C420.439 272.624 418.321 270.358 418.133 267.338V267.338Z" fill="#3F3D56"/>
<path d="M467.315 362.254C465.008 362.376 463.008 360.222 462.761 357.351L459.258 316.528C459.109 314.785 459.613 313.104 460.641 311.912C461.669 310.721 463.05 310.223 464.428 310.54L465.411 310.768C467.365 311.221 468.837 313.267 468.991 315.745L471.511 356.34C471.604 357.84 471.216 359.286 470.418 360.411C469.655 361.486 468.615 362.131 467.475 362.242C467.422 362.247 467.368 362.251 467.315 362.254Z" fill="#3F3D56"/>
<path d="M427.022 360.484L424.387 318.028C424.201 315.031 425.929 312.444 428.321 312.138L445.59 309.932C447.986 309.658 450.15 311.815 450.407 314.813L454.072 357.699C454.199 359.188 453.847 360.643 453.081 361.795C452.316 362.946 451.236 363.644 450.042 363.76L431.743 365.535C429.328 365.77 427.21 363.503 427.022 360.484Z" fill="#3F3D56"/>
<path d="M531.088 379.572L546.52 408.396L550.181 442.14L561.032 441.95L554.833 402.151L530.197 365.695C528.546 370.2 528.883 375.454 531.088 379.572V379.572Z" fill="#CCCCCC"/>
<path d="M549.146 432.481L505.18 437.504L505.236 438.275L549.202 433.252L549.146 432.481Z" fill="#3F3D56"/>
<path d="M546.051 425.924L504.346 430.381L504.398 431.152L546.104 426.696L546.051 425.924Z" fill="#3F3D56"/>
<path d="M543.455 419.17L503.598 424.017L503.658 424.788L543.515 419.941L543.455 419.17Z" fill="#3F3D56"/>
<path d="M541.784 412.363L503.549 417.674L503.617 418.444L541.853 413.134L541.784 412.363Z" fill="#3F3D56"/>
<path d="M539.549 406.376L502.818 411.568L502.888 412.338L539.618 407.146L539.549 406.376Z" fill="#3F3D56"/>
<path d="M536.752 401.186L500.879 404.667L500.927 405.439L536.8 401.959L536.752 401.186Z" fill="#3F3D56"/>
<path d="M534.558 395.947L499.727 399.841L499.782 400.612L534.613 396.719L534.558 395.947Z" fill="#3F3D56"/>
<path d="M532.362 390.726L498.668 395.406L498.736 396.176L532.431 391.497L532.362 390.726Z" fill="#3F3D56"/>
<path d="M530.799 385.468L497.486 389.438L497.545 390.209L530.858 386.239L530.799 385.468Z" fill="#3F3D56"/>
<path d="M527.99 380.36L496.127 384.706L496.194 385.477L528.057 381.13L527.99 380.36Z" fill="#3F3D56"/>
<path d="M526.469 375.768L494.834 379.226L494.888 379.998L526.523 376.54L526.469 375.768Z" fill="#3F3D56"/>
<path d="M491.511 363.162L488.259 310.79C488.072 307.769 489.885 305.121 492.301 304.887L512.572 302.92C514.988 302.686 517.106 304.952 517.293 307.973L520.544 360.345C520.732 363.364 518.919 366.012 516.503 366.247L496.232 368.213C493.816 368.448 491.698 366.181 491.511 363.162Z" fill="#7903C1"/>
<path d="M449.039 444.268L412.977 444.893L412.686 444.897L410.531 410.178C410.259 405.787 412.894 401.937 416.406 401.597L451.851 398.158C455.363 397.817 458.442 401.112 458.715 405.503L461.049 443.104L460.74 443.134L449.039 444.268V444.268Z" fill="#CCCCCC"/>
<path d="M488.083 267.932L485.599 227.916C485.412 224.896 487.225 222.248 489.64 222.014L496.322 221.366C498.738 221.131 500.855 223.398 501.043 226.418L503.527 266.434C503.714 269.454 501.902 272.101 499.486 272.336L492.805 272.984C490.389 273.218 488.271 270.952 488.083 267.932Z" fill="#3F3D56"/>
<path d="M505.767 442.65L501.804 408.85L494.231 376.954L492.135 368.222C488.794 365.833 484.707 369.248 485.196 374.021L485.583 377.793L493.156 409.689L497.119 443.489" fill="#CCCCCC"/>
<path d="M61.8638 450.498L17.7545 451.259L0.0704355 204.746C-0.358653 198.763 1.18721 192.713 4.31218 188.149L47.6854 124.801C53.757 115.934 64.0804 114.334 71.6996 121.083L126.024 169.201C130.455 173.127 133.202 179.264 133.558 186.04L173.212 352.589L167.894 408.131L167.946 408.208L174.231 448.56L61.8638 450.498H61.8638Z" fill="#E6E6E6"/>
<path d="M52.624 182.119L51.9137 170.678C51.7262 167.657 53.5391 165.01 55.9549 164.775L68.8136 163.528C71.2294 163.293 73.347 165.56 73.5345 168.58L74.2447 180.021C74.4322 183.042 72.6196 185.689 70.2039 185.924L57.3451 187.171C54.9294 187.406 52.8115 185.139 52.624 182.119L52.624 182.119Z" fill="#7903C1"/>
<path d="M30.9576 273.568L28.3297 231.235C28.1423 228.215 29.9551 225.567 32.3709 225.333L51.407 223.486C53.8227 223.252 55.9404 225.518 56.1279 228.538L58.7558 270.871C58.9433 273.891 57.1307 276.539 54.7149 276.773L35.6788 278.62C33.2631 278.854 31.1451 276.588 30.9576 273.568Z" fill="#3F3D56"/>
<path d="M80.1391 368.484C77.832 368.606 75.8317 366.452 75.585 363.581L72.0825 322.758C71.933 321.015 72.437 319.334 73.4652 318.142C74.4934 316.951 75.8738 316.453 77.2523 316.77L78.2347 316.998C80.1891 317.451 81.6616 319.497 81.8154 321.975L84.3355 362.57C84.4286 364.07 84.0401 365.516 83.2418 366.641C82.4789 367.716 81.439 368.361 80.2988 368.472C80.2458 368.477 80.1926 368.481 80.1391 368.484Z" fill="#3F3D56"/>
<path d="M39.8465 366.714L37.211 324.258C37.0249 321.261 38.7533 318.674 41.1454 318.367L58.4144 316.162C60.8101 315.888 62.9741 318.045 63.2309 321.043L66.8958 363.929C67.0228 365.418 66.6713 366.873 65.9053 368.025C65.1399 369.176 64.0604 369.874 62.8663 369.99L44.5677 371.765C42.1519 372 40.034 369.733 39.8465 366.714L39.8465 366.714Z" fill="#3F3D56"/>
<path d="M143.913 385.802L159.344 414.626L163.005 448.37L173.856 448.18L167.657 408.381L143.022 371.925C141.37 376.43 141.708 381.684 143.913 385.802V385.802Z" fill="#CCCCCC"/>
<path d="M161.97 438.711L118.004 443.733L118.06 444.505L162.026 439.482L161.97 438.711Z" fill="#3F3D56"/>
<path d="M158.876 432.154L117.17 436.611L117.223 437.382L158.928 432.926L158.876 432.154Z" fill="#3F3D56"/>
<path d="M156.279 425.399L116.422 430.247L116.482 431.018L156.339 426.171L156.279 425.399Z" fill="#3F3D56"/>
<path d="M154.608 418.593L116.373 423.904L116.441 424.674L154.677 419.364L154.608 418.593Z" fill="#3F3D56"/>
<path d="M152.373 412.606L115.643 417.798L115.712 418.568L152.443 413.376L152.373 412.606Z" fill="#3F3D56"/>
<path d="M149.576 407.416L113.703 410.897L113.751 411.669L149.624 408.189L149.576 407.416Z" fill="#3F3D56"/>
<path d="M147.382 402.177L112.551 406.071L112.606 406.842L147.437 402.949L147.382 402.177Z" fill="#3F3D56"/>
<path d="M145.187 396.956L111.492 401.636L111.561 402.406L145.255 397.727L145.187 396.956Z" fill="#3F3D56"/>
<path d="M143.623 391.698L110.311 395.668L110.369 396.439L143.682 392.469L143.623 391.698Z" fill="#3F3D56"/>
<path d="M140.814 386.59L108.951 390.936L109.018 391.707L140.882 387.36L140.814 386.59Z" fill="#3F3D56"/>
<path d="M139.293 381.998L107.658 385.456L107.712 386.228L139.347 382.77L139.293 381.998Z" fill="#3F3D56"/>
<path d="M104.335 369.392L101.084 317.02C100.896 313.999 102.709 311.351 105.125 311.117L125.396 309.15C127.812 308.916 129.93 311.182 130.117 314.203L133.368 366.575C133.556 369.595 131.743 372.242 129.328 372.477L109.056 374.443C106.64 374.678 104.522 372.411 104.335 369.392H104.335Z" fill="#7903C1"/>
<path d="M61.8632 450.498L25.8013 451.123L25.5106 451.127L23.3553 416.408C23.0827 412.017 25.7183 408.167 29.2305 407.827L64.6749 404.388C68.1871 404.047 71.2662 407.342 71.5387 411.733L73.8729 449.334L73.564 449.364L61.8632 450.498Z" fill="#CCCCCC"/>
<path d="M100.908 274.162L98.4235 234.146C98.236 231.126 100.049 228.478 102.465 228.244L109.146 227.596C111.562 227.361 113.679 229.628 113.867 232.648L116.351 272.664C116.538 275.684 114.726 278.331 112.31 278.566L105.629 279.214C103.213 279.448 101.095 277.182 100.908 274.162Z" fill="#3F3D56"/>
<path d="M118.591 448.88L114.628 415.08L107.055 383.184L104.96 374.452C101.619 372.062 97.5314 375.478 98.0205 380.251L98.407 384.023L105.98 415.919L109.943 449.719" fill="#CCCCCC"/>
<path d="M294.455 446.836L250.347 447.596L232.662 201.084C232.233 195.1 233.779 189.051 236.904 184.486L280.277 121.138C286.349 112.27 296.672 110.672 304.291 117.42L358.615 165.538C363.047 169.464 386.889 191.741 387.246 198.516L375.916 368.11L400.485 404.468L400.538 404.545L406.823 444.898L294.455 446.836H294.455Z" fill="#E6E6E6"/>
<path d="M285.216 178.456L284.506 167.015C284.318 163.995 286.131 161.347 288.547 161.113L301.405 159.865C303.821 159.631 305.939 161.897 306.126 164.917L306.837 176.359C307.024 179.379 305.211 182.027 302.796 182.261L289.937 183.509C287.521 183.743 285.403 181.477 285.216 178.456V178.456Z" fill="#7903C1"/>
<path d="M263.549 269.905L260.922 227.573C260.734 224.553 262.547 221.905 264.963 221.67L283.999 219.823C286.414 219.589 288.532 221.855 288.72 224.876L291.348 267.208C291.535 270.228 289.722 272.876 287.307 273.11L268.271 274.957C265.855 275.192 263.737 272.925 263.549 269.905Z" fill="#3F3D56"/>
<path d="M306.477 315.048C305.594 316.071 305.161 317.516 305.29 319.013L308.792 359.836C309.004 362.301 310.722 364.151 312.704 364.047C313.746 363.998 314.684 363.43 315.369 362.464C316.055 361.498 316.388 360.256 316.309 358.968L313.788 318.372C313.656 316.244 312.392 314.486 310.713 314.098L309.73 313.87C309.397 313.793 309.065 313.771 308.738 313.803C307.903 313.884 307.113 314.313 306.477 315.048V315.048Z" fill="#3F3D56"/>
<path d="M254.264 368.952C253.337 367.994 252.775 366.64 252.682 365.141L250.162 324.545C250.008 322.068 251.21 319.762 253.085 318.938L254.028 318.523C255.349 317.944 256.776 318.17 257.939 319.148C259.102 320.127 259.808 321.692 259.875 323.442L261.452 364.452C261.563 367.335 259.853 369.849 257.558 370.175C257.505 370.182 257.451 370.188 257.398 370.193C256.259 370.304 255.151 369.866 254.264 368.952Z" fill="#3F3D56"/>
<path d="M376.504 382.14L391.936 410.963L395.597 444.707L406.448 444.517L400.249 404.718L375.613 368.262C373.962 372.767 374.299 378.021 376.504 382.14V382.14Z" fill="#CCCCCC"/>
<path d="M394.562 435.048L350.596 440.071L350.652 440.842L394.618 435.82L394.562 435.048Z" fill="#3F3D56"/>
<path d="M391.467 428.492L349.762 432.948L349.814 433.72L391.52 429.263L391.467 428.492Z" fill="#3F3D56"/>
<path d="M388.871 421.737L349.014 426.584L349.074 427.355L388.931 422.508L388.871 421.737Z" fill="#3F3D56"/>
<path d="M387.2 414.931L348.965 420.241L349.033 421.011L387.269 415.701L387.2 414.931Z" fill="#3F3D56"/>
<path d="M384.965 408.943L348.234 414.135L348.304 414.905L385.034 409.713L384.965 408.943Z" fill="#3F3D56"/>
<path d="M382.168 403.754L346.295 407.234L346.343 408.006L382.216 404.526L382.168 403.754Z" fill="#3F3D56"/>
<path d="M379.974 398.515L345.143 402.408L345.198 403.179L380.029 399.286L379.974 398.515Z" fill="#3F3D56"/>
<path d="M377.778 393.294L344.084 397.973L344.152 398.744L377.847 394.064L377.778 393.294Z" fill="#3F3D56"/>
<path d="M376.215 388.035L342.902 392.005L342.961 392.776L376.274 388.807L376.215 388.035Z" fill="#3F3D56"/>
<path d="M373.406 382.927L341.543 387.274L341.61 388.044L373.473 383.697L373.406 382.927Z" fill="#3F3D56"/>
<path d="M371.885 378.335L340.25 381.794L340.304 382.565L371.939 379.107L371.885 378.335Z" fill="#3F3D56"/>
<path d="M336.927 365.729L333.675 313.357C333.488 310.336 335.301 307.689 337.717 307.454L357.988 305.487C360.404 305.253 362.522 307.519 362.709 310.54L365.96 362.912C366.148 365.932 364.335 368.58 361.919 368.814L341.648 370.781C339.232 371.015 337.114 368.749 336.927 365.729Z" fill="#7903C1"/>
<path d="M294.454 446.836L258.393 447.46L258.102 447.464L255.947 412.745C255.675 408.355 258.31 404.505 261.823 404.164L297.267 400.725C300.779 400.384 303.858 403.68 304.131 408.07L306.465 445.671L306.156 445.701L294.454 446.836L294.454 446.836Z" fill="#CCCCCC"/>
<path d="M333.499 270.499L331.015 230.483C330.828 227.463 332.641 224.815 335.056 224.581L341.738 223.933C344.154 223.698 346.271 225.965 346.459 228.985L348.943 269.001C349.13 272.021 347.318 274.669 344.902 274.903L338.221 275.551C335.805 275.786 333.687 273.519 333.499 270.499Z" fill="#3F3D56"/>
<path d="M351.183 445.217L347.22 411.417L339.647 379.521L337.551 370.79C334.21 368.4 330.123 371.815 330.612 376.589L330.999 380.36L338.572 412.256L342.535 446.057" fill="#CCCCCC"/>
<path d="M602.984 441.296L38.1016 450.451L38.1176 452L603 442.845L602.984 441.296Z" fill="#CCCCCC"/>
<path d="M300.179 293.812C299.057 291.449 294.207 293.98 293.315 291.834C292.426 289.697 296.933 286.44 299.508 279.001C299.972 277.659 302.898 269.205 300.732 266.596C296.626 261.651 277.837 282.057 271.262 275.38C269.819 273.914 268.811 270.988 264.444 266.238C262.706 264.349 261.656 263.496 260.639 263.813C259.196 264.263 259.082 266.677 257.535 271.424C255.215 278.542 253.842 278.112 252.491 283.791C251.487 288.007 251.716 290.458 250.536 290.935C248.865 291.611 247.327 287.139 245.209 287.54C243.048 287.948 241.741 293.155 241.329 297.053C240.554 304.368 242.703 309.195 243.894 314.271C245.189 319.787 245.957 328.176 242.968 340.051L213.383 444.26C219.914 422.876 238.826 364.259 246.773 342.476C249.067 336.188 251.6 329.81 256.8 327.293C261.808 324.869 268.685 326.316 277.452 323.676C278.476 323.367 281.317 322.464 281.675 320.374C281.97 318.647 280.299 317.683 280.556 316.065C280.9 313.895 284.187 313.868 288.226 311.365C291.074 309.6 292.848 307.5 294.374 305.695C294.834 305.15 301.671 296.959 300.179 293.812H300.179L300.179 293.812Z" fill="#F2F2F2"/>
<path d="M183.783 348.672C182.531 348.678 182.125 352.385 181.026 352.313C179.93 352.242 179.952 348.537 177.774 344.81C177.382 344.138 174.907 339.903 173.257 340.48C170.131 341.572 172.722 358.989 168.203 361.097C167.211 361.559 165.772 361.334 162.647 362.643C161.403 363.164 160.765 363.562 160.597 364.278C160.357 365.293 161.272 366.06 162.689 368.378C164.814 371.856 164.249 372.574 166.089 375.042C167.454 376.874 168.483 377.44 168.329 378.303C168.113 379.523 165.913 379.176 165.459 380.591C164.996 382.035 166.663 384.339 168.075 385.717C170.723 388.303 173.238 388.377 175.575 389.111C178.114 389.908 181.629 391.857 185.428 397.118L217.804 445.338C211.293 435.161 193.737 406.644 187.478 395.483C185.672 392.261 183.898 388.866 184.411 384.949C184.904 381.177 187.456 377.375 188.949 371.234C189.124 370.516 189.589 368.512 188.872 367.69C188.279 367.01 187.418 367.758 186.857 367.133C186.105 366.296 187.042 364.271 187.225 361.071C187.353 358.814 187.041 357.12 186.773 355.662C186.692 355.223 185.449 348.664 183.783 348.672V348.672H183.783Z" fill="#F2F2F2"/>
<path d="M208.75 355.679L207.996 347.264L208.341 346.626C209.935 343.676 210.747 340.796 210.757 338.061C210.759 337.627 210.742 337.192 210.726 336.749C210.661 334.994 210.58 332.812 211.49 330.268C212 328.851 213.433 325.568 215.588 325.974C216.168 326.075 216.607 326.409 216.94 326.799C216.989 326.701 217.039 326.604 217.093 326.498C217.764 325.218 218.295 324.67 218.807 324.141C219.2 323.735 219.607 323.317 220.244 322.325C220.523 321.891 220.741 321.509 220.925 321.188C221.482 320.217 222.21 319.059 223.494 319.079C224.865 319.16 225.583 320.578 226.059 321.517C226.909 323.191 227.294 324.397 227.55 325.198C227.642 325.49 227.748 325.819 227.801 325.921C228.243 326.734 231.836 325.974 233.19 325.698C236.23 325.064 238.861 324.515 239.945 326.912C240.722 328.627 240.145 330.894 238.179 333.832C237.566 334.746 236.914 335.441 236.336 335.985C236.815 336.343 237.244 336.891 237.418 337.753C237.828 339.792 236.425 341.836 233.252 343.835C232.464 344.335 231.402 345.001 229.916 345.322C229.215 345.472 228.585 345.509 228.045 345.529C228.034 345.919 227.961 346.342 227.771 346.777C227.213 348.056 226.053 348.666 224.305 348.52C222.381 348.394 220.796 347.935 219.399 347.532C218.178 347.183 217.127 346.886 216.301 346.955C214.771 347.11 213.591 348.642 212.206 350.628L208.75 355.679H208.75H208.75Z" fill="#F2F2F2"/>
<path d="M212.246 305.579L205.927 308.625L205.346 308.37C202.659 307.19 200.225 306.939 198.106 307.62C197.77 307.729 197.437 307.859 197.099 307.991C195.757 308.514 194.09 309.166 191.891 308.711C190.664 308.453 187.761 307.553 187.528 304.844C187.46 304.117 187.606 303.502 187.824 303C187.736 302.966 187.648 302.93 187.552 302.892C186.392 302.405 185.833 301.901 185.294 301.416C184.88 301.044 184.453 300.659 183.525 300.14C183.117 299.912 182.767 299.746 182.472 299.605C181.579 299.177 180.498 298.591 180.188 297.033C179.903 295.354 180.818 294.126 181.424 293.312C182.503 291.859 183.339 291.088 183.894 290.576C184.097 290.39 184.325 290.179 184.39 290.088C184.906 289.347 183.407 285.195 182.85 283.629C181.588 280.113 180.497 277.07 182.077 275.152C183.206 273.777 185.107 273.9 187.878 275.533C188.741 276.042 189.444 276.653 190.012 277.215C190.167 276.544 190.483 275.887 191.105 275.458C192.579 274.445 194.516 275.623 196.868 278.953C197.454 279.78 198.239 280.894 198.865 282.611C199.159 283.419 199.347 284.172 199.499 284.82C199.804 284.735 200.15 284.716 200.534 284.835C201.666 285.185 202.432 286.433 202.762 288.585C203.153 290.943 203.199 292.976 203.242 294.768C203.282 296.332 203.319 297.679 203.582 298.66C204.089 300.472 205.574 301.51 207.462 302.68L212.247 305.579L212.246 305.579V305.579Z" fill="#F2F2F2"/>
<path d="M208.75 280.789L207.996 272.375L208.341 271.737C209.935 268.787 210.747 265.906 210.757 263.172C210.759 262.737 210.742 262.302 210.726 261.86C210.661 260.104 210.58 257.923 211.49 255.379C212 253.961 213.433 250.678 215.588 251.084C216.168 251.186 216.607 251.519 216.94 251.909C216.989 251.812 217.039 251.714 217.093 251.609C217.764 250.329 218.295 249.78 218.807 249.252C219.2 248.846 219.607 248.427 220.244 247.436C220.523 247.001 220.741 246.619 220.925 246.298C221.482 245.327 222.21 244.169 223.494 244.189C224.865 244.271 225.583 245.689 226.059 246.627C226.909 248.301 227.294 249.508 227.55 250.308C227.642 250.601 227.748 250.93 227.801 251.032C228.243 251.844 231.836 251.084 233.19 250.808C236.23 250.174 238.861 249.626 239.945 252.023C240.722 253.738 240.145 256.005 238.179 258.942C237.566 259.856 236.914 260.551 236.336 261.096C236.815 261.453 237.244 262.002 237.418 262.863C237.828 264.903 236.425 266.946 233.252 268.945C232.464 269.445 231.402 270.112 229.916 270.433C229.215 270.583 228.585 270.619 228.045 270.64C228.034 271.03 227.961 271.452 227.771 271.887C227.213 273.167 226.053 273.776 224.305 273.63C222.381 273.504 220.796 273.045 219.399 272.643C218.178 272.293 217.127 271.997 216.301 272.066C214.771 272.22 213.591 273.752 212.206 275.739L208.75 280.789H208.75H208.75Z" fill="#F2F2F2"/>
<path d="M215.636 444.123L214.225 443.017L213.884 440.982L214.225 443.017L212.581 443.253C212.555 443.062 212.465 442.623 212.331 441.937C211.594 438.174 209.35 426.725 207.478 408.693C206.172 396.106 205.432 383.165 205.28 370.224C205.127 357.263 205.618 347.451 206.011 339.565C206.308 333.617 206.669 327.953 207.023 322.435C207.966 307.694 208.855 293.771 208.193 278.355C208.047 274.914 207.74 267.751 204.392 260.129C202.451 255.708 199.776 251.783 196.441 248.468L198.515 245.209C202.195 248.874 205.155 253.222 207.311 258.13C211.022 266.581 211.357 274.386 211.518 278.136C212.191 293.823 211.292 307.882 210.34 322.764C209.989 328.262 209.628 333.901 209.332 339.825C208.942 347.638 208.457 357.365 208.608 370.159C208.757 382.946 209.488 395.728 210.777 408.157C212.626 425.961 214.838 437.24 215.564 440.945C215.951 442.924 216.032 443.339 215.636 444.123V444.123L215.636 444.123Z" fill="#F2F2F2"/>
<path d="M190.338 255.078C190.201 255.078 190.063 255.074 189.923 255.062C187.089 254.871 184.465 252.75 182.122 248.76C181.023 246.883 180.461 244.742 179.34 240.472C179.166 239.814 178.321 236.474 177.807 231.879C177.471 228.876 177.513 227.621 177.989 226.511C178.518 225.276 179.372 224.415 180.334 223.834C180.292 223.436 180.326 223.025 180.464 222.607C181.031 220.872 182.539 221.099 183.355 221.209C183.768 221.274 184.283 221.359 184.839 221.323C185.713 221.27 186.183 220.945 186.894 220.457C187.575 219.99 188.422 219.409 189.678 219.088C192.154 218.442 194.23 219.32 194.914 219.608C198.513 221.107 200.288 224.606 202.341 228.656C202.751 229.469 204.157 232.427 205.084 236.482C205.754 239.407 205.66 240.707 205.458 241.674C205.049 243.661 204.082 244.799 201.626 247.31C199.062 249.939 197.775 251.255 196.67 252.055C194.098 253.912 192.483 255.078 190.338 255.078V255.078H190.338Z" fill="#F2F2F2"/>
</g>
<defs>
<clipPath id="clip0_91_632">
<rect width="603" height="452" fill="white"/>
</clipPath>
</defs>
</svg>
