<svg width="19" height="25" viewBox="0 0 19 25" fill="none" xmlns="http://www.w3.org/2000/svg">
<path d="M14.9688 9.375H14.1875V5.46875C14.1875 4.22555 13.6936 3.03326 12.8146 2.15419C11.9355 1.27511 10.7432 0.78125 9.5 0.78125C8.2568 0.78125 7.06451 1.27511 6.18544 2.15419C5.30636 3.03326 4.8125 4.22555 4.8125 5.46875V9.375H4.03125C3.20273 9.3759 2.4084 9.70544 1.82254 10.2913C1.23669 10.8771 0.907155 11.6715 0.90625 12.5V21.0938C0.907155 21.9223 1.23669 22.7166 1.82254 23.3025C2.4084 23.8883 3.20273 24.2178 4.03125 24.2188H14.9688C15.7973 24.2178 16.5916 23.8883 17.1775 23.3025C17.7633 22.7166 18.0928 21.9223 18.0938 21.0938V12.5C18.0928 11.6715 17.7633 10.8771 17.1775 10.2913C16.5916 9.70544 15.7973 9.3759 14.9688 9.375ZM12.625 9.375H6.375V5.46875C6.375 4.63995 6.70424 3.84509 7.29029 3.25904C7.87634 2.67299 8.6712 2.34375 9.5 2.34375C10.3288 2.34375 11.1237 2.67299 11.7097 3.25904C12.2958 3.84509 12.625 4.63995 12.625 5.46875V9.375Z" fill="white"/>
</svg>
