<svg width="619" height="488" viewBox="0 0 619 488" fill="none" xmlns="http://www.w3.org/2000/svg">
<g clip-path="url(#clip0_92_876)">
<path d="M148.532 264.22C143.594 237.794 151.368 207.73 172.975 191.734C171.75 220.943 180.897 249.644 198.797 272.759C205.732 281.649 214.372 290.814 214.103 302.085C213.936 309.099 210.143 315.633 205.145 320.555C200.146 325.477 193.988 329.026 187.905 332.52L186.958 333.993C169.123 313.877 153.47 290.647 148.532 264.22Z" fill="#F0F0F0"/>
<path d="M173.369 192.138C164.291 212.454 161.845 235.114 166.379 256.899C167.272 261.606 168.901 266.143 171.207 270.343C173.585 274.362 176.996 277.67 181.085 279.925C184.856 282.104 188.965 283.895 192.141 286.953C193.743 288.542 194.991 290.452 195.803 292.557C196.615 294.663 196.973 296.916 196.854 299.169C196.702 304.792 194.539 310.024 192.245 315.068C189.699 320.668 186.965 326.444 187.131 332.74C187.151 333.503 185.966 333.489 185.946 332.728C185.658 321.774 193.578 312.977 195.342 302.466C196.166 297.562 195.516 292.38 192.068 288.578C189.053 285.254 184.817 283.402 180.98 281.229C176.959 279.088 173.522 275.995 170.972 272.22C168.46 268.151 166.659 263.685 165.645 259.011C163.196 248.527 162.41 237.722 163.317 226.994C164.284 214.743 167.34 202.749 172.352 191.529C172.662 190.835 173.677 191.448 173.369 192.138L173.369 192.138Z" fill="white"/>
<path d="M164.507 249.971C160.749 250.235 157.019 249.155 153.983 246.923C150.948 244.692 148.804 241.453 147.936 237.787C147.763 237.045 148.908 236.741 149.081 237.484C149.884 240.9 151.881 243.916 154.712 245.988C157.543 248.061 161.021 249.053 164.519 248.786C165.28 248.729 165.263 249.914 164.507 249.971Z" fill="white"/>
<path d="M179.029 279.072C184.131 273.303 186.871 265.822 186.702 258.122C186.685 257.359 187.87 257.372 187.887 258.134C188.047 266.148 185.18 273.926 179.858 279.919C179.35 280.489 178.524 279.64 179.029 279.072V279.072Z" fill="white"/>
<path d="M165.673 215.479C167.148 215.68 168.651 215.511 170.045 214.988C171.439 214.464 172.681 213.603 173.66 212.481C174.16 211.904 174.986 212.754 174.489 213.327C173.402 214.562 172.029 215.512 170.49 216.093C168.951 216.675 167.293 216.871 165.66 216.664C165.505 216.658 165.358 216.592 165.249 216.481C165.14 216.37 165.078 216.221 165.074 216.066C165.077 215.909 165.141 215.759 165.253 215.649C165.365 215.54 165.516 215.479 165.673 215.479H165.673Z" fill="white"/>
<path d="M261.334 213.592C261.032 213.961 260.729 214.331 260.43 214.709C256.394 219.693 252.77 224.997 249.593 230.568C249.34 230.994 249.091 231.431 248.851 231.864C241.34 245.367 236.402 260.147 234.286 275.452C233.45 281.544 233.079 287.69 233.175 293.837C233.309 302.328 234.129 311.522 231.526 319.331C231.264 320.149 230.951 320.949 230.59 321.728L188.828 335.034C188.718 335.017 188.611 335.009 188.5 334.992L186.857 335.599C186.83 335.283 186.808 334.953 186.781 334.637C186.765 334.453 186.758 334.266 186.741 334.083C186.733 333.959 186.725 333.836 186.711 333.725C186.708 333.684 186.706 333.643 186.706 333.611C186.692 333.5 186.69 333.396 186.679 333.294C186.555 331.455 186.44 329.613 186.345 327.765C186.342 327.755 186.342 327.756 186.348 327.743C185.631 313.666 186.083 299.406 188.685 285.668C188.764 285.255 188.839 284.832 188.936 284.412C190.143 278.226 191.854 272.149 194.052 266.242C195.265 263.011 196.641 259.844 198.175 256.752C202.154 248.772 207.363 241.466 213.612 235.105C226.071 222.424 242.446 213.869 259.993 213.6C260.442 213.593 260.882 213.589 261.334 213.592Z" fill="#F0F0F0"/>
<path d="M261.409 214.152C241.929 224.908 226.334 241.529 216.838 261.653C214.716 265.949 213.286 270.552 212.598 275.294C212.077 279.934 212.809 284.629 214.717 288.892C216.415 292.901 218.618 296.806 219.312 301.159C219.635 303.393 219.481 305.669 218.862 307.839C218.243 310.009 217.172 312.024 215.72 313.751C212.214 318.149 207.336 321.024 202.468 323.67C197.064 326.609 191.403 329.575 187.745 334.701C187.301 335.322 186.364 334.598 186.806 333.978C193.172 325.059 204.791 322.803 212.528 315.473C216.138 312.053 218.74 307.524 218.276 302.413C217.87 297.943 215.602 293.915 213.847 289.87C211.925 285.739 211.044 281.201 211.28 276.651C211.724 271.89 212.975 267.239 214.98 262.897C219.336 253.051 225.214 243.952 232.398 235.931C240.545 226.733 250.207 218.995 260.963 213.054C261.629 212.687 262.07 213.787 261.409 214.152Z" fill="white"/>
<path d="M219.514 254.993C216.354 252.941 214.026 249.833 212.946 246.224C211.866 242.614 212.104 238.738 213.618 235.288C213.927 234.591 215.024 235.038 214.715 235.736C213.3 238.946 213.078 242.557 214.091 245.916C215.103 249.275 217.283 252.161 220.237 254.054C220.879 254.467 220.152 255.403 219.514 254.993H219.514Z" fill="white"/>
<path d="M213.587 286.972C221.135 285.437 227.826 281.114 232.328 274.864C232.773 274.245 233.711 274.969 233.266 275.588C228.57 282.082 221.597 286.567 213.74 288.147C212.991 288.297 212.842 287.121 213.587 286.972V286.972Z" fill="white"/>
<path d="M241.211 228.156C242.268 229.204 243.57 229.974 244.998 230.395C246.426 230.817 247.937 230.877 249.394 230.57C250.141 230.411 250.288 231.587 249.546 231.745C247.934 232.076 246.266 232.008 244.687 231.546C243.108 231.084 241.666 230.242 240.488 229.094C240.368 228.995 240.29 228.854 240.27 228.7C240.25 228.546 240.289 228.39 240.38 228.263C240.477 228.14 240.618 228.059 240.774 228.039C240.929 228.018 241.086 228.061 241.211 228.156V228.156Z" fill="white"/>
<path d="M326.932 69.0838C327.072 69.6988 327.163 70.3239 327.205 70.9532L376.169 99.2005L388.071 92.3491L400.758 108.959L380.868 123.136C379.261 124.281 377.326 124.874 375.353 124.826C373.38 124.778 371.477 124.091 369.927 122.869L319.437 83.0368C317.158 83.8803 314.677 84.0101 312.323 83.4088C309.968 82.8076 307.853 81.504 306.258 79.6712C304.663 77.8384 303.663 75.5634 303.393 73.1488C303.122 70.7342 303.593 68.2944 304.743 66.154C305.893 64.0135 307.667 62.2738 309.83 61.1663C311.992 60.0588 314.441 59.636 316.85 59.954C319.258 60.2721 321.513 61.316 323.314 62.9469C325.115 64.5777 326.377 66.7183 326.932 69.0838V69.0838Z" fill="#FFB6B6"/>
<path d="M376.85 96.0816C377.005 95.3611 377.314 94.6825 377.755 94.0922C378.197 93.502 378.76 93.0139 379.408 92.6614L402.014 80.3445C405.024 78.0724 408.812 77.0869 412.548 77.6041C416.284 78.1213 419.663 80.099 421.943 83.1035C424.222 86.1079 425.218 89.8939 424.71 93.6312C424.203 97.3685 422.234 100.752 419.235 103.04L401.117 121.445C400.6 121.971 399.976 122.378 399.287 122.641C398.598 122.903 397.861 123.014 397.126 122.965C396.39 122.917 395.674 122.71 395.025 122.36C394.377 122.01 393.811 121.524 393.367 120.936L377.768 100.253C377.324 99.665 377.012 98.9877 376.853 98.2677C376.695 97.5478 376.693 96.8021 376.85 96.0816Z" fill="#3F3D56"/>
<path d="M417.236 24.4757C420.488 14.11 427.885 4.60293 438.114 1.09876C448.343 -2.4054 463.322 2.93258 471.012 10.5969C485.079 24.6165 488.512 72.779 478.848 87.9989C476.925 87.8972 470.292 87.8219 468.346 87.749L465.594 78.5756V87.6586C450.408 87.1893 434.598 87.4831 418.779 87.787C417.361 77.0112 413.983 34.8414 417.236 24.4757Z" fill="#2F2E41"/>
<path d="M412.883 459.573H399.032L392.443 406.146L412.886 406.147L412.883 459.573Z" fill="#FFB6B6"/>
<path d="M534.137 450.96L520.734 454.453L500.881 404.416L520.663 399.261L534.137 450.96Z" fill="#FFB6B6"/>
<path d="M457.805 131.433L460.944 139.593L460.316 147.753L398.892 169.028L401.94 133.316L408.844 125.155L457.805 131.433Z" fill="#FFB6B6"/>
<path d="M438.384 57.9995C450.5 57.9995 460.322 48.1774 460.322 36.0612C460.322 23.9449 450.5 14.1228 438.384 14.1228C426.267 14.1228 416.445 23.9449 416.445 36.0612C416.445 48.1774 426.267 57.9995 438.384 57.9995Z" fill="#FFB7B7"/>
<path d="M423.309 7.49371C427.525 4.9239 432.353 3.53378 437.289 3.4687C442.226 3.40362 447.089 4.66597 451.371 7.12376C455.652 9.58156 459.195 13.1445 461.628 17.4401C464.062 21.7357 465.296 26.6061 465.203 31.5421C453.244 34.5986 440.501 35.8771 426.996 32.2783L423.909 24.723L422.089 32.2839C417.957 35.1901 413.97 35.1849 410.126 32.2682C409.963 27.3461 411.095 22.4674 413.408 18.1199C415.722 13.7723 419.136 10.1082 423.309 7.49371Z" fill="#2F2E41"/>
<path d="M419.08 485.874H409.251L407.497 476.594L403.004 485.874H376.935C375.686 485.874 374.469 485.475 373.462 484.734C372.456 483.994 371.713 482.951 371.341 481.758C370.969 480.565 370.988 479.284 371.396 478.103C371.803 476.922 372.577 475.902 373.606 475.192L394.423 460.815V451.434L416.319 452.74L419.08 485.874Z" fill="#2F2E41"/>
<path d="M547.981 474.531L538.47 477.01L534.432 468.473L532.425 478.586L507.2 485.161C505.991 485.476 504.712 485.397 503.552 484.934C502.391 484.471 501.408 483.65 500.748 482.589C500.087 481.529 499.782 480.285 499.879 479.039C499.975 477.793 500.467 476.611 501.283 475.664L517.801 456.501L515.435 447.423L536.952 443.165L547.981 474.531Z" fill="#2F2E41"/>
<path d="M532.438 417.361L491.836 333.914L479.091 232.348C487.879 216.027 471.558 182.819 471.558 182.819V168.876L408.338 180.803V180.803C395.407 216.071 389.137 253.433 389.846 290.99L392.393 426H391.594C390.268 426 388.996 426.527 388.058 427.465C387.121 428.402 386.594 429.674 386.594 431C386.594 432.326 387.121 433.598 388.058 434.536C388.996 435.473 390.268 436 391.594 436H416.594C417.92 436 419.192 435.473 420.129 434.536C421.067 433.598 421.594 432.326 421.594 431C421.594 429.674 421.067 428.402 420.129 427.465C419.192 426.527 417.92 426 416.594 426H415.949L433.896 254.243L454.764 339.001L505.194 417.04C503.907 417.141 502.71 417.736 501.853 418.7C500.996 419.665 500.546 420.924 500.598 422.213C500.65 423.502 501.199 424.721 502.131 425.614C503.062 426.506 504.304 427.003 505.594 427H530.594C531.757 427.001 532.883 426.597 533.78 425.856C534.676 425.116 535.286 424.086 535.505 422.944C535.723 421.802 535.536 420.619 534.977 419.6C534.417 418.581 533.519 417.789 532.438 417.361H532.438Z" fill="#2F2E41"/>
<path d="M477.274 191.367H477.274C477.066 190.551 476.605 189.822 475.958 189.284C475.31 188.746 474.509 188.427 473.669 188.372C472.835 178.845 467.329 117.743 467.12 115.951L467.112 115.875L465.517 81.8172C465.459 80.5803 464.948 79.4081 464.08 78.5244C463.213 77.6408 462.05 77.1076 460.815 77.0269L452.394 76.4764C452.279 76.4725 452.169 76.4239 452.089 76.3409C452.008 76.2578 451.963 76.1467 451.963 76.0311C451.963 75.1012 451.78 74.1804 451.424 73.3212C451.069 72.462 450.547 71.6814 449.889 71.0238C449.232 70.3663 448.451 69.8446 447.592 69.4888C446.733 69.1329 445.812 68.9497 444.882 68.9497H419.951C418.336 68.9504 416.777 69.5404 415.566 70.609C414.356 71.6776 413.577 73.1513 413.375 74.7535C413.364 74.8639 413.312 74.9659 413.229 75.0394C413.146 75.1128 413.038 75.1522 412.927 75.1497L412.924 75.1496C410.091 75.0912 407.332 76.0504 405.145 77.8529C402.959 79.6554 401.492 82.1819 401.009 84.9739C397.6 104.805 390.77 149.814 394.147 174.836C395.323 183.547 394.788 196.648 394.344 203.936C394.3 204.64 394.395 205.346 394.624 206.014C394.853 206.681 395.212 207.297 395.679 207.826C394.685 208.112 393.841 208.774 393.325 209.671C392.809 210.567 392.661 211.63 392.913 212.633H392.913C393.172 213.662 393.83 214.545 394.74 215.089C395.651 215.633 396.741 215.793 397.769 215.534L474.373 196.223C475.402 195.964 476.285 195.307 476.829 194.396C477.373 193.485 477.533 192.396 477.274 191.367Z" fill="#3F3D56"/>
<path d="M350.669 334.55C350.654 332.313 349.849 330.154 348.394 328.455C346.94 326.756 344.931 325.627 342.723 325.268L206.909 302.966C205.606 302.75 204.273 302.81 202.995 303.14L171.166 311.37L152.904 316.098L119.201 324.81C117.167 325.338 115.365 326.527 114.079 328.189C112.792 329.852 112.094 331.894 112.094 333.996V476.311C112.104 478.48 112.854 480.581 114.219 482.268C115.585 483.954 117.484 485.124 119.604 485.584L257.941 484.018C258.59 484.157 259.253 484.226 259.917 484.223C260.885 484.225 261.848 484.078 262.771 483.788L344.961 485.834C346.9 485.228 348.593 484.014 349.788 482.37C350.983 480.727 351.616 478.742 351.594 476.71L350.669 334.55Z" fill="white"/>
<path d="M350.669 334.55C350.654 332.313 349.849 330.154 348.394 328.455C346.94 326.756 344.931 325.627 342.723 325.268L206.909 302.966C205.606 302.75 204.273 302.81 202.995 303.14L171.166 311.37L152.904 316.098L119.201 324.81C117.167 325.338 115.365 326.527 114.079 328.189C112.792 329.852 112.094 331.894 112.094 333.996V476.311C112.104 478.48 112.854 480.581 114.219 482.268C115.585 483.954 117.484 485.124 119.604 485.584L257.941 484.018C258.59 484.157 259.253 484.226 259.917 484.223C260.885 484.225 261.848 484.078 262.771 483.788L344.961 485.834C346.9 485.228 348.593 484.014 349.788 482.37C350.983 480.727 351.616 478.742 351.594 476.71L350.669 334.55ZM344.249 483.572L262.06 485.527C260.887 485.893 259.641 485.953 258.439 485.701L120.095 483.268C118.505 482.921 117.081 482.043 116.058 480.778C115.034 479.514 114.473 477.938 114.466 476.311V333.996C114.467 332.539 114.914 331.118 115.748 329.923C116.582 328.729 117.763 327.819 119.13 327.316C119.347 327.234 119.569 327.166 119.794 327.11L155.449 317.892L176.534 312.437L203.588 305.44C204.168 305.286 204.766 305.209 205.367 305.211C205.754 305.211 206.14 305.243 206.521 305.306L342.336 327.608C343.429 327.788 344.465 328.219 345.362 328.868C346.26 329.517 346.994 330.366 347.506 331.348C348.019 332.343 348.29 333.446 348.297 334.566L349.222 476.726C349.239 478.25 348.764 479.739 347.869 480.972C346.973 482.206 345.704 483.117 344.249 483.572Z" fill="#CCCCCC"/>
<path d="M347.506 331.348C347.414 331.409 347.312 331.454 347.206 331.482L307.257 342.282L294.822 345.642L259.451 355.2C259.35 355.225 259.246 355.238 259.142 355.239C259.071 355.238 259 355.233 258.929 355.224L116.307 329.221L115.833 329.134C115.524 329.076 115.251 328.898 115.073 328.639C114.894 328.38 114.826 328.061 114.883 327.752C114.939 327.443 115.116 327.168 115.374 326.989C115.632 326.809 115.95 326.739 116.26 326.794L119.13 327.316L259.095 352.836L289.58 344.598L306.633 339.989L345.964 329.356L346.589 329.19C346.859 329.118 347.145 329.144 347.398 329.263C347.651 329.381 347.854 329.585 347.973 329.838C348.003 329.898 348.027 329.962 348.044 330.028C348.109 330.276 348.092 330.539 347.995 330.777C347.898 331.015 347.726 331.216 347.506 331.348Z" fill="#CCCCCC"/>
<path d="M260.328 484.5C259.678 484.5 259.148 483.977 259.142 487.325L257.956 358.064C257.95 353.41 258.476 352.874 259.131 352.868H259.142C259.792 352.868 260.322 353.391 260.328 358.043L261.514 487.303C261.52 483.958 260.993 484.494 260.339 484.5H260.328Z" fill="#CCCCCC"/>
<path d="M307.593 486L294.821 486.135L289.58 344.598L155.836 317.987C155.705 317.964 155.576 317.932 155.449 317.892C154.422 317.6 153.524 316.967 152.903 316.098L171.166 311.37L176.534 312.437L303.439 337.681C304.106 337.812 304.737 338.087 305.288 338.485C305.839 338.884 306.298 339.397 306.633 339.989C307.028 340.677 307.585 485.178 307.593 486Z" fill="#CCCCCC"/>
<path d="M409.896 75.4896C409.886 73.8041 409.278 72.1768 408.182 70.8964C407.086 69.6159 405.572 68.765 403.908 68.4946L301.551 51.6864C300.57 51.5239 299.565 51.5685 298.602 51.8174L274.614 58.02L260.85 61.583L235.45 68.149C233.917 68.5472 232.559 69.4431 231.59 70.6961C230.62 71.949 230.094 73.4883 230.094 75.0725V158.965C230.101 160.6 230.666 162.184 231.695 163.454C232.725 164.725 234.156 165.607 235.754 165.954L340.012 188.137C340.501 188.242 341.001 188.294 341.501 188.292C342.231 188.293 342.956 188.182 343.652 187.964L405.595 168.403C407.056 167.947 408.332 167.031 409.233 165.793C410.133 164.554 410.61 163.058 410.594 161.527L409.896 75.4896Z" fill="white"/>
<path d="M300.392 57.8469C300.317 57.8468 300.243 57.8564 300.171 57.8755L237.018 74.2072C236.827 74.2567 236.657 74.3685 236.536 74.5249C236.415 74.6813 236.35 74.8735 236.35 75.0712V158.962C236.35 159.167 236.421 159.365 236.549 159.523C236.678 159.682 236.857 159.792 237.056 159.836L341.314 182.018C341.465 182.05 341.622 182.042 341.769 181.996L403.712 162.435C403.895 162.379 404.054 162.264 404.166 162.109C404.279 161.955 404.338 161.768 404.336 161.577L403.641 75.5396C403.64 75.3291 403.564 75.126 403.427 74.9661C403.29 74.8062 403.101 74.7 402.893 74.6663L300.536 57.8586C300.489 57.8509 300.44 57.847 300.392 57.8469Z" fill="#7903C1"/>
<path d="M409.896 75.4896C409.886 73.8041 409.278 72.1768 408.182 70.8964C407.086 69.6159 405.572 68.765 403.908 68.4946L301.551 51.6864C300.57 51.5239 299.565 51.5685 298.602 51.8174L274.614 58.02L260.85 61.583L235.45 68.149C233.917 68.5472 232.559 69.4431 231.59 70.6961C230.62 71.949 230.094 73.4883 230.094 75.0725V158.965C230.101 160.6 230.666 162.184 231.695 163.454C232.725 164.725 234.156 165.607 235.754 165.954L340.012 188.137C340.501 188.242 341.001 188.294 341.501 188.292C342.231 188.293 342.956 188.182 343.652 187.964L405.595 168.403C407.056 167.947 408.332 167.031 409.233 165.793C410.133 164.554 410.61 163.058 410.594 161.527L409.896 75.4896ZM405.058 166.699L343.116 186.26C342.233 186.535 341.293 186.58 340.387 186.391L236.123 164.208C234.925 163.947 233.852 163.285 233.081 162.332C232.31 161.379 231.887 160.191 231.881 158.965V75.0726C231.882 73.9746 232.219 72.9032 232.848 72.003C233.477 71.1027 234.366 70.4168 235.397 70.0378C235.56 69.9764 235.727 69.9247 235.897 69.8829L262.769 62.9356L278.66 58.8244L299.049 53.5513C299.486 53.4346 299.937 53.3765 300.389 53.3785C300.681 53.3784 300.972 53.4023 301.259 53.45L403.616 70.2583C404.44 70.3935 405.221 70.7185 405.897 71.2076C406.574 71.6968 407.127 72.3367 407.513 73.0766C407.9 73.8268 408.104 74.6576 408.109 75.5016L408.806 161.539C408.819 162.688 408.461 163.81 407.786 164.739C407.111 165.669 406.155 166.356 405.058 166.699V166.699Z" fill="#3F3D56"/>
<path d="M407.513 73.0765C407.444 73.1221 407.367 73.1563 407.287 73.1777L377.18 81.3167L367.808 83.849L341.15 91.0525C341.074 91.0712 340.996 91.0812 340.918 91.0823C340.864 91.0813 340.81 91.0773 340.757 91.0704L233.27 71.4736L232.912 71.4081C232.679 71.3646 232.473 71.2304 232.339 71.0352C232.204 70.8399 232.153 70.5993 232.195 70.3661C232.238 70.1329 232.371 69.9261 232.566 69.7908C232.76 69.6556 233.001 69.603 233.234 69.6445L235.397 70.0377L340.882 89.271L363.857 83.0625L376.709 79.5888L406.352 71.5749L406.822 71.4498C407.026 71.3962 407.242 71.4157 407.432 71.505C407.623 71.5943 407.776 71.7477 407.865 71.9384C407.888 71.9839 407.906 72.0319 407.919 72.0814C407.968 72.2687 407.955 72.467 407.882 72.6464C407.809 72.8258 407.679 72.9767 407.513 73.0765Z" fill="#3F3D56"/>
<path d="M341.811 188.5C341.575 188.5 341.349 188.407 341.182 188.241C341.014 188.075 340.919 187.85 340.917 187.615L340.023 90.1968C340.021 89.9598 340.113 89.7317 340.28 89.5625C340.446 89.3934 340.672 89.2971 340.909 89.2949H340.917C341.153 89.2949 341.379 89.388 341.546 89.5538C341.714 89.7197 341.809 89.9449 341.811 90.1805L342.705 187.598C342.707 187.835 342.615 188.063 342.449 188.233C342.283 188.402 342.056 188.498 341.819 188.5H341.811Z" fill="#3F3D56"/>
<path d="M377.179 176.649L367.807 179.181L363.856 83.0626L263.06 63.007C262.961 62.9896 262.864 62.9657 262.768 62.9355C261.994 62.7151 261.317 62.2382 260.85 61.583L274.613 58.02L278.659 58.8244L374.301 77.8492C374.804 77.9485 375.28 78.1554 375.695 78.4557C376.11 78.756 376.456 79.1425 376.708 79.5889C377.006 80.1073 377.173 176.029 377.179 176.649Z" fill="#3F3D56"/>
<path d="M372.981 121.846C373.46 122.256 373.906 122.703 374.316 123.183L430.462 116.626L435.922 104.026L456.016 109.781L448.517 133.027C447.911 134.905 446.712 136.536 445.101 137.674C443.489 138.813 441.552 139.398 439.579 139.342L375.294 137.515C373.969 139.552 372.056 141.137 369.808 142.059C367.56 142.982 365.085 143.198 362.711 142.68C360.337 142.161 358.178 140.932 356.519 139.156C354.861 137.38 353.783 135.142 353.428 132.738C353.073 130.334 353.459 127.88 354.533 125.7C355.607 123.521 357.319 121.72 359.442 120.538C361.565 119.355 363.997 118.847 366.415 119.081C368.834 119.315 371.124 120.279 372.981 121.846Z" fill="#FFB6B6"/>
<path d="M429.145 113.718C428.84 113.047 428.683 112.318 428.685 111.581C428.687 110.844 428.848 110.116 429.157 109.447L439.944 86.0725C441.004 82.4531 443.456 79.4017 446.762 77.5872C450.068 75.7728 453.959 75.3436 457.581 76.3936C461.203 77.4436 464.261 79.8872 466.085 83.1885C467.908 86.4898 468.348 90.3795 467.308 94.0045L463.755 119.586C463.653 120.316 463.396 121.016 462.999 121.637C462.603 122.259 462.078 122.788 461.459 123.188C460.84 123.588 460.142 123.85 459.412 123.956C458.683 124.062 457.939 124.01 457.232 123.802L432.372 116.517C431.664 116.31 431.01 115.953 430.453 115.47C429.896 114.987 429.45 114.389 429.145 113.718Z" fill="#3F3D56"/>
<path d="M617.485 487.041H1.19113C0.87594 487.04 0.573962 486.914 0.35141 486.691C0.128858 486.468 0.00390625 486.166 0.00390625 485.85C0.00390625 485.535 0.128858 485.233 0.35141 485.01C0.573962 484.786 0.87594 484.661 1.19113 484.66H617.485C617.801 484.66 618.104 484.785 618.327 485.008C618.55 485.232 618.676 485.535 618.676 485.85C618.676 486.166 618.55 486.469 618.327 486.692C618.104 486.916 617.801 487.041 617.485 487.041Z" fill="#CACACA"/>
<path d="M120.113 360.524C139.891 360.524 155.924 344.49 155.924 324.713C155.924 304.935 139.891 288.902 120.113 288.902C100.335 288.902 84.3018 304.935 84.3018 324.713C84.3018 344.49 100.335 360.524 120.113 360.524Z" fill="#7903C1"/>
<path d="M115.227 343.351C114.609 343.351 113.999 343.207 113.446 342.93C112.893 342.653 112.412 342.252 112.041 341.757L102.271 328.73C101.637 327.885 101.365 326.823 101.515 325.777C101.664 324.731 102.223 323.787 103.068 323.154C103.913 322.52 104.976 322.248 106.021 322.397C107.067 322.546 108.011 323.105 108.645 323.95L115.037 332.472L131.453 307.848C131.742 307.411 132.115 307.035 132.55 306.743C132.985 306.45 133.473 306.246 133.987 306.142C134.501 306.039 135.03 306.038 135.544 306.139C136.059 306.24 136.548 306.442 136.984 306.733C137.42 307.023 137.795 307.398 138.086 307.833C138.377 308.269 138.58 308.758 138.682 309.272C138.784 309.786 138.783 310.316 138.68 310.829C138.577 311.343 138.374 311.832 138.082 312.267L118.542 341.577C118.189 342.107 117.713 342.544 117.156 342.853C116.598 343.161 115.975 343.332 115.338 343.349C115.301 343.35 115.264 343.351 115.227 343.351Z" fill="white"/>
<path d="M272.595 134.5C272.483 134.5 272.372 134.488 272.264 134.463L241.264 127.463C240.876 127.375 240.539 127.137 240.327 126.801C240.115 126.465 240.045 126.058 240.132 125.67C240.22 125.283 240.458 124.945 240.794 124.733C241.13 124.52 241.536 124.45 241.924 124.537L272.924 131.537C273.284 131.618 273.601 131.829 273.815 132.129C274.029 132.43 274.125 132.799 274.084 133.166C274.044 133.532 273.869 133.871 273.595 134.117C273.32 134.364 272.964 134.5 272.595 134.5Z" fill="white"/>
<path d="M153.289 416.236C153.18 416.259 153.069 416.269 152.957 416.268L121.181 415.732C120.784 415.725 120.406 415.56 120.13 415.274C119.854 414.989 119.703 414.605 119.709 414.208C119.716 413.81 119.88 413.432 120.165 413.155C120.45 412.879 120.834 412.727 121.231 412.733L153.007 413.268C153.376 413.274 153.73 413.416 154 413.667C154.271 413.917 154.44 414.259 154.475 414.626C154.51 414.993 154.408 415.361 154.189 415.658C153.971 415.955 153.65 416.161 153.289 416.236Z" fill="#E6E6E6"/>
<path d="M164.289 433.236C164.18 433.259 164.069 433.269 163.957 433.268L132.181 432.732C131.784 432.725 131.406 432.56 131.13 432.274C130.854 431.989 130.703 431.605 130.709 431.208C130.716 430.81 130.88 430.432 131.165 430.155C131.45 429.879 131.834 429.727 132.231 429.733L164.007 430.268C164.376 430.274 164.73 430.416 165 430.667C165.271 430.917 165.44 431.259 165.475 431.626C165.51 431.993 165.408 432.361 165.189 432.658C164.971 432.955 164.65 433.161 164.289 433.236Z" fill="#E6E6E6"/>
</g>
<defs>
<clipPath id="clip0_92_876">
<rect width="618.675" height="487.325" fill="white"/>
</clipPath>
</defs>
</svg>
