<svg width="814" height="341" viewBox="0 0 814 341" fill="none" xmlns="http://www.w3.org/2000/svg">
<g clip-path="url(#clip0_90_850)">
<path d="M613.382 146.658V83.1592C613.382 76.8278 618.53 71.6771 624.859 71.6771H666.382C672.71 71.6771 677.859 76.8278 677.859 83.1592V146.658C677.859 152.99 672.71 158.141 666.382 158.141H624.859C618.53 158.141 613.382 152.99 613.382 146.658Z" fill="#7903C1"/>
<path d="M634.645 99.1259H656.595V93.6361H634.645V99.1259Z" fill="#3F3D56"/>
<path d="M640.133 89.5188H651.107V71.6771H640.133V89.5188Z" fill="#3F3D56"/>
<path d="M640.133 158.141H651.107V140.299H640.133V158.141Z" fill="#3F3D56"/>
<path d="M583.887 149.225H520.415C514.086 149.225 508.938 144.074 508.938 137.743V96.2024C508.938 89.871 514.086 84.7203 520.415 84.7203H583.887C590.216 84.7203 595.364 89.871 595.364 96.2024V137.743C595.364 144.074 590.216 149.225 583.887 149.225Z" fill="#7903C1"/>
<path d="M564.497 93.6411H542.548V99.1309H564.497V93.6411Z" fill="#3F3D56"/>
<path d="M526.771 122.462V111.483H508.937V122.462H526.771Z" fill="#3F3D56"/>
<path d="M595.364 122.462V111.483H577.53V122.462H595.364Z" fill="#3F3D56"/>
<path d="M69.0128 267.966L58.4167 206.129C53.7084 178.652 74.0366 153.225 101.866 151.783L252.922 143.956L288.974 84.5131C293.753 76.6326 302.298 71.8202 311.512 71.8202H420.05C428.582 71.8202 435.791 78.1497 436.898 86.6128L439.654 134.177L710.253 134.987L744.293 247.218L712.696 245.677L714.317 279.719L672.998 281.34L659.224 242.376C656.63 235.04 645.265 226.767 633.452 219.846C606.97 204.33 572.947 209.31 552.906 232.562C548.178 238.048 544.873 243.763 543.95 249.122L537.699 285.392L234.693 280.529L194.982 224.955C183.249 212.182 127.864 207.49 122.876 224.955L92.9129 269.182L69.0128 267.966H69.0128Z" fill="#E6E6E6"/>
<path d="M398.346 107.991L407.26 150.035L293.836 152.467L317.792 101.011C319.965 96.3429 324.735 93.4448 329.878 93.6685L384.23 96.0326C391.11 96.3319 396.917 101.251 398.346 107.991V107.991Z" fill="white"/>
<path d="M278.443 149.225L301.128 90.8675L295.189 84.9258L258.188 141.12L265.707 152.467L278.443 149.225Z" fill="white"/>
<path d="M603.322 338.886C632.854 338.886 656.794 314.936 656.794 285.392C656.794 255.848 632.854 231.898 603.322 231.898C573.791 231.898 549.851 255.848 549.851 285.392C549.851 314.936 573.791 338.886 603.322 338.886Z" fill="#3F3D56"/>
<path d="M566.459 285.392C566.459 265.057 582.996 248.514 603.322 248.514C623.648 248.514 640.185 265.057 640.185 285.392C640.185 305.727 623.648 322.271 603.322 322.271C582.996 322.271 566.459 305.727 566.459 285.392ZM567.269 285.392C567.269 305.28 583.442 321.46 603.322 321.46C623.202 321.46 639.375 305.28 639.375 285.392C639.375 265.504 623.202 249.324 603.322 249.324C583.442 249.324 567.269 265.504 567.269 285.392Z" fill="white"/>
<path d="M571.726 285.392C571.726 302.85 585.872 317.003 603.322 317.003C620.773 317.003 634.919 302.85 634.919 285.392C634.919 267.934 620.773 253.782 603.322 253.782C585.872 253.782 571.726 267.934 571.726 285.392ZM623.861 277.823L618.263 281.473L616.112 278.171L623.861 277.823ZM615.339 296.387L616.829 292.74L621.524 298.917L615.339 296.387ZM601.004 308.897L604.943 302.212V308.897H601.004ZM601.004 270.193L604.943 263.508V270.193H601.004ZM583.501 298.917L588.195 292.74L589.686 296.387L583.501 298.917ZM581.163 277.823L588.912 278.171L586.761 281.473L581.163 277.823Z" fill="#E6E6E6"/>
<path d="M154.486 338.886C184.018 338.886 207.958 314.936 207.958 285.392C207.958 255.848 184.018 231.898 154.486 231.898C124.955 231.898 101.015 255.848 101.015 285.392C101.015 314.936 124.955 338.886 154.486 338.886Z" fill="#3F3D56"/>
<path d="M117.623 285.392C117.623 265.057 134.16 248.514 154.486 248.514C174.812 248.514 191.349 265.057 191.349 285.392C191.349 305.727 174.812 322.271 154.486 322.271C134.16 322.271 117.623 305.727 117.623 285.392ZM118.433 285.392C118.433 305.28 134.606 321.46 154.486 321.46C174.366 321.46 190.539 305.28 190.539 285.392C190.539 265.504 174.366 249.324 154.486 249.324C134.606 249.324 118.433 265.504 118.433 285.392Z" fill="white"/>
<path d="M122.889 285.392C122.889 302.85 137.035 317.003 154.485 317.003C171.936 317.003 186.082 302.85 186.082 285.392C186.082 267.934 171.936 253.782 154.485 253.782C137.035 253.782 122.889 267.934 122.889 285.392ZM175.024 277.823L169.426 281.473L167.275 278.171L175.024 277.823ZM166.502 296.387L167.993 292.74L172.687 298.917L166.502 296.387ZM152.167 308.897L156.106 302.212V308.897H152.167ZM152.167 270.193L156.106 263.508V270.193H152.167ZM134.664 298.917L139.358 292.74L140.849 296.387L134.664 298.917ZM132.326 277.823L140.075 278.171L137.924 281.473L132.326 277.823Z" fill="#E6E6E6"/>
<path d="M377.689 171.514H408.476V165.03H377.689V171.514Z" fill="#3F3D56"/>
<path d="M811.623 298.802C811.336 297.923 809.161 298.31 808.953 297.524C808.745 296.741 810.832 296.085 812.432 293.879C812.721 293.481 814.54 290.973 813.842 289.919C812.52 287.92 803.319 292.898 801.111 290.105C800.626 289.491 800.427 288.439 798.983 286.48C798.409 285.701 798.04 285.324 797.6 285.336C796.975 285.351 796.752 286.133 795.77 287.55C794.297 289.674 793.766 289.407 792.796 291.147C792.075 292.439 791.99 293.265 791.471 293.314C790.736 293.382 790.432 291.774 789.534 291.712C788.618 291.648 787.701 293.237 787.247 294.479C786.394 296.809 786.922 298.591 787.039 300.366C787.166 302.295 786.867 305.119 784.772 308.743L765.011 340.241C769.255 333.82 781.302 316.31 786.155 309.887C787.557 308.033 789.062 306.172 791.38 305.821C793.611 305.484 796.326 306.588 800.116 306.524C800.558 306.517 801.79 306.48 802.089 305.827C802.337 305.287 801.722 304.818 801.946 304.31C802.246 303.629 803.596 303.921 805.436 303.469C806.733 303.15 807.615 302.624 808.373 302.171C808.601 302.034 812.005 299.971 811.623 298.802H811.623Z" fill="#F2F2F2"/>
<path d="M759.865 306.156C759.351 306.043 758.913 307.223 758.467 307.099C758.023 306.975 758.303 305.761 757.683 304.338C757.571 304.082 756.865 302.465 756.147 302.503C754.785 302.576 754.572 308.53 752.565 308.808C752.124 308.869 751.55 308.663 750.172 308.807C749.624 308.864 749.333 308.937 749.212 309.156C749.039 309.467 749.358 309.803 749.77 310.694C750.387 312.03 750.103 312.214 750.677 313.192C751.103 313.918 751.483 314.198 751.357 314.468C751.179 314.848 750.302 314.533 750.013 314.956C749.717 315.388 750.232 316.296 750.71 316.878C751.608 317.969 752.634 318.224 753.538 318.678C754.522 319.173 755.821 320.134 756.994 322.209L766.746 341C764.82 337.063 759.705 326.096 757.955 321.86C757.449 320.637 756.971 319.36 757.467 318.121C757.946 316.928 759.271 315.914 760.333 314.034C760.457 313.815 760.794 313.2 760.56 312.864C760.367 312.587 759.959 312.753 759.775 312.497C759.527 312.153 760.06 311.575 760.369 310.541C760.587 309.812 760.583 309.227 760.579 308.724C760.578 308.572 760.548 306.306 759.865 306.156V306.156V306.156Z" fill="#F2F2F2"/>
<path d="M769.593 310.741L769.899 307.91L770.087 307.732C770.957 306.91 771.501 306.038 771.705 305.142C771.738 304.999 771.763 304.855 771.789 304.708C771.89 304.126 772.017 303.402 772.576 302.651C772.889 302.232 773.717 301.286 774.571 301.616C774.802 301.703 774.958 301.852 775.066 302.011C775.093 301.983 775.121 301.956 775.15 301.926C775.519 301.567 775.777 301.436 776.026 301.309C776.217 301.212 776.414 301.112 776.748 300.845C776.895 300.728 777.012 300.622 777.111 300.534C777.41 300.266 777.794 299.952 778.319 300.077C778.875 300.229 779.066 300.76 779.193 301.112C779.419 301.739 779.489 302.17 779.535 302.456C779.551 302.561 779.571 302.679 779.585 302.717C779.707 303.024 781.236 303.103 781.812 303.137C783.105 303.207 784.225 303.268 784.494 304.154C784.687 304.788 784.284 305.479 783.263 306.263C782.945 306.507 782.627 306.676 782.349 306.801C782.52 306.963 782.656 307.182 782.664 307.481C782.683 308.188 781.958 308.73 780.51 309.096C780.15 309.188 779.666 309.309 779.033 309.279C778.734 309.264 778.473 309.218 778.25 309.175C778.217 309.302 778.156 309.434 778.046 309.56C777.724 309.929 777.203 310.023 776.497 309.815C775.717 309.597 775.101 309.301 774.557 309.042C774.082 308.815 773.672 308.622 773.329 308.569C772.689 308.479 772.093 308.874 771.38 309.399L769.593 310.741L769.593 310.741Z" fill="#F2F2F2"/>
<path d="M774.693 294.616L771.878 295.037L771.659 294.9C770.643 294.267 769.663 293.962 768.744 293.992C768.598 293.996 768.452 294.009 768.304 294.021C767.715 294.07 766.983 294.131 766.115 293.781C765.63 293.584 764.505 293.023 764.608 292.112C764.633 291.867 764.738 291.679 764.864 291.534C764.831 291.515 764.797 291.495 764.761 291.474C764.32 291.207 764.128 290.991 763.943 290.783C763.8 290.622 763.653 290.457 763.31 290.202C763.16 290.09 763.028 290.003 762.917 289.93C762.582 289.708 762.182 289.416 762.169 288.876C762.175 288.299 762.64 287.98 762.948 287.768C763.497 287.39 763.897 287.213 764.161 287.096C764.258 287.054 764.367 287.005 764.401 286.981C764.667 286.786 764.356 285.285 764.242 284.72C763.982 283.451 763.756 282.352 764.545 281.867C765.109 281.519 765.879 281.733 766.897 282.523C767.213 282.769 767.457 283.034 767.649 283.27C767.761 283.064 767.939 282.877 768.226 282.794C768.905 282.596 769.613 283.16 770.334 284.469C770.514 284.793 770.754 285.231 770.885 285.852C770.947 286.144 770.969 286.409 770.984 286.635C771.115 286.635 771.258 286.66 771.407 286.735C771.846 286.953 772.069 287.433 772.047 288.169C772.034 288.979 771.905 289.651 771.791 290.243C771.693 290.76 771.61 291.206 771.646 291.552C771.721 292.193 772.254 292.669 772.943 293.226L774.694 294.616H774.693L774.693 294.616Z" fill="#F2F2F2"/>
<path d="M775.073 286.159L775.38 283.328L775.568 283.15C776.437 282.327 776.982 281.456 777.186 280.559C777.218 280.417 777.243 280.273 777.269 280.126C777.371 279.544 777.497 278.82 778.057 278.069C778.37 277.65 779.198 276.703 780.052 277.034C780.282 277.12 780.438 277.27 780.546 277.428C780.573 277.401 780.601 277.373 780.631 277.344C781 276.985 781.258 276.854 781.506 276.727C781.698 276.63 781.895 276.53 782.229 276.262C782.375 276.145 782.492 276.04 782.591 275.951C782.891 275.684 783.274 275.37 783.799 275.494C784.356 275.647 784.547 276.178 784.673 276.529C784.9 277.157 784.969 277.588 785.015 277.874C785.032 277.979 785.051 278.096 785.066 278.134C785.187 278.442 786.717 278.521 787.292 278.554C788.586 278.625 789.705 278.685 789.974 279.571C790.167 280.205 789.765 280.897 788.743 281.681C788.425 281.925 788.107 282.093 787.83 282.219C788 282.38 788.136 282.6 788.144 282.898C788.163 283.605 787.438 284.148 785.99 284.514C785.63 284.605 785.146 284.727 784.513 284.696C784.215 284.682 783.953 284.636 783.731 284.593C783.697 284.72 783.637 284.852 783.527 284.977C783.204 285.347 782.684 285.44 781.977 285.232C781.197 285.015 780.581 284.719 780.037 284.459C779.562 284.233 779.153 284.039 778.809 283.986C778.17 283.897 777.574 284.292 776.861 284.817L775.073 286.159L775.073 286.159Z" fill="#F2F2F2"/>
<path d="M765.945 340.403L765.447 339.911L765.456 339.211L765.447 339.911L764.755 339.837C764.759 339.772 764.754 339.62 764.749 339.382C764.722 338.08 764.64 334.116 765.191 328.026C765.577 323.775 766.22 319.46 767.105 315.198C767.991 310.929 768.91 307.753 769.648 305.201C770.206 303.276 770.768 301.449 771.317 299.671C772.783 294.918 774.166 290.429 775.023 285.309C775.215 284.166 775.613 281.786 774.798 278.978C774.325 277.349 773.515 275.816 772.39 274.423L773.479 273.543C774.72 275.083 775.616 276.781 776.141 278.589C777.045 281.703 776.611 284.295 776.403 285.541C775.531 290.752 774.133 295.284 772.654 300.082C772.107 301.855 771.547 303.673 770.992 305.59C770.26 308.119 769.349 311.267 768.475 315.481C767.6 319.692 766.965 323.954 766.584 328.152C766.039 334.166 766.121 338.07 766.148 339.353C766.162 340.038 766.165 340.181 765.945 340.403V340.403Z" fill="#F2F2F2"/>
<path d="M769.403 276.034C769.347 276.021 769.291 276.007 769.234 275.991C768.086 275.669 767.164 274.732 766.495 273.208C766.182 272.491 766.108 271.737 765.961 270.233C765.937 270.001 765.835 268.827 765.961 267.272C766.043 266.255 766.152 265.847 766.428 265.527C766.735 265.17 767.149 264.965 767.586 264.862C767.598 264.728 767.642 264.596 767.729 264.472C768.089 263.954 768.691 264.167 769.017 264.277C769.182 264.336 769.387 264.412 769.618 264.45C769.98 264.513 770.196 264.449 770.524 264.355C770.838 264.263 771.227 264.15 771.766 264.16C772.829 264.174 773.616 264.652 773.876 264.81C775.242 265.631 775.714 266.942 776.26 268.46C776.369 268.764 776.729 269.863 776.813 271.279C776.873 272.301 776.739 272.719 776.586 273.018C776.273 273.633 775.793 273.918 774.602 274.517C773.358 275.145 772.733 275.46 772.222 275.621C771.031 275.995 770.283 276.23 769.403 276.034V276.034V276.034Z" fill="#F2F2F2"/>
<path d="M0 339.187C0 339.722 0.749638 340.151 1.68315 340.151H805.19C806.124 340.151 806.873 339.722 806.873 339.187C806.873 338.652 806.124 338.222 805.19 338.222H1.68315C0.749638 338.222 0 338.652 0 339.187Z" fill="#CCCCCC"/>
<path d="M408.28 333.097L419.529 333.095L424.88 289.688L408.277 289.689L408.28 333.097Z" fill="#FFB6B6"/>
<path d="M446.821 332.841C447.171 333.431 447.356 335.336 447.356 336.022C447.356 338.132 445.646 339.842 443.538 339.842L408.701 339.842C407.262 339.842 406.096 338.675 406.096 337.236V335.785C406.096 335.785 404.373 331.424 407.921 326.049C407.921 326.049 412.331 330.258 418.92 323.666L420.863 320.144L434.929 330.436L442.725 331.396C444.431 331.606 445.943 331.363 446.82 332.841H446.82L446.821 332.841Z" fill="#2F2E41"/>
<path d="M357.739 333.097L368.988 333.095L374.339 289.688L357.736 289.689L357.739 333.097Z" fill="#FFB6B6"/>
<path d="M396.279 332.841C396.63 333.431 396.815 335.336 396.815 336.022C396.815 338.132 395.105 339.842 392.997 339.842L358.16 339.842C356.721 339.842 355.555 338.675 355.555 337.236V335.785C355.555 335.785 353.832 331.424 357.38 326.049C357.38 326.049 361.79 330.258 368.379 323.666L370.322 320.144L384.388 330.436L392.184 331.396C393.89 331.606 395.402 331.363 396.279 332.841H396.279L396.279 332.841Z" fill="#2F2E41"/>
<path d="M406.498 36.6968L408.633 56.6368L383.719 54.5004L387.99 35.9846L406.498 36.6968Z" fill="#FFB6B6"/>
<path opacity="0.1" d="M406.498 36.6968L408.633 56.6368L383.719 54.5004L387.99 35.9846L406.498 36.6968Z" fill="black"/>
<path d="M397.6 39.1892C406.642 39.1892 413.972 31.8559 413.972 22.8099C413.972 13.7638 406.642 6.43054 397.6 6.43054C388.558 6.43054 381.228 13.7638 381.228 22.8099C381.228 31.8559 388.558 39.1892 397.6 39.1892Z" fill="#FFB6B6"/>
<path d="M408.277 48.4471L435.683 64.4704L426.704 107.911L432.836 166.307L428.565 309.448L402.227 306.6L398.668 184.823L378.024 310.873H352.448L356.669 174.853L369.482 117.169L361.652 54.5004L385.498 47.0228L408.277 48.4471Z" fill="#2F2E41"/>
<path d="M409.345 27.4388C409.345 27.4388 410.769 22.4538 413.972 22.8099C417.176 23.166 417.887 20.3174 417.176 18.8931C416.464 17.4688 415.04 10.3473 415.04 10.3473C415.04 10.3473 415.752 5.36232 411.481 4.65018C407.21 3.93804 405.786 3.22589 405.074 1.8016C404.363 0.377308 393.685 -1.04698 390.126 1.08945C386.566 3.22589 383.719 7.32493 381.228 8.48007C378.736 9.6352 376.601 11.7716 378.024 15.3324C379.448 18.8931 381.513 25.8571 381.513 25.8571C381.513 25.8571 385.143 24.5903 385.855 26.7267C386.566 28.8631 383.719 26.0145 387.278 20.3174C390.838 14.6202 390.838 8.92306 396.532 11.0595C402.227 13.1959 408.634 12.4838 407.922 16.7567C407.21 21.0295 409.345 27.4388 409.345 27.4388L409.345 27.4388Z" fill="#2F2E41"/>
<path d="M421.551 153.532C418.125 157.162 417.219 161.872 419.528 164.053C421.837 166.235 426.486 165.06 429.913 161.429C431.302 159.997 432.328 158.253 432.905 156.344L447.229 140.782L439.786 134.213L426.456 150.252C424.582 150.938 422.9 152.063 421.551 153.532Z" fill="#FFB6B6"/>
<path d="M435.395 64.1144L459.516 105.227L463.089 123.995L439.862 153.489L430.035 140.976L441.648 123.995L422.888 90.9267L435.395 64.1144Z" fill="#2F2E41"/>
<path d="M367.577 149.704V101.231C367.577 93.8426 373.585 87.8323 380.97 87.8323H455.036C462.421 87.8323 468.428 93.8426 468.428 101.231V149.704C468.428 157.092 462.421 163.103 455.036 163.103H380.97C373.585 163.103 367.577 157.092 367.577 149.704Z" fill="#7903C1"/>
<path d="M403.595 118.427H429.208V112.021H403.595V118.427Z" fill="#3F3D56"/>
<path d="M427.109 162.673V149.861H406.299V162.673H427.109Z" fill="#3F3D56"/>
<path d="M428.086 101.074V88.2617H407.275V101.074H428.086Z" fill="#3F3D56"/>
<path d="M375.072 144.274C378.499 147.904 379.404 152.614 377.095 154.796C374.786 156.977 370.137 155.802 366.71 152.171C365.321 150.739 364.295 148.996 363.718 147.086L349.395 131.524L356.837 124.955L370.168 140.994C372.041 141.68 373.723 142.805 375.072 144.274Z" fill="#FFB6B6"/>
<path d="M361.228 54.8564L337.108 95.9686L333.534 114.737L356.762 144.231L366.589 131.718L354.975 114.737L373.735 81.6687L361.228 54.8564Z" fill="#2F2E41"/>
<path d="M61.3024 250.892C73.3835 250.892 83.1772 242.364 83.1772 231.844C83.1772 221.325 73.3835 212.797 61.3024 212.797C49.2214 212.797 39.4277 221.325 39.4277 231.844C39.4277 242.364 49.2214 250.892 61.3024 250.892Z" fill="#E6E6E6"/>
</g>
<defs>
<clipPath id="clip0_90_850">
<rect width="814" height="341" fill="white"/>
</clipPath>
</defs>
</svg>
