<svg width="703" height="503" viewBox="0 0 703 503" fill="none" xmlns="http://www.w3.org/2000/svg">
<g clip-path="url(#clip0_79_1290)">
<path d="M682.216 147.4H297.525C292.11 147.404 286.919 149.556 283.09 153.383C279.261 157.209 277.107 162.398 277.103 167.809V230.113C277.107 235.525 279.261 240.713 283.09 244.54C286.919 248.366 292.11 250.518 297.525 250.523H682.216C687.631 250.518 692.823 248.366 696.652 244.54C700.481 240.713 702.634 235.525 702.639 230.113V167.809C702.634 162.398 700.481 157.209 696.652 153.383C692.823 149.556 687.631 147.404 682.216 147.4Z" fill="#F2F2F2"/>
<path d="M154.271 503H1.22437C0.89965 503 0.588206 502.871 0.358591 502.642C0.128977 502.412 0 502.101 0 501.776C0 501.452 0.128977 501.141 0.358591 500.911C0.588206 500.682 0.89965 500.553 1.22437 500.553H154.271C154.596 500.553 154.907 500.682 155.137 500.911C155.367 501.141 155.496 501.452 155.496 501.776C155.496 502.101 155.367 502.412 155.137 502.642C154.907 502.871 154.596 503 154.271 503Z" fill="#3F3D56"/>
<path d="M131.799 119.886C130.38 120.781 129.174 121.976 128.267 123.388C127.36 124.799 126.774 126.392 126.549 128.054C126.325 129.717 126.468 131.408 126.969 133.009C127.469 134.61 128.315 136.082 129.446 137.321L118.319 161.066L131.109 171.342L146.35 137.59C148.307 135.553 149.449 132.869 149.558 130.047C149.667 127.225 148.737 124.461 146.944 122.279C145.15 120.096 142.618 118.647 139.826 118.206C137.035 117.765 134.179 118.363 131.799 119.886V119.886Z" fill="#FFB8B8"/>
<path d="M67.8609 129.521C71.3822 127.408 75.5825 126.729 79.5908 127.627C83.599 128.525 87.1077 130.93 89.389 134.344L112.156 168.412L120.06 150.998C120.553 149.911 121.428 149.041 122.518 148.553C123.608 148.065 124.84 147.992 125.98 148.349L137.91 152.073C138.533 152.267 139.111 152.584 139.61 153.005C140.109 153.426 140.518 153.943 140.814 154.524C141.11 155.106 141.287 155.741 141.334 156.392C141.381 157.043 141.298 157.696 141.088 158.314L132.922 182.412C131.889 185.46 130.163 188.228 127.88 190.497C125.596 192.767 122.818 194.477 119.762 195.492C116.706 196.508 113.456 196.802 110.268 196.352C107.079 195.901 104.038 194.718 101.384 192.895C100.144 192.044 98.9995 191.06 97.9712 189.962L64.4203 154.136C62.7911 152.396 61.5718 150.314 60.8518 148.043C60.1318 145.771 59.9293 143.368 60.2592 141.008C60.5891 138.648 61.4429 136.391 62.7582 134.404C64.0735 132.417 65.817 130.748 67.8609 129.521Z" fill="#CCCCCC"/>
<path d="M141.511 94.3208C142.122 94.336 142.702 94.5931 143.123 95.0357C143.545 95.4782 143.773 96.0699 143.758 96.6806L143.561 104.588L143.958 104.624L143.816 109.995L143.428 109.947L142.724 138.276C142.7 139.246 142.324 140.173 141.665 140.886C141.007 141.599 140.112 142.048 139.147 142.149L121.122 144.046C120.683 144.092 120.239 144.042 119.822 143.898C119.404 143.755 119.023 143.522 118.706 143.216C118.388 142.91 118.141 142.539 117.982 142.127C117.823 141.716 117.756 141.275 117.786 140.835L120.52 100.496C120.577 99.6486 120.922 98.8461 121.496 98.2202C122.07 97.5943 122.841 97.1823 123.68 97.052L141.081 94.3504C141.223 94.3271 141.367 94.3173 141.511 94.3208Z" fill="#3F3D56"/>
<path d="M127.56 98.5192L136.708 97.099C136.873 97.0734 137.024 96.9944 137.139 96.874C137.254 96.7536 137.327 96.5986 137.345 96.4331C137.365 96.2456 137.447 96.0701 137.577 95.9337C137.708 95.7974 137.88 95.7078 138.066 95.6788L139.993 95.3797C140.256 95.3388 140.525 95.3562 140.78 95.4305C141.036 95.5048 141.272 95.6342 141.472 95.8096C141.672 95.985 141.831 96.2021 141.937 96.4457C142.044 96.6892 142.096 96.9532 142.09 97.2191L141.1 138.292C141.087 138.801 140.888 139.289 140.539 139.66C140.19 140.032 139.716 140.263 139.208 140.308L121.196 141.908C120.966 141.929 120.735 141.9 120.518 141.822C120.3 141.745 120.102 141.622 119.937 141.461C119.771 141.301 119.643 141.106 119.559 140.891C119.476 140.676 119.44 140.446 119.454 140.216L121.884 100.25C121.92 99.6608 122.156 99.1019 122.554 98.6658C122.951 98.2296 123.486 97.9424 124.07 97.8518L126.101 97.5364C126.175 97.8539 126.367 98.1314 126.638 98.3136C126.908 98.4958 127.238 98.5693 127.56 98.5192Z" fill="white"/>
<path d="M85.1211 488.147L99.1182 488.146L105.775 434.191L85.1162 434.193L85.1211 488.147Z" fill="#FFB8B8"/>
<path d="M126.114 501.133L82.1228 501.137L82.1213 484.151L109.116 484.149C111.348 484.149 113.558 484.588 115.621 485.441C117.683 486.295 119.556 487.546 121.135 489.123C122.713 490.7 123.966 492.572 124.82 494.633C125.674 496.694 126.114 498.903 126.114 501.133L126.114 501.133Z" fill="#2F2E41"/>
<path d="M42.1016 488.147L56.0986 488.146L62.7556 434.191L42.0967 434.193L42.1016 488.147Z" fill="#FFB8B8"/>
<path d="M83.0947 501.133L39.1033 501.137L39.1017 484.151L66.0965 484.149C70.6043 484.149 74.9277 485.938 78.1154 489.123C81.3032 492.308 83.0943 496.628 83.0947 501.133L83.0947 501.133Z" fill="#2F2E41"/>
<path d="M83.0944 111.184C99.7026 111.184 113.166 97.7289 113.166 81.1312C113.166 64.5336 99.7026 51.0785 83.0944 51.0785C66.4861 51.0785 53.0225 64.5336 53.0225 81.1312C53.0225 97.7289 66.4861 111.184 83.0944 111.184Z" fill="#FFB8B8"/>
<path d="M98.5709 161.537C98.3253 153.81 96.1487 146.268 92.2395 139.597C88.3303 132.926 82.8128 127.34 76.1898 123.346C68.4208 118.77 59.9169 116.986 53.1514 123.747C49.089 127.909 45.8357 132.789 43.5573 138.138C37.2989 152.716 36.8895 169.14 42.4137 184.011L58.5161 228.469L95.7851 232.504C96.4851 232.58 97.1933 232.504 97.8613 232.281C98.5293 232.059 99.1414 231.695 99.6559 231.214C100.17 230.734 100.575 230.149 100.843 229.498C101.11 228.847 101.234 228.146 101.206 227.443L98.5709 161.537Z" fill="#2F2E41"/>
<path d="M60.8795 222.994C60.8795 222.994 33.0356 233.382 40.3153 277.369C46.8478 316.84 41.6565 447.852 40.5219 474.335C40.4679 475.597 40.9048 476.831 41.7412 477.779C42.5775 478.726 43.7484 479.313 45.0083 479.417L61.2619 480.771C62.5349 480.877 63.7991 480.482 64.7846 479.669C65.7701 478.857 66.3991 477.692 66.5373 476.423L74.9316 399.369C74.9645 399.066 75.109 398.787 75.3368 398.585C75.5646 398.384 75.8594 398.274 76.1637 398.278C76.468 398.281 76.7601 398.398 76.9829 398.605C77.2057 398.813 77.3433 399.095 77.3688 399.398L83.6238 473.542C83.7292 474.792 84.3102 475.953 85.247 476.786C86.1838 477.62 87.4051 478.063 88.6589 478.023L102.311 477.592C102.954 477.571 103.587 477.424 104.174 477.159C104.76 476.894 105.289 476.516 105.729 476.047C106.169 475.578 106.512 475.026 106.739 474.424C106.966 473.822 107.072 473.182 107.051 472.539L99.0089 228.132L60.8795 222.994Z" fill="#2F2E41"/>
<path d="M89.1294 79.1512C99.1868 83.2734 112.031 78.458 116.893 68.7421C121.756 59.0261 117.907 45.8675 108.575 40.2977C99.2416 34.7279 85.8245 37.5828 79.5714 46.469C74.4848 37.3109 61.1594 34.9761 52.0104 40.0862C42.8613 45.1962 37.8779 55.8998 37.2868 66.3575C36.6958 76.8151 39.8772 87.1173 43.7581 96.8471C50.0356 112.586 70.245 121.06 85.8805 114.51C78.7226 103.856 80.1356 88.2647 89.1294 79.1512Z" fill="#2F2E41"/>
<path d="M129.658 123.529C129.391 123.53 129.13 123.443 128.916 123.283L128.903 123.273L126.107 121.135C125.977 121.036 125.868 120.912 125.787 120.771C125.705 120.63 125.652 120.474 125.631 120.313C125.609 120.151 125.62 119.987 125.662 119.829C125.704 119.672 125.777 119.524 125.877 119.394C125.976 119.265 126.1 119.156 126.241 119.075C126.382 118.993 126.538 118.94 126.7 118.919C126.862 118.898 127.026 118.908 127.184 118.95C127.341 118.993 127.489 119.065 127.619 119.165L129.43 120.552L133.709 114.973C133.808 114.843 133.932 114.735 134.073 114.653C134.215 114.572 134.37 114.519 134.532 114.497C134.694 114.476 134.858 114.487 135.016 114.529C135.173 114.571 135.321 114.644 135.45 114.743L135.451 114.743L135.424 114.78L135.452 114.743C135.713 114.944 135.884 115.24 135.927 115.566C135.97 115.892 135.881 116.222 135.681 116.484L130.648 123.044C130.531 123.195 130.381 123.317 130.21 123.401C130.039 123.485 129.85 123.528 129.659 123.528L129.658 123.529Z" fill="#7903C1"/>
<path d="M682.577 -7.62939e-06H297.887C292.472 0.00489428 287.28 2.15681 283.451 5.98334C279.622 9.80988 277.469 14.9983 277.464 20.4099V82.7137C277.469 88.1253 279.622 93.3138 283.451 97.1403C287.28 100.967 292.472 103.119 297.887 103.124H682.577C687.992 103.119 693.184 100.967 697.013 97.1403C700.842 93.3138 702.995 88.1253 703 82.7137V20.4099C702.995 14.9983 700.842 9.80985 697.013 5.98332C693.184 2.15679 687.992 0.00489428 682.577 -7.62939e-06ZM700.851 82.7137C700.844 87.5549 698.916 92.1958 695.491 95.619C692.065 99.0422 687.422 100.968 682.577 100.975H297.887C293.043 100.968 288.399 99.0422 284.973 95.619C281.548 92.1958 279.62 87.5549 279.614 82.7137V20.4099C279.62 15.5687 281.548 10.9278 284.973 7.50463C288.399 4.08143 293.043 2.15525 297.887 2.14839H682.577C687.422 2.15525 692.065 4.08143 695.491 7.50463C698.916 10.9278 700.844 15.5687 700.851 20.4099V82.7137Z" fill="#3F3D56"/>
<path d="M376.172 87.0854C369.141 87.0854 362.269 85.0021 356.423 81.0987C350.577 77.1954 346.021 71.6474 343.331 65.1563C340.64 58.6652 339.936 51.5226 341.308 44.6316C342.68 37.7407 346.065 31.411 351.036 26.4429C356.007 21.4748 362.341 18.0915 369.237 16.7207C376.132 15.35 383.279 16.0535 389.774 18.7422C396.269 21.4309 401.821 25.984 405.727 31.8259C409.633 37.6677 411.718 44.5358 411.718 51.5618C411.707 60.9799 407.959 70.0092 401.295 76.6689C394.631 83.3285 385.596 87.0746 376.172 87.0854Z" fill="#7903C1"/>
<path d="M630.089 80.5654H445.329C443.048 80.5654 440.861 79.66 439.248 78.0483C437.635 76.4367 436.729 74.2509 436.729 71.9717C436.729 69.6925 437.635 67.5067 439.248 65.8951C440.861 64.2835 443.048 63.3781 445.329 63.3781H630.089C632.37 63.3781 634.557 64.2835 636.17 65.8951C637.783 67.5067 638.689 69.6925 638.689 71.9717C638.689 74.2509 637.783 76.4367 636.17 78.0483C634.557 79.66 632.37 80.5654 630.089 80.5654Z" fill="#CCCCCC"/>
<path d="M506.477 44.0423H445.329C443.048 44.0423 440.861 43.1369 439.248 41.5253C437.635 39.9137 436.729 37.7279 436.729 35.4487C436.729 33.1695 437.635 30.9837 439.248 29.3721C440.861 27.7605 443.048 26.8551 445.329 26.8551H506.477C508.758 26.8551 510.945 27.7605 512.558 29.3721C514.17 30.9837 515.076 33.1695 515.076 35.4487C515.076 37.7279 514.17 39.9137 512.558 41.5253C510.945 43.1369 508.758 44.0423 506.477 44.0423Z" fill="#CCCCCC"/>
<path d="M374.356 64.0572C373.474 64.0587 372.616 63.7736 371.91 63.2448L371.867 63.212L362.653 56.1687C362.226 55.8422 361.867 55.4346 361.597 54.9692C361.327 54.5038 361.152 53.9898 361.081 53.4567C361.01 52.9235 361.045 52.3816 361.184 51.8619C361.322 51.3422 361.562 50.855 361.89 50.4282C362.217 50.0013 362.626 49.6432 363.092 49.3742C363.558 49.1053 364.073 48.9308 364.606 48.8608C365.14 48.7908 365.682 48.8266 366.202 48.9662C366.722 49.1058 367.209 49.3465 367.635 49.6744L373.603 54.2477L387.704 35.8624C388.031 35.4361 388.439 35.0784 388.905 34.8097C389.37 34.5409 389.884 34.3664 390.416 34.296C390.949 34.2257 391.491 34.2609 392.01 34.3997C392.529 34.5385 393.016 34.7782 393.442 35.1049L393.444 35.1058L393.356 35.2273L393.446 35.1058C394.306 35.7668 394.869 36.7418 395.011 37.8171C395.153 38.8923 394.863 39.9799 394.203 40.8412L377.616 62.4567C377.233 62.9548 376.739 63.3578 376.175 63.6345C375.61 63.9112 374.989 64.0542 374.36 64.0524L374.356 64.0572Z" fill="white"/>
<path d="M517.286 167.632H132.596C127.181 167.637 121.989 169.789 118.16 173.616C114.331 177.442 112.178 182.631 112.173 188.042V250.346C112.178 255.757 114.331 260.946 118.16 264.772C121.989 268.599 127.181 270.751 132.596 270.756H517.286C522.701 270.751 527.893 268.599 531.722 264.772C535.551 260.946 537.704 255.757 537.709 250.346V188.042C537.704 182.631 535.551 177.442 531.722 173.616C527.893 169.789 522.701 167.637 517.286 167.632Z" fill="white"/>
<path d="M517.286 167.632H132.596C127.181 167.637 121.989 169.789 118.16 173.616C114.331 177.442 112.178 182.631 112.173 188.042V250.346C112.178 255.757 114.331 260.946 118.16 264.772C121.989 268.599 127.181 270.751 132.596 270.756H517.286C522.701 270.751 527.893 268.599 531.722 264.772C535.551 260.946 537.704 255.757 537.709 250.346V188.042C537.704 182.631 535.551 177.442 531.722 173.616C527.893 169.789 522.701 167.637 517.286 167.632ZM535.56 250.346C535.553 255.187 533.625 259.828 530.2 263.251C526.774 266.674 522.131 268.601 517.286 268.607H132.596C127.752 268.601 123.108 266.674 119.682 263.251C116.257 259.828 114.329 255.187 114.323 250.346V188.042C114.329 183.201 116.257 178.56 119.682 175.137C123.108 171.714 127.752 169.787 132.596 169.781H517.286C522.131 169.787 526.774 171.714 530.2 175.137C533.625 178.56 535.553 183.201 535.56 188.042V250.346Z" fill="#3F3D56"/>
<path d="M210.882 254.718C203.851 254.718 196.979 252.634 191.133 248.731C185.287 244.828 180.731 239.28 178.041 232.788C175.35 226.297 174.646 219.155 176.018 212.264C177.389 205.373 180.775 199.043 185.746 194.075C190.717 189.107 197.051 185.724 203.946 184.353C210.842 182.982 217.989 183.686 224.484 186.374C230.98 189.063 236.531 193.616 240.437 199.458C244.343 205.3 246.428 212.168 246.428 219.194C246.417 228.612 242.668 237.641 236.005 244.301C229.341 250.961 220.306 254.707 210.882 254.718Z" fill="#7903C1"/>
<path d="M464.798 248.198H280.038C277.757 248.198 275.57 247.292 273.957 245.681C272.344 244.069 271.438 241.883 271.438 239.604C271.438 237.325 272.344 235.139 273.957 233.527C275.57 231.916 277.757 231.01 280.038 231.01H464.798C467.079 231.01 469.266 231.916 470.879 233.527C472.492 235.139 473.398 237.325 473.398 239.604C473.398 241.883 472.492 244.069 470.879 245.681C469.266 247.292 467.079 248.198 464.798 248.198Z" fill="#CCCCCC"/>
<path d="M341.186 211.675H280.038C278.908 211.675 277.79 211.452 276.747 211.02C275.704 210.589 274.756 209.956 273.957 209.158C273.159 208.36 272.525 207.412 272.093 206.37C271.661 205.327 271.438 204.209 271.438 203.081C271.438 201.952 271.661 200.835 272.093 199.792C272.525 198.75 273.159 197.802 273.957 197.004C274.756 196.206 275.704 195.573 276.747 195.141C277.79 194.71 278.908 194.487 280.038 194.487H341.186C343.467 194.487 345.654 195.393 347.267 197.004C348.879 198.616 349.785 200.802 349.785 203.081C349.785 205.36 348.879 207.546 347.267 209.158C345.654 210.769 343.467 211.675 341.186 211.675Z" fill="#CCCCCC"/>
<path d="M209.065 231.689C208.183 231.691 207.325 231.406 206.619 230.877L206.575 230.844L197.362 223.801C196.935 223.474 196.576 223.067 196.306 222.601C196.036 222.136 195.861 221.622 195.79 221.089C195.719 220.556 195.754 220.014 195.893 219.494C196.031 218.974 196.271 218.487 196.599 218.06C196.926 217.633 197.335 217.275 197.801 217.006C198.267 216.737 198.782 216.563 199.315 216.493C199.849 216.423 200.391 216.459 200.911 216.598C201.431 216.738 201.918 216.979 202.344 217.307L208.312 221.88L222.413 203.495C222.74 203.068 223.148 202.711 223.614 202.442C224.079 202.173 224.593 201.999 225.125 201.928C225.658 201.858 226.2 201.893 226.719 202.032C227.238 202.171 227.725 202.41 228.151 202.737L228.153 202.738L228.065 202.859L228.155 202.738C229.015 203.399 229.578 204.374 229.72 205.449C229.862 206.525 229.572 207.612 228.912 208.473L212.325 230.089C211.942 230.587 211.448 230.99 210.884 231.267C210.319 231.543 209.698 231.686 209.069 231.685L209.065 231.689Z" fill="white"/>
<path d="M120.121 181.687C118.575 181.033 116.905 180.726 115.228 180.788C113.55 180.85 111.907 181.278 110.413 182.043C108.92 182.808 107.612 183.891 106.582 185.215C105.553 186.54 104.826 188.074 104.454 189.71L78.5948 194.137L77.4541 210.498L113.884 203.733C116.675 204.176 119.532 203.58 121.912 202.059C124.293 200.537 126.033 198.196 126.802 195.478C127.57 192.761 127.315 189.856 126.084 187.314C124.853 184.772 122.731 182.77 120.121 181.687L120.121 181.687Z" fill="#FFB8B8"/>
<path d="M75.7015 134.727C79.4484 136.409 82.4037 139.468 83.9543 143.27C85.505 147.071 85.5321 151.323 84.0301 155.144L69.0405 193.274L87.8587 189.817C89.0337 189.601 90.2473 189.822 91.2707 190.438C92.2942 191.054 93.0571 192.023 93.4157 193.162L97.167 205.076C97.363 205.698 97.4324 206.353 97.3713 207.003C97.3101 207.653 97.1196 208.284 96.8109 208.859C96.5022 209.434 96.0816 209.941 95.5738 210.351C95.0659 210.761 94.4812 211.066 93.8539 211.247L69.3946 218.305C66.3006 219.197 63.0416 219.361 59.8735 218.784C56.7054 218.206 53.7144 216.902 51.1353 214.975C48.5562 213.048 46.4592 210.549 45.0089 207.676C43.5587 204.802 42.7946 201.632 42.7767 198.413C42.7683 196.909 42.923 195.409 43.238 193.939L53.5153 145.957C54.0144 143.627 55.0287 141.438 56.4838 139.55C57.9389 137.663 59.7981 136.124 61.9251 135.048C64.0522 133.971 66.3933 133.383 68.777 133.328C71.1607 133.272 73.5266 133.75 75.7015 134.727Z" fill="#CCCCCC"/>
</g>
<defs>
<clipPath id="clip0_79_1290">
<rect width="703" height="503" fill="white"/>
</clipPath>
</defs>
</svg>
